<!-- Generated by IcoMoon.io -->
<svg version="1.1" xmlns="http://www.w3.org/2000/svg" width="32" height="32" viewBox="0 0 32 32">
<title>Vector</title>
<path fill="#000" d="M8 0h16c2.122 0 4.157 0.843 5.657 2.343s2.343 3.535 2.343 5.657v16c0 2.122-0.843 4.157-2.343 5.657s-3.535 2.343-5.657 2.343h-16c-2.122 0-4.157-0.843-5.657-2.343s-2.343-3.535-2.343-5.657v-16c0-2.122 0.843-4.157 2.343-5.657s3.535-2.343 5.657-2.343zM21.968 13.894c0.144-0.153 0.256-0.334 0.33-0.53s0.109-0.406 0.102-0.616-0.055-0.417-0.142-0.608c-0.087-0.191-0.21-0.364-0.364-0.508s-0.334-0.256-0.53-0.33c-0.197-0.074-0.406-0.109-0.616-0.102s-0.417 0.055-0.608 0.142-0.364 0.21-0.508 0.364l-4.933 5.264-2.437-2.165c-0.319-0.265-0.729-0.396-1.143-0.365s-0.8 0.222-1.075 0.532c-0.276 0.31-0.42 0.716-0.403 1.131s0.196 0.807 0.497 1.093l3.6 3.2c0.311 0.277 0.719 0.421 1.135 0.402s0.809-0.199 1.094-0.503l6.002-6.4z"></path>
</svg>
