<svg height="512pt" viewBox="-4 0 512 512" width="512pt" xmlns="http://www.w3.org/2000/svg"><path d="m489.164062 271.503906c6.800782-3.929687 11.667969-10.269531 13.699219-17.855468 2.035157-7.589844.992188-15.515626-2.9375-22.316407-3.925781-6.800781-10.269531-11.667969-17.859375-13.703125-4.96875-1.332031-10.164062-1.296875-15.074218.019532-3.59375-3.59375-8.074219-6.222657-13.046876-7.554688-7.585937-2.035156-15.515624-.992188-22.316406 2.9375-6.804687 3.925781-11.667968 10.269531-13.703125 17.859375-3.289062 12.269531 1.726563 24.847656 11.589844 31.734375l-7.722656 28.828125c-16.644531 2.351563-34.660157 13.546875-51.816407 32.367187-2.097656-.269531-4.242187-.480468-6.429687-.640624l27.285156-132.304688c.746094-3.617188 1.035157-7.257812.910157-10.859375 0-.011719 0-.023437 0-.035156.023437-82.023438-55.269532-153.582031-134.511719-174.191407-4.660157-3.625-10.503907-5.789062-16.847657-5.789062h-60.421874c-48.070313 0-93.261719 18.722656-127.25 52.71875-33.984376 33.992188-52.695313 79.1875-52.6835942 127.261719v.035156c-.125 3.601563.1640622 7.242187.9101562 10.859375l50.457031 244.671875c4.355469 21.113281 23.160157 36.433594 44.714844 36.433594h135.375c12.007813 18.335937 28.992187 31.363281 48.367187 36.921875 7.214844 2.070312 14.609376 3.097656 22.09375 3.097656 15.929688 0 32.265626-4.660156 48.191407-13.851562 2.382812-1.378907 4.8125-2.902344 7.253906-4.527344 9.160156 6.679687 19.859375 11.765625 31.65625 14.925781 8.511719 2.28125 17.03125 3.414063 25.351563 3.414063 14.503906 0 28.402343-3.4375 40.582031-10.183594 20.542969-11.386719 35.097656-31.203125 42.09375-57.304688 6.292969-23.484375 7.019531-53.761718 1.945312-80.984375-5.136719-27.570312-15.585937-48.246093-29.78125-59.328125l7.71875-28.808594c4.25-.359374 8.402344-1.652343 12.207031-3.847656zm-122.203124-130.476562c-6.359376-3.265625-13.472657-5.03125-20.84375-5.03125h-14.238282v-30.765625c0-15.164063-12.335937-27.5-27.5-27.5h-28.996094c-2.601562 0-5.113281.371093-7.5 1.046875v-48.6875c49.640626 18.511718 86.433594 60.367187 99.078126 110.9375zm-99.078126 17.964844v-53.761719c0-4.136719 3.363282-7.5 7.5-7.5h28.996094c4.136719 0 7.5 3.363281 7.5 7.5v30.765625h-13.992187c-12.132813 0-23.148438 7.523437-27.414063 18.722656-.78125 2.054688-1.652344 4.058594-2.589844 6.019531zm-20-131.492188v159.242188c-3.734374 3.199218-7.75 6.054687-12 8.527343v-51.804687c0-15.164063-12.335937-27.5-27.5-27.5h-4.5v-88.464844c0-4.136719 3.363282-7.5 7.5-7.5h29c4.136719 0 7.5 3.363281 7.5 7.5zm-127.996093 124.148438c-4.972657-9.476563-15.019531-15.652344-26.003907-15.652344h-17.992187v-23.507813c0-4.136719 3.363281-7.5 7.5-7.5h28.996094c4.136719 0 7.5 3.363281 7.5 7.5zm20 28.328124v-108.480468c0-4.136719 3.363281-7.5 7.5-7.5h29c4.132812 0 7.496093 3.363281 7.496093 7.5v44.46875h-4.496093c-15.164063 0-27.5 12.332031-27.5 27.496094v49.3125c-4.296875-2.84375-8.316407-6.097657-12-9.714844zm32-36.515624c0-4.132813 3.363281-7.5 7.5-7.5h28.996093c4.136719 0 7.5 3.367187 7.5 7.5v60.0625c-6.449218 1.691406-13.15625 2.59375-20 2.59375-8.265624 0-16.34375-1.304688-23.996093-3.742188zm-105.03125-76.605469c30.207031-30.214844 70.378906-46.855469 113.105469-46.855469h4.972656c-.679688 2.386719-1.046875 4.898438-1.046875 7.5v17.546875c-2.386719-.675781-4.902344-1.046875-7.5-1.046875h-29c-15.160157 0-27.5 12.332031-27.5 27.496094v14.539062c-2.382813-.675781-4.898438-1.046875-7.5-1.046875h-28.996094c-15.164063 0-27.5 12.335938-27.5 27.5v23.507813h-10.238281c-7.390625 0-14.519532 1.773437-20.894532 5.058594 6.925782-27.84375 21.289063-53.382813 42.097657-74.199219zm4.128906 364.652343-50.460937-244.675781c-1.5625-7.585937.347656-15.382812 5.238281-21.386719 4.894531-6.007812 12.144531-9.453124 19.890625-9.453124h48.230468c3.886719 0 7.390626 2.347656 8.722657 5.84375 7.121093 18.703124 19.578125 34.6875 36.019531 46.226562 16.832031 11.8125 36.632812 18.054688 57.257812 18.054688 20.628907 0 40.429688-6.242188 57.261719-18.054688 16.441407-11.539062 28.894531-27.523438 36.019531-46.226562 1.328126-3.496094 4.835938-5.84375 8.722657-5.84375h48.230469c7.746093 0 14.996093 3.445312 19.890624 9.449218 4.890626 6.007813 6.800782 13.804688 5.234376 21.390625l-28.105469 136.289063c-27.75 1.675781-58.347657 10.074218-80.769531 23.015625-.664063.386719-1.320313.773437-1.976563 1.167969 1.613281-5.835938 2.488281-11.976563 2.488281-18.316407 0-38.046875-30.949218-69-68.996094-69-38.046874 0-68.996093 30.953125-68.996093 69 0 38.042969 30.949219 68.996094 68.996093 68.996094 9.535157 0 18.625-1.945313 26.894532-5.460937-1.128906 2.964843-2.089844 6-2.863282 9.105468-4.054687 16.269532-2.800781 33.691406 3.414063 50.351563h-125.21875c-12.113281 0-22.679687-8.609375-25.125-20.472657zm122.898437-53.523437c-27.015624 0-48.996093-21.980469-48.996093-48.996094 0-27.019531 21.980469-49 48.996093-49 27.019532 0 49 21.980469 49 49 0 27.015625-21.980468 48.996094-49 48.996094zm52.210938 79.652344c-.222656-.460938-.472656-.90625-.761719-1.324219-16.402343-29.144531-14.390625-68.933594 27.035157-92.851562 22.539062-13.011719 55.535156-20.992188 82.46875-20.648438-12.574219 17.921875-22.421876 38.003906-27.308594 56.234375-6.992188 26.101563-4.292969 50.535156 7.804687 70.667969 2.074219 3.449218 4.410157 6.722656 6.984375 9.816406-.734375.445312-1.460937.882812-2.183594 1.296875-41.515624 23.96875-77.039062 5.691406-94.039062-23.191406zm233.265625-90.480469c4.484375 24.066406 3.871094 51.710938-1.601563 72.144531-12.492187 46.605469-50.953124 58.65625-83.535156 49.929688-32.578125-8.726563-59.863281-38.398438-47.375-85.007813 5.476563-20.433594 18.765625-44.679687 34.683594-63.28125 16.332031-19.085937 33.242188-29.9375 46.617188-29.964844l25.824218 6.921876c11.566406 6.710937 20.785156 24.566406 25.386719 49.257812zm-7.332031-112.03125c-2.558594-.683594-5.292969-.328125-7.589844 1-2.296875 1.324219-3.972656 3.507812-4.65625 6.070312l-9.140625 34.105469-8.808594-2.363281 9.136719-34.101562c1.429688-5.335938-1.738281-10.816407-7.070312-12.25-5.011719-1.339844-7.996094-6.511719-6.652344-11.519532.652344-2.429687 2.207031-4.460937 4.382812-5.714844 2.175782-1.257812 4.710938-1.589843 7.144532-.9375 3.496093.9375 5.222656 3.527344 5.941406 4.984376 1.273437 2.589843 3.601562 4.503906 6.386718 5.25 2.785157.746093 5.757813.253906 8.152344-1.351563 1.351563-.90625 4.144532-2.285156 7.640625-1.347656 2.429688.648437 4.460938 2.207031 5.71875 4.382812 1.253907 2.175781 1.585938 4.710938.9375 7.140625-.652343 2.429688-2.207031 4.457032-4.382812 5.714844-2.179688 1.253906-4.71875 1.585938-7.140625.9375zm0 0"/><path d="m87.65625 267.6875c-1.113281-5.410156-6.40625-8.890625-11.8125-7.773438-5.40625 1.113282-8.886719 6.402344-7.773438 11.8125l25.191407 122.148438c.972656 4.730469 5.136719 7.980469 9.78125 7.980469.671875 0 1.351562-.066407 2.03125-.207031 5.410156-1.113282 8.890625-6.402344 7.773437-11.8125zm0 0"/><path d="m76.855469 237.589844c1.859375-1.859375 2.929687-4.4375 2.929687-7.070313 0-2.628906-1.070312-5.199219-2.929687-7.070312-1.859375-1.859375-4.441407-2.929688-7.070313-2.929688s-5.210937 1.070313-7.070312 2.929688c-1.859375 1.863281-2.929688 4.441406-2.929688 7.070312 0 2.640625 1.070313 5.210938 2.929688 7.070313s4.441406 2.929687 7.070312 2.929687 5.210938-1.070312 7.070313-2.929687zm0 0"/></svg>