<svg height="512" viewBox="0 0 512 512" width="512" xmlns="http://www.w3.org/2000/svg"><g id="Outline"><path d="m376 104a40.045 40.045 0 0 0 -40-40h-64v16h64a24.027 24.027 0 0 1 24 24v244.764l-16-15.908v-164.856a8 8 0 0 0 -8-8h-64a8 8 0 0 0 -8 8v64a8.034 8.034 0 0 1 -4 6.935l8 13.852a23.883 23.883 0 0 0 4-2.913 23.944 23.944 0 0 0 32 0 23.943 23.943 0 0 0 24 4.755v63.483a30.429 30.429 0 0 0 -16-4.505v-33.607a8 8 0 0 0 -8-8h-96a8 8 0 0 0 -8 8v64h-16v-32h-16v40a8 8 0 0 0 8 8h109.241a30.209 30.209 0 0 0 3.649 5.2l37.41 43.766a92.5 92.5 0 0 0 -.594 84.336l3.139 6.278 14.31-7.156-3.138-6.277a76.617 76.617 0 0 1 2.843-74.029 8 8 0 0 0 -.779-9.314l-41.089-48.07a14.624 14.624 0 0 1 -3.619-9.632v-.871a14.627 14.627 0 0 1 24.986-10.331l63.984 63.755 11.314-11.314-21.657-21.654zm-80 214.126a30.632 30.632 0 0 0 -14.622 25.874h-17.378v-56h32zm-80-30.126h32v56h-32zm112-80h-16v-32h16zm-32-32v32h-16v-32zm-8 64a8.009 8.009 0 0 1 -8-8v-8h16v8a8.009 8.009 0 0 1 -8 8zm32 0a8.009 8.009 0 0 1 -8-8v-8h16v8a8.009 8.009 0 0 1 -8 8z"/><path d="m152 456v-168h-16v168a40.045 40.045 0 0 0 40 40h128v-16h-128a24.028 24.028 0 0 1 -24-24z"/><path d="m208 448h96v16h-96z"/><path d="m424.223 337.472-25.976-32.472-12.494 10 25.976 32.469a56.2 56.2 0 0 1 12.271 34.981v113.55h16v-113.55a72.265 72.265 0 0 0 -15.777-44.978z"/><path d="m248 384h16v16h-16z"/><path d="m216 384h16v16h-16z"/><path d="m280 384h16v16h-16z"/><path d="m176 295.932a7.99 7.99 0 0 0 8-7.932v-32h32a40.045 40.045 0 0 0 40-40v-160a40.045 40.045 0 0 0 -40-40h-160a40.045 40.045 0 0 0 -40 40v8h16v-8a24.028 24.028 0 0 1 24-24h160a24.028 24.028 0 0 1 24 24v160a24.028 24.028 0 0 1 -24 24h-40a8 8 0 0 0 -8 8v22.919l-34.878-29.065a8 8 0 0 0 -5.122-1.854h-72a24.028 24.028 0 0 1 -24-24v-136h-16v136a40.045 40.045 0 0 0 40 40h69.1l45.774 38.146a8.309 8.309 0 0 0 5.126 1.786z"/><path d="m48 176v24a24.028 24.028 0 0 0 24 24h128a24.028 24.028 0 0 0 24-24v-24a7.985 7.985 0 0 0 -3.43-6.561 27.993 27.993 0 0 0 -.01-26.871 7.984 7.984 0 0 0 3.44-6.568v-16a72.081 72.081 0 0 0 -72-72h-32a72.081 72.081 0 0 0 -72 72v16a7.985 7.985 0 0 0 3.43 6.561 27.993 27.993 0 0 0 .01 26.871 7.984 7.984 0 0 0 -3.44 6.568zm160 24a8.009 8.009 0 0 1 -8 8h-128a8.009 8.009 0 0 1 -8-8v-16h144zm-144-44a11.977 11.977 0 0 1 6.727-10.771l28.466 22.771h-23.193a12.013 12.013 0 0 1 -12-12zm132-12a12 12 0 0 1 0 24h-71.194l30-24zm-84 13.755-17.195-13.755h34.389zm-48-37.755a56.064 56.064 0 0 1 56-56h32a56.064 56.064 0 0 1 56 56v8h-144z"/><path d="m96 88h16v16h-16z"/><path d="m128 88h16v16h-16z"/><path d="m160 88h16v16h-16z"/><path d="m272 96h32v16h-32z"/></g></svg>