<svg xmlns="http://www.w3.org/2000/svg" width="32" height="32"><path d="M19.707.059c-2.446.229-4.863 1.349-6.66 3.086C11.076 5.051 9.928 7.42 9.65 10.16c-.07.683-.038 2.137.056 2.613.092.464.435.669.802.48.271-.14.284-.218.208-1.187-.241-3.05.793-5.874 2.934-8.016C17.489.211 23.547.068 27.62 3.72c1.196 1.072 2.258 2.702 2.776 4.259a10.27 10.27 0 0 1 .211 5.752 10.082 10.082 0 0 1-4.713 6.215c-.69.398-.827.525-.827.77 0 .221.212.482.431.531.176.039.796-.257 1.462-.698 3.064-2.028 4.891-5.282 5.023-8.949.093-2.581-.701-5.083-2.281-7.185-.454-.605-1.569-1.706-2.182-2.156-2.323-1.707-5.005-2.462-7.813-2.2m-3.968 5.882a.53.53 0 0 0-.213.689c.032.064.816.876 1.741 1.805l1.683 1.689-.129.311c-.102.25-.128.407-.128.794 0 .45.014.511.2.886.239.486.548.788 1.044 1.023.323.153.404.169.866.169.481 0 .532-.012.912-.2.486-.239.788-.548 1.023-1.044.153-.323.169-.404.169-.866 0-.481-.012-.532-.2-.912-.351-.711-.985-1.144-1.758-1.202-.33-.024-.454-.007-.812.114l-.424.142-1.683-1.677c-.926-.923-1.736-1.704-1.8-1.736a.519.519 0 0 0-.491.015m5.647 4.372c.318.211.454.476.454.887 0 .272-.027.39-.127.55-.184.297-.472.468-.843.499-.39.034-.714-.122-.95-.458-.139-.197-.16-.273-.16-.582.001-.297.024-.39.142-.561.145-.209.418-.426.606-.479.226-.063.676.01.878.144M9.054 13.926c-3.247.313-6.164 2.241-7.423 4.906-.518 1.095-.667 1.856-.444 2.269.124.232.384.481.646.621l.22.118h21.494l.22-.118c.262-.14.522-.389.646-.621.141-.261.115-.824-.061-1.341-1.1-3.227-4.156-5.485-7.899-5.838-.694-.065-6.712-.062-7.399.004m7.327 1.064c2.352.24 4.499 1.368 5.831 3.063.434.553.833 1.255 1.042 1.833.239.66.247.724.099.827-.113.08-1.008.087-10.553.087-9.545 0-10.44-.007-10.553-.087-.148-.103-.14-.167.099-.827.31-.856.981-1.875 1.689-2.562 1.285-1.247 3.234-2.136 5.112-2.332.64-.067 6.584-.069 7.234-.002M1.64 22.458A2.169 2.169 0 0 0 0 24.533c0 .846.469 1.558 1.277 1.942l.35.165h22.352l.403-.199c.485-.24.788-.549 1.023-1.045.152-.322.168-.404.168-.863 0-.458-.016-.54-.168-.863a2.062 2.062 0 0 0-1.023-1.044l-.403-.199-11.07-.009c-6.321-.004-11.155.012-11.269.04m22.417 1.195c.609.43.609 1.331 0 1.76l-.226.16H1.787l-.204-.126a1.101 1.101 0 0 1-.466-1.224c.074-.274.402-.623.654-.696.109-.032 4.311-.048 11.118-.042l10.942.008.226.16M1.339 27.274c-.243.135-.268.258-.27 1.323-.001.549.024 1.125.057 1.28.208 1 1.064 1.856 2.063 2.064.4.083 18.822.083 19.222 0 .999-.208 1.855-1.064 2.063-2.064.033-.155.059-.726.059-1.269 0-1.075-.032-1.226-.292-1.344-.216-.099-22.724-.088-22.902.01M23.458 29c-.017.676-.03.757-.168 1.039-.18.366-.486.642-.874.787-.283.106-.405.107-9.616.107s-9.333-.001-9.616-.107a1.577 1.577 0 0 1-.874-.787c-.138-.282-.151-.363-.168-1.039l-.019-.733h21.354l-.019.733" fill-rule="evenodd"/></svg>