<svg xmlns="http://www.w3.org/2000/svg" width="31" height="32"><path d="M24.723.212C19.247 2 14.112 2.953 8.577 3.208c-1.577.073-4.726.032-6.226-.08-.569-.043-1.061-.078-1.094-.079-.113-.002-.371.26-.404.41-.045.205.095.459.3.544.09.038.432.083.759.101.326.018.688.045.803.059l.21.025.146 1.174c.299 2.407.316 2.503.467 2.633a.5.5 0 0 0 .347.117c.199 0 .244-.032.737-.517.288-.284.54-.517.559-.517.018 0 .319.164.668.365.518.297.664.36.79.336.173-.032.439-.292.44-.43 0-.05-.084-.759-.188-1.576-.105-.818-.18-1.495-.169-1.505.011-.01.492-.03 1.067-.044 1.036-.026 1.047-.025 1.07.084.013.06.096.687.184 1.393.088.705.186 1.34.218 1.411a.522.522 0 0 0 .201.203c.296.152.385.109.974-.471l.553-.544.615.362c.648.383.87.442 1.087.289.236-.165.242-.282.073-1.577a30.542 30.542 0 0 1-.157-1.342v-.135l.994-.121 1.044-.127c.028-.004.125.572.217 1.28.092.707.195 1.355.23 1.44.076.182.358.32.556.27.073-.018.37-.266.659-.551l.526-.518.587.347c.674.399.878.451 1.093.281a.68.68 0 0 0 .191-.232c.029-.075-.018-.604-.133-1.504a80.023 80.023 0 0 1-.178-1.443c0-.03.157-.086.349-.124.192-.038.656-.144 1.031-.234l.682-.164.028.133c.015.074.099.715.187 1.426.087.71.181 1.376.207 1.48.059.227.236.354.493.354.171 0 .242-.051.715-.517.289-.284.544-.516.566-.516.023 0 .324.162.669.361.346.199.67.362.721.362.138 0 .387-.142.447-.255.083-.154.068-.347-.153-2.07a70.7 70.7 0 0 1-.207-1.696c0-.069.188-.151.831-.364.745-.247.84-.292.93-.438.122-.2.125-.311.013-.499a.505.505 0 0 0-.446-.253c-.062.003-.392.096-.733.207m-1.454 2.713c.078.614.132 1.126.12 1.139-.013.012-.163-.06-.335-.161-.463-.272-.614-.255-.997.109-.168.161-.314.283-.323.272-.031-.038-.261-2.007-.238-2.029.033-.029 1.455-.434 1.55-.441.067-.005.105.187.223 1.111m-5.785 1.057c.051.428.082.789.068.803-.013.014-.175-.058-.358-.158-.455-.25-.541-.241-.925.101-.175.157-.332.273-.347.258-.028-.028-.223-1.484-.201-1.501.026-.02 1.416-.268 1.539-.275l.132-.007.092.779m-5.909.113c.001.035.045.378.097.762.053.383.089.705.081.714-.008.009-.114-.046-.236-.123-.329-.208-.563-.293-.707-.257-.07.018-.265.163-.432.322-.166.159-.303.28-.303.269 0-.012-.046-.38-.103-.818a12.556 12.556 0 0 1-.09-.809c.017-.017 1.146-.108 1.446-.118.165-.005.246.014.247.058m-5.89.232c.001.05.057.509.124 1.021.068.511.115.938.105.948-.01.01-.156-.065-.325-.168-.464-.282-.642-.264-1.039.103-.173.16-.313.268-.313.241 0-.027-.058-.489-.129-1.026a23.096 23.096 0 0 1-.13-1.093c0-.116.003-.116.853-.116.777 0 .852.008.854.09m9.521 4.454c-.214.131-.274.35-.274 1.016v.522l-.323.033c-.832.086-1.965.527-2.762 1.076-1.429.984-2.431 2.662-2.648 4.432-.03.241-.054.467-.054.501 0 .049-.389.067-1.64.079l-1.641.016-.232.137a1.426 1.426 0 0 0-.63.689c-.102.223-.119.342-.118.853.001.705.087.936.487 1.31.436.408.288.395 4.533.395h3.736v11.84l.151.151.151.151h1.479c1.605 0 1.704-.016 1.826-.283.046-.103.061-1.562.061-5.996v-5.86l3.837-.014c4.284-.017 3.997.008 4.435-.387.352-.318.427-.52.45-1.215.031-.902-.147-1.3-.722-1.619l-.276-.152-1.627-.026-1.628-.026-.031-.393c-.233-2.863-2.477-5.236-5.342-5.649l-.413-.059-.031-.695a21.213 21.213 0 0 0-.039-.709 1.453 1.453 0 0 0-.176-.116c-.21-.129-.331-.129-.539-.002M1.033 10.327c-.269.088-.46.217-.665.451-.256.29-.336.554-.304 1.002.025.349.12.591.334.847.499.598.725 1.602.771 3.416.054 2.114-.225 3.932-.919 5.993-.301.893-.31 1.124-.063 1.578.287.526.686.721 1.478.721.391 0 .51.016.492.065a973.65 973.65 0 0 0-.935 2.805C.58 29.136.31 30.016.31 30.18c0 .497.268.959.705 1.215.314.184.846.226 1.189.095.29-.11.612-.39.738-.641.05-.102.562-1.598 1.137-3.325l1.045-3.139 1.084.014 1.083.014 1.047 3.151c.576 1.734 1.084 3.222 1.129 3.307.224.423.705.695 1.228.695.76 0 1.322-.516 1.383-1.268.024-.304-.015-.44-.893-3.076a973.4 973.4 0 0 0-.942-2.822c-.018-.048.069-.065.334-.065.441 0 .765-.106 1.037-.339.729-.624.599-1.802-.25-2.27l-.282-.155-3.659-.026-3.66-.026-.125-.145c-.158-.183-.157-.317.002-1.095.735-3.583.513-6.97-.575-8.774-.243-.403-.755-.943-1.024-1.081-.225-.115-.788-.169-1.008-.097m28.049.023c-.332.124-.555.294-.847.646-.606.73-1.006 1.767-1.248 3.238-.076.458-.093.856-.092 2.041.002 1.621.081 2.428.386 3.94.186.922.187.975.029 1.159l-.124.145-3.66.026c-3.649.026-3.661.026-3.873.14-.536.286-.809.716-.806 1.269.003.524.246.932.724 1.212.188.11.318.141.665.159.274.015.431.044.431.082 0 .032-.41 1.279-.91 2.77-.776 2.317-.909 2.757-.909 3.022.001.371.101.626.36.914.632.701 1.829.575 2.244-.236.06-.117.578-1.619 1.152-3.339l1.042-3.125 1.081-.014 1.081-.014 1.073 3.222c.655 1.965 1.122 3.287 1.197 3.389.268.364.684.572 1.141.572.731 0 1.329-.535 1.404-1.258.026-.253-.043-.487-.908-3.087-.515-1.547-.937-2.83-.937-2.851 0-.02.239-.037.53-.038.629 0 .928-.11 1.239-.455.434-.482.47-.913.15-1.829-.651-1.866-.924-3.685-.87-5.796.045-1.729.228-2.681.687-3.572.348-.676.426-1.037.309-1.438-.16-.551-.621-.911-1.209-.945-.211-.012-.417.008-.532.051M1.884 11.593c.721.88 1.092 2.251 1.149 4.243.042 1.464-.1 2.926-.434 4.492-.09.421-.123.702-.104.884.053.508.376.962.854 1.196l.294.144 3.627.026c3.957.029 3.738.01 3.814.322.028.114.005.171-.121.297l-.157.156H1.287l-.127-.126c-.07-.07-.127-.182-.127-.248 0-.067.095-.399.21-.739.603-1.773.906-3.468.961-5.371.06-2.062-.254-3.793-.836-4.611-.396-.556-.426-.785-.117-.914.223-.094.412-.02.633.249m14.2-.256c1.051.078 2.197.613 3.049 1.422.889.845 1.492 2.084 1.614 3.322l.035.349H10.178v-.174c0-.339.16-1.085.33-1.537.707-1.881 2.485-3.234 4.467-3.399a5.33 5.33 0 0 1 .603-.023c.085.008.313.026.506.04m13.589-.014c.267.14.253.278-.094.959-.499.979-.737 2.161-.785 3.898-.058 2.087.196 3.857.846 5.894.32 1.001.323 1.121.04 1.229-.204.077-9.452.068-9.598-.01-.266-.142-.311-.37-.117-.596l.125-.145h3.556c3.35 0 3.573-.005 3.836-.097.483-.168.877-.67.96-1.223.025-.168-.015-.474-.148-1.134-.315-1.563-.368-2.116-.368-3.823.001-1.339.015-1.599.113-2.144.205-1.131.562-2.024 1.011-2.535.277-.315.423-.379.623-.273m-15.284.866c-.857.218-1.466.562-2.105 1.19-.422.415-.452.458-.452.656 0 .266.151.468.383.512.22.041.433-.066.622-.314.176-.232.673-.603 1.084-.811a4.76 4.76 0 0 1 .801-.277c.606-.149.754-.277.709-.612-.057-.428-.34-.522-1.042-.344m10.496 5.345c.122.105.145.169.163.464.026.404-.008.569-.146.707-.101.1-.211.102-9.43.102H6.144l-.127-.127c-.114-.114-.127-.17-.127-.547 0-.395.009-.428.151-.57l.151-.151H24.743l.142.122m-8.61 7.887v5.582l-.814-.015-.814-.014-.013-5.567-.013-5.567h1.654v5.581M4.03 24.4c0 .167-1.987 6.003-2.073 6.09-.207.206-.614.025-.614-.273 0-.138 1.751-5.564 1.869-5.792.038-.073.117-.09.432-.09.274 0 .386.019.386.065m6.114 2.871c.877 2.619.968 2.924.914 3.054-.103.25-.44.34-.615.165-.087-.087-2.073-5.923-2.073-6.093 0-.05.1-.063.4-.051l.401.015.973 2.91m12.434-2.897c0 .021-.444 1.375-.986 3.009-1.071 3.226-1.08 3.246-1.412 3.182-.172-.033-.34-.197-.34-.332 0-.046.431-1.392.957-2.991l.958-2.907h.411c.227 0 .412.017.412.039m6.08 2.829c.518 1.562.943 2.906.945 2.986.003.176-.204.398-.372.398-.287 0-.297-.025-1.334-3.139l-1.018-3.051c-.02-.052.071-.063.405-.051l.431.015.943 2.842" fill-rule="evenodd"/></svg>