<svg xmlns="http://www.w3.org/2000/svg" width="32" height="32"><path d="M18.815.083c-.287.156-.349.549-.126.807l.128.15 1.818.015 1.818.016v.637c0 .618-.003.637-.12.658-.066.012-.36.059-.653.105-2.24.349-4.29 1.857-5.33 3.922a8.96 8.96 0 0 0-.62 1.807l-.064.333h-.445c-.413 0-.458.011-.614.15l-.167.15-.192 1.74c-.206 1.878-.205 1.943.059 2.139.118.088.249.114.649.132l.501.022.029.167c.016.092.044.279.063.416l.035.249-.499-.159c-1.269-.402-2.349-.575-3.858-.615-2.255-.06-4.278.35-6.078 1.231-1.061.52-1.761 1.01-2.516 1.761C1.502 17.041.874 18.233.765 19.467c-.017.195-.193.883-.402 1.573-.328 1.082-.369 1.265-.348 1.549.013.177.065.402.116.499.086.166.086.197.001.508-.069.257-.085.501-.071 1.101.02.831.085 1.056.401 1.39l.133.141-.185.243a2.425 2.425 0 0 0-.302.593c-.106.317-.115.437-.099 1.296.017.932.02.952.183 1.297.213.449.608.844 1.072 1.072l.36.178 8.508.026 8.508.027.364.206c1.026.58 2.671.879 4.489.818 2.043-.069 3.659-.564 4.458-1.365.204-.203.378-.431.412-.539.033-.103.541-3.967 1.13-8.587.588-4.62 1.081-8.451 1.095-8.513.022-.104.066-.116.524-.136.552-.024.746-.105.842-.353.042-.109.014-.526-.113-1.691-.221-2.025-.207-1.947-.379-2.12-.138-.137-.177-.147-.601-.147h-.453l-.063-.306c-.315-1.539-1.172-3.024-2.325-4.025-1.191-1.033-2.416-1.562-4.247-1.831l-.2-.029v-.955c0-1.038-.03-1.185-.274-1.311-.221-.114-4.272-.108-4.484.007M22.453 6v2.533h-5.665l.037-.2c.062-.339.293-.98.506-1.407.846-1.694 2.5-2.969 4.381-3.377.188-.041.431-.076.541-.078l.2-.004V6m1.974-2.43c1.892.42 3.561 1.751 4.377 3.493.173.369.476 1.275.476 1.423 0 .028-1.19.042-2.84.034l-2.84-.013-.014-2.52-.014-2.52.201.001c.11 0 .404.046.654.102m6.187 6.123c0 .052.048.502.106 1 .058.499.106.937.106.974.001.053-1.592.066-7.786.066-7.621 0-7.787-.002-7.787-.101 0-.112.14-1.443.189-1.805l.031-.227h7.57c7.174 0 7.57.005 7.571.093m-1.145 3.334c-.016.095-.499 3.881-1.073 8.413-.837 6.618-1.061 8.266-1.137 8.373-.281.397-1.454.84-2.71 1.025-.689.101-2.523.083-3.189-.03-1.289-.22-2.295-.657-2.532-1.099-.035-.066-2.241-16.625-2.241-16.823 0-.018 2.905-.033 6.455-.033h6.456l-.029.174M12.8 14.107c.752.115 1.537.31 2.287.569.341.117.626.22.634.228.023.022.279 1.961.275 2.083-.003.101-.005.101-.049-.008-.068-.169-.265-.286-.483-.286-.27 0-.749.15-.888.279-.347.32-.099.895.386.895.231 0 .712-.16.858-.286a.62.62 0 0 0 .172-.299c.029-.137.075.104.184.961.08.629.145 1.174.145 1.21-.001.053-1.484.067-7.234.067H1.855l.037-.25c.181-1.204 1.197-2.587 2.576-3.505 1.447-.963 3.297-1.572 5.345-1.759.516-.047 2.447.018 2.987.101m-.8.941c-.408.129-.473.175-.569.405-.061.147-.061.201.003.353.09.216.271.354.466.354.274 0 .836-.21.95-.355a.522.522 0 0 0-.185-.789c-.217-.103-.239-.102-.665.032m-3.973.078c-.638.189-.767.833-.213 1.064.152.064.218.06.533-.03.459-.131.589-.219.665-.449.051-.153.046-.219-.024-.368-.145-.305-.439-.371-.961-.217m14.295.876a4.745 4.745 0 0 0-2.656 1.367c-.569.581-.879 1.097-1.133 1.884-.21.651-.246 1.638-.085 2.314.512 2.14 2.378 3.606 4.592 3.606 1.324 0 2.361-.439 3.333-1.412.766-.767 1.151-1.512 1.312-2.538.075-.478.032-1.334-.089-1.783a4.738 4.738 0 0 0-3.405-3.339c-.493-.126-1.393-.173-1.869-.099m-17.605.695c-.178.055-.378.159-.445.231-.257.273-.106.757.267.852.258.065.909-.132 1.058-.322a.543.543 0 0 0-.193-.812c-.156-.079-.302-.069-.687.051m19.256.458c1.183.298 2.281 1.408 2.558 2.584.104.439.103 1.205-.001 1.648-.238 1.015-.991 1.922-1.97 2.375-1.036.479-2.118.458-3.171-.062a3.557 3.557 0 0 1-1.843-2.26c-.107-.416-.121-1.184-.028-1.627.242-1.158 1.186-2.199 2.347-2.587a3.83 3.83 0 0 1 2.108-.071m-12.8.748c-.408.111-.674.25-.747.392-.129.248-.099.416.109.624.173.173.207.186.419.157.425-.059.826-.242.918-.42.221-.427-.206-.886-.699-.753m-4.186.179c-.162.056-.299.102-.306.103a.992.992 0 0 0-.093.159c-.129.249-.104.469.075.647.193.193.418.202.91.034.3-.102.36-.146.445-.318.082-.168.087-.229.035-.387a.612.612 0 0 0-.176-.267c-.153-.107-.531-.095-.89.029m9.495 2.518.183 1.347.181 1.333-.143.12c-.206.173-.461.242-.788.215-.359-.03-.51-.136-1.081-.761-.505-.552-.858-.797-1.278-.884-.388-.081-.708-.033-1.114.166-.275.134-.431.273-.907.808-.666.748-.807.834-1.139.702-.178-.072-.304-.201-.665-.685-.458-.613-.658-.791-1.113-.992-.216-.095-.333-.111-.667-.091-.642.039-.91.213-1.657 1.081-.482.56-.695.693-1.047.654-.32-.036-.422-.115-1.001-.776-.663-.757-.973-.939-1.606-.942-.368-.001-.474.021-.773.163-.191.09-.437.249-.547.353l-.2.188v-.143c0-.079.034-.25.077-.38.042-.13.163-.518.268-.863l.192-.626h7.412c4.076 0 7.412.006 7.413.013m-13.64 2.402c.082.036.395.341.696.678.456.512.607.644.912.8.306.156.433.19.783.206.739.033 1.194-.206 1.842-.969.596-.702.69-.784.907-.784.298 0 .472.132.861.654.445.596.571.732.842.911.282.187.822.32 1.105.273.55-.09.821-.279 1.519-1.059.846-.947.955-.947 1.839-.008.451.479.646.646.907.774.571.281 1.222.315 1.757.092l.189-.079.059.465c.033.255.06.493.06.528 0 .049-1.806.061-7.871.05l-7.872-.014-.102-.126c-.089-.11-.102-.216-.102-.837v-.712l.227-.104c.125-.057.375-.248.556-.424.382-.374.583-.446.886-.315m6.918 3.625c0 .007.107.637.237 1.4.231 1.353.241 1.39.401 1.533a.521.521 0 0 0 .326.147c.1 0 1.36-.564 3.339-1.495 1.748-.822 3.191-1.482 3.207-1.466.016.015.107.634.204 1.374.096.741.188 1.437.204 1.547l.03.201-7.943-.014-7.942-.014-.231-.162a1.389 1.389 0 0 1-.351-.374c-.11-.194-.119-.279-.12-1.059-.001-.809.005-.86.132-1.076.134-.228.385-.422.654-.503.125-.037 7.853-.076 7.853-.039m5.037.032c-.061.055-3.609 1.722-3.622 1.702a19.263 19.263 0 0 1-.131-.734 58.622 58.622 0 0 0-.149-.867l-.028-.147h1.99c1.097 0 1.968.021 1.94.046" fill-rule="evenodd"/></svg>