<!-- Generated by IcoMoon.io -->
<svg version="1.1" xmlns="http://www.w3.org/2000/svg" width="32" height="32" viewBox="0 0 32 32">
<title>fax</title>
<path d="M17 27h2c0.552 0 1-0.448 1-1v-2c0-0.552-0.448-1-1-1h-2c-0.552 0-1 0.448-1 1v2c0 0.552 0.448 1 1 1zM17 21h2c0.552 0 1-0.448 1-1v-2c0-0.552-0.448-1-1-1h-2c-0.552 0-1 0.448-1 1v2c0 0.552 0.448 1 1 1zM23 27h2c0.552 0 1-0.448 1-1v-2c0-0.552-0.448-1-1-1h-2c-0.552 0-1 0.448-1 1v2c0 0.552 0.448 1 1 1zM23 21h2c0.552 0 1-0.448 1-1v-2c0-0.552-0.448-1-1-1h-2c-0.552 0-1 0.448-1 1v2c0 0.552 0.448 1 1 1zM5 8h-2c-1.657 0-3 1.343-3 3v18c0 1.657 1.343 3 3 3h2c1.657 0 3-1.343 3-3v-18c0-1.657-1.343-3-3-3zM6 29c0 0.551-0.449 1-1 1h-2c-0.551 0-1-0.449-1-1v-18c0-0.551 0.449-1 1-1h2c0.551 0 1 0.449 1 1v18zM30 10.184v-3.355c0-0.531-0.211-1.039-0.586-1.414l-4.829-4.829c-0.375-0.375-0.884-0.586-1.414-0.586h-10.171c-1.657 0-3 1.343-3 3v26c0 1.657 1.343 3 3 3h16c1.657 0 3-1.343 3-3v-16c0-1.304-0.837-2.403-2-2.816zM24 2.828l3.172 3.172h-3.172v-3.172zM12 3c0-0.551 0.449-1 1-1h9v4c0 1.103 0.896 2 2 2h4v4h-16v-9zM30 29c0 0.551-0.449 1-1 1h-16c-0.551 0-1-0.449-1-1v-15h18v15z"></path>
</svg>
