<svg id="Capa_1" enable-background="new 0 0 512 512" height="512" viewBox="0 0 512 512" width="512" xmlns="http://www.w3.org/2000/svg"><g><g><path d="m50.593 200.771h19.758c5.523 0 10-4.477 10-10s-4.477-10-10-10h-19.758c-5.523 0-10 4.477-10 10s4.477 10 10 10z"/><path d="m28.964 249.501c5.523 0 10-4.477 10-10s-4.477-10-10-10h-18.964c-5.523 0-10 4.477-10 10s4.477 10 10 10z"/></g><g><path d="m430.984 199.836c-20.598 0-37.355-16.758-37.355-37.356s16.758-37.355 37.355-37.355 37.355 16.758 37.355 37.355c0 20.598-16.757 37.356-37.355 37.356zm0-54.712c-9.57 0-17.355 7.786-17.355 17.355 0 9.57 7.786 17.356 17.355 17.356s17.355-7.786 17.355-17.356c0-9.569-7.785-17.355-17.355-17.355z"/></g><g><path d="m283.579 191.827c-41.242 0-81.112 17.224-109.387 47.254-3.786 4.021-3.595 10.35.426 14.136 1.931 1.818 4.395 2.719 6.853 2.719 2.661 0 5.315-1.055 7.283-3.145 24.872-26.416 58.548-40.964 94.826-40.964 5.523 0 10-4.477 10-10s-4.478-10-10.001-10z"/><path d="m171.125 363.502h-.057c-5.523 0-9.972 4.477-9.972 10s4.505 10 10.028 10 10-4.477 10-10-4.476-10-9.999-10z"/><path d="m401.9 363.502h-.028c-5.523 0-9.986 4.477-9.986 10s4.491 10 10.014 10 10-4.477 10-10-4.477-10-10-10z"/><path d="m475.773 331.951h-.321c-1.127-22.197-6.024-43.715-14.589-64.174 0 0 9.889-12.162 11.921-14.828 20.372-26.734 39.614-51.988 39.21-90.525-.031-44.644-36.36-80.956-81.009-80.956-44.373 0-80.51 35.867-80.988 80.13-8.496-3.138-17.172-5.644-25.996-7.533 1.103-3.792 1.668-7.751 1.668-11.797 0-23.208-18.881-42.09-42.089-42.09-23.224 0-42.117 18.881-42.117 42.09 0 4.061.57 8.034 1.681 11.839-23.155 4.983-44.775 14.145-64.024 26.664h-55.135c-5.523 0-10 4.477-10 10s4.477 10 10 10h29.422c-9.424 8.697-17.977 18.322-25.516 28.73h-53.43c-5.523 0-10 4.477-10 10s4.477 10 10 10h40.737c-5.043 9.15-9.358 18.753-12.876 28.73h-84.328c-5.523 0-10 4.477-10 10s4.477 10 10 10h78.476c-2.584 11.064-4.21 22.492-4.784 34.193-15.434 2.629-27.224 16.09-27.224 32.262 0 18.05 14.685 32.735 32.734 32.735h22.151c9.062 19.528 28.844 33.11 51.751 33.11s42.689-13.582 51.751-33.11h18.749c5.523 0 10-4.477 10-10s-4.477-10-10-10h-13.621c.089-1.297.15-2.6.15-3.919 0-7.624-1.515-14.898-4.241-21.551h125.23c-2.726 6.654-4.241 13.927-4.241 21.551 0 1.319.061 2.622.15 3.919h-13.625c-5.523 0-10 4.477-10 10s4.477 10 10 10h18.749c9.062 19.528 28.844 33.11 51.751 33.11s42.689-13.582 51.751-33.11h22.122c18.05 0 32.734-14.685 32.734-32.735s-14.684-32.735-32.734-32.735zm-105.798-169.471c0-33.642 27.369-61.012 61.01-61.012s61.009 27.37 61.009 61.012v.11c.348 31.694-16.088 53.263-35.119 78.237-1.992 2.614-4.002 5.253-6.015 7.931l-15.357 17.787c-1.604 1.851-3.293 2.956-4.519 2.956s-2.915-1.105-4.507-2.942l-15.369-17.801c-2.013-2.678-4.023-5.316-6.016-7.931-19.031-24.975-35.466-46.543-35.119-78.237.002-.037.002-.073.002-.11zm-86.396-42.302c12.18 0 22.089 9.91 22.089 22.09 0 3.001-.594 5.909-1.737 8.61-6.715-.702-13.502-1.062-20.353-1.062-6.881 0-13.677.37-20.374 1.08-1.148-2.705-1.744-5.62-1.744-8.627.001-12.181 9.923-22.091 22.119-22.091zm-169.36 257.243h-17.023c-7.022 0-12.734-5.713-12.734-12.735s5.712-12.735 12.734-12.735h21.115c-2.726 6.654-4.241 13.927-4.241 21.551-.001 1.319.061 2.623.149 3.919zm56.878 33.111c-20.417 0-37.028-16.611-37.028-37.029s16.611-37.029 37.028-37.029 37.028 16.611 37.028 37.029-16.611 37.029-37.028 37.029zm230.803 0c-20.417 0-37.028-16.611-37.028-37.029s16.611-37.029 37.028-37.029 37.028 16.611 37.028 37.029-16.611 37.029-37.028 37.029zm39.001-78.581c-10.208-9.587-23.925-15.478-39.001-15.478s-28.794 5.891-39.001 15.478h-152.801c-10.208-9.587-23.925-15.478-39.001-15.478s-28.794 5.891-39.001 15.478h-20.35c5.198-90.279 80.277-162.136 171.833-162.136 23.818 0 46.783 4.743 68.344 14.097 5.343 27.127 20.935 47.61 37.262 69.037 2.032 2.666 22.166 26.693 22.166 26.693 5.509 6.357 12.481 9.858 19.633 9.858 5.192 0 10.286-1.853 14.801-5.302 5.475 15.368 8.704 31.35 9.634 47.752h-14.518zm34.872 45.47h-16.995c.089-1.297.15-2.6.15-3.919 0-7.624-1.515-14.898-4.241-21.551h21.087c7.022 0 12.734 5.713 12.734 12.735-.001 7.022-5.713 12.735-12.735 12.735z"/><path d="m286.499 377.421c-5.523 0-10 4.477-10 10s4.477 10 10 10h.028c5.523 0 9.986-4.477 9.986-10s-4.492-10-10.014-10z"/></g></g></svg>