<?xml version="1.0" encoding="UTF-8"?> <svg xmlns="http://www.w3.org/2000/svg" width="157" height="172" viewBox="0 0 157 172" fill="none"> <g opacity="0.1"> <path d="M125.128 106.801C127.552 109.565 125.849 111.779 123.832 113.218C121.931 114.408 119.946 114.326 117.92 113.609L117.647 113.47C115.158 113.748 113.825 111.537 112.535 109.961C111.517 108.524 109.995 107.446 108.589 106.119C108.589 106.119 108.316 105.981 108.043 105.843C107.265 106.065 106.058 105.761 105.438 106.37C105.91 107.531 106.77 108.581 107.746 109.383C108.722 110.184 109.194 111.346 110.055 112.396C110.642 113.308 109.717 115.3 108.593 116.269C106.733 118.095 104.475 117.875 101.944 117.517C101.01 117.352 99.571 117.546 98.7521 117.132C98.4792 116.993 97.9333 116.717 97.6603 116.579C96.0967 114.865 94.1444 113.262 92.8121 111.051C92.4976 110.277 91.9517 110 91.3642 109.088C90.6194 107.789 89.8006 107.374 88.7919 108.094C87.7833 108.813 86.7331 108.897 85.5257 108.593C86.932 109.92 88.107 111.745 89.5134 113.071C90.9197 114.398 91.5488 115.946 92.0623 117.744C92.5341 118.905 91.7984 119.763 90.5169 120.344C87.6808 121.369 84.6459 121.371 81.4953 121.622C80.0564 121.816 78.923 120.627 77.674 119.688C77.401 119.55 76.6978 118.886 75.879 118.472C75.0601 118.058 74.6299 117.532 74.3153 116.758C72.8258 114.159 70.4433 112.031 69.458 109.073C68.491 110.428 67.4408 110.512 66.0761 109.821C65.5302 109.545 64.7113 109.131 64.3643 109.877C64.1329 110.375 64.9518 110.79 65.1091 111.177C67.1029 113.416 68.9811 115.904 70.975 118.143C71.4052 118.668 71.6782 118.806 72.1084 119.331C73.5147 120.658 73.6395 122.566 72.3996 123.784C69.5311 126.33 65.7605 127.189 61.4764 126.251C60.5419 126.086 60.2274 125.312 59.6815 125.035C58.0022 123.571 56.0499 121.968 54.3706 120.503C51.8724 118.624 50.7715 115.914 48.8933 113.426C48.3058 112.514 48.1069 111.491 47.5194 110.578C47.3622 110.191 47.3622 110.191 46.8163 109.915C43.9711 108.783 42.1345 106.931 40.5293 104.581C38.6511 102.093 36.2686 99.9649 34.0018 97.5878C32.0495 95.9848 30.6016 94.0221 29.2693 91.8104C27.3911 89.3224 25.2816 87.3324 23.792 84.7336C22.4597 82.5219 21.4004 80.4483 20.4567 78.1258C19.9849 76.9645 19.5131 75.8032 18.9256 74.8909C17.2047 72.7901 16.1453 70.7165 15.9789 68.1722C15.6968 65.877 14.2489 63.9142 12.6853 62.2005C10.9643 60.0996 8.85481 58.1096 7.1339 56.0087C6.5464 55.0964 5.61187 54.931 5.02437 54.0187C2.44301 50.8674 2.35068 47.4381 3.30855 43.9253C3.65558 43.1784 4.0026 42.4315 4.07668 41.5465C4.15075 40.6615 4.77073 40.0527 5.66366 39.582C7.37544 39.5258 8.88834 38.4463 10.7158 38.1411C13.3205 37.6142 15.8927 38.6083 18.5807 39.3535C21.2686 40.0987 24.1138 41.231 26.6119 43.1102C27.861 44.0498 29.6144 44.6296 31.3262 44.5733C33.6995 44.5443 35.9156 44.1282 38.1733 44.3482C40.8196 44.4573 43.3502 44.8154 46.0381 45.5606C48.1802 46.0296 49.7438 47.7433 51.4231 49.2081C52.8294 50.5348 54.4256 50.7275 56.1789 51.3073C56.7248 51.5836 57.1135 51.4727 57.1875 50.5877C57.1459 49.9516 57.6502 49.5918 58.3534 50.2552C58.6264 50.3933 58.6264 50.3933 58.8993 50.5314C60.8425 49.9772 62.9845 50.4461 64.8119 50.1409C65.9778 49.8084 67.0696 50.3609 68.1614 50.9134C69.5262 51.604 70.8909 52.2946 72.2557 52.9853C73.2318 53.7867 74.1663 53.9521 74.9436 53.7304C76.2667 53.785 77.5899 53.8396 78.7558 53.5071C81.7491 52.8693 84.3954 52.9784 87.2822 54.7468C89.1929 55.7136 91.3349 56.1826 93.278 55.6284C96.2713 54.9906 98.8436 55.9848 100.796 57.5877C103.567 59.605 106.222 61.8713 108.374 64.4974C109.821 66.4601 111.658 68.312 113.726 69.666C115.951 71.407 117.672 73.5079 119.393 75.6088C121.974 78.7601 124.556 81.9114 127.526 84.9518C127.956 85.4771 128.229 85.6152 128.271 86.2512C129.256 89.2098 131.638 91.338 133.905 93.7151C135.469 95.4289 136.371 97.1154 137.546 98.94C137.703 99.3271 137.86 99.7142 138.133 99.8523C139.068 100.018 138.836 100.516 138.332 100.875C138.216 101.124 138.101 101.373 138.101 101.373C138.647 101.65 138.878 101.152 139.151 101.29C139.54 101.179 139.928 101.068 139.97 101.704C140.127 102.091 139.623 102.451 139.35 102.313C138.531 101.899 138.573 102.535 138.457 102.784C136.944 103.863 138.036 104.416 138.896 105.466C140.46 107.18 142.024 108.894 143.472 110.856C144.489 112.294 144.3 113.428 142.629 114.12C140.686 114.674 138.743 115.229 136.758 115.147C135.047 115.203 133.409 114.374 132.507 112.688C131.605 111.001 130.083 109.923 128.792 108.348C127.617 106.523 126.525 105.971 125.128 106.801ZM76.5832 100.993C75.806 101.215 75.4589 101.962 74.9546 102.322C75.7319 102.1 76.3519 101.491 76.5832 100.993C76.8562 101.131 76.9718 100.882 77.0875 100.633C76.8146 100.495 76.6989 100.744 76.5832 100.993ZM115.631 96.7675C114.58 96.8511 114.118 97.8469 113.225 98.3176C114.044 98.732 114.316 98.8701 114.664 98.1232C114.895 97.6253 115.399 97.2654 115.631 96.7675C115.903 96.9056 116.019 96.6567 115.631 96.7675C115.746 96.5185 115.746 96.5185 115.631 96.7675ZM133.974 100.823C134.909 100.988 135.223 101.762 135.926 102.426C136.084 102.813 136.629 103.089 136.861 102.591C137.365 102.231 137.208 101.844 136.546 101.817C136.273 101.679 136 101.54 136.389 101.43C137.24 100.323 136.149 99.7704 136.107 99.1344C135.214 99.605 134.437 99.8267 133.974 100.823C133.817 100.435 133.817 100.435 133.974 100.823C133.701 100.684 133.701 100.684 133.974 100.823ZM59.1264 122.602L59.3994 122.74C59.1264 122.602 59.2421 122.353 59.1264 122.602C60.6718 120.002 62.8463 118.949 65.8812 118.948C67.2044 119.002 68.3703 118.67 69.8507 119.111C68.1298 117.011 66.5246 114.661 64.415 112.671C63.5546 111.62 62.6941 110.57 62.065 109.021C61.4775 108.109 58.7064 106.092 57.9291 106.314C55.986 106.868 53.844 106.399 52.0165 106.704C51.6279 106.815 51.2393 106.926 50.735 107.286C48.6437 109.61 48.6437 109.61 50.2905 112.596L50.4478 112.983C51.7385 114.558 52.2519 116.356 53.5426 117.931C55.4949 119.534 57.0585 121.248 59.1264 122.602ZM95.1328 61.7946C95.4058 61.9327 95.4058 61.9327 95.1328 61.7946C95.3642 61.2966 95.5955 60.7987 95.5539 60.1626C95.5123 59.5266 95.7437 59.0286 96.2896 59.3049C96.8355 59.5811 96.7198 59.8301 96.4885 60.3281C96.2987 61.462 96.2246 62.3471 96.0349 63.4811C95.8035 63.979 96.3494 64.2552 96.7381 64.1444C97.011 64.2825 97.1267 64.0336 96.9694 63.6465C97.0851 63.3975 97.0851 63.3975 97.2008 63.1485C97.4321 62.6506 96.9603 61.4893 98.0521 62.0418C98.871 62.4562 98.1353 63.3139 98.0196 63.5629C97.4413 64.8077 97.7558 65.5819 99.0049 66.5215C99.2362 66.0236 99.079 65.6365 99.3103 65.1386C99.153 64.7515 99.1114 64.1154 100.046 64.2808C100.708 64.3081 100.361 65.055 100.518 65.4421C100.212 66.825 99.7913 68.457 101.702 69.4239C101.933 68.9259 102.007 68.0409 101.966 67.4048C102.081 67.1559 102.04 66.5198 102.586 66.7961C102.974 66.6852 103.016 67.3213 102.9 67.5702C102.785 67.8192 102.942 68.2063 102.711 68.7042C101.901 70.447 102.141 72.1062 103.432 73.6819C103.622 72.5479 103.969 71.801 104.158 70.667C104.39 70.169 104.39 70.169 104.778 70.0582C105.44 70.0855 105.597 70.4726 105.366 70.9705C104.903 71.9664 105.259 73.3766 104.135 74.3452C104.019 74.5942 104.019 74.5942 104.019 74.5942C104.45 75.1194 104.649 76.1425 105.467 76.5569C105.666 77.5801 106.485 77.9944 107.461 78.7959C107.651 77.6619 108.114 76.666 108.303 75.532C108.535 75.0341 108.651 74.7851 108.923 74.9233C109.585 74.9506 109.354 75.4485 109.238 75.6975C109.164 76.5825 109.09 77.4675 108.627 78.4634C108.164 79.4592 108.363 80.4824 109.339 81.2838C109.339 81.2838 109.224 81.5328 109.612 81.422L109.728 81.173C110.075 80.4261 110.265 79.2921 110.612 78.5452C110.728 78.2963 110.686 77.6602 111.232 77.9364C111.778 78.2127 111.662 78.4617 111.431 78.9596C111.084 79.7065 111.125 80.3426 110.778 81.0895C110.547 81.5874 110.316 82.0853 110.357 82.7214C111.259 84.4079 112.55 85.9835 113.725 87.8081C113.757 86.287 114.063 84.9041 114.641 83.6593C114.757 83.4103 114.715 82.7742 115.261 83.0505C115.807 83.3267 115.691 83.5757 115.46 84.0736C115.155 85.4566 114.965 86.5906 114.387 87.8354C114.039 88.5823 114.081 89.2184 114.553 90.3796C115.09 88.4988 115.899 86.756 116.593 85.2622C116.709 85.0132 116.395 84.239 116.941 84.5153C117.486 84.7915 117.644 85.1786 117.412 85.6766C116.718 87.1704 116.297 88.8023 115.603 90.2961C114.752 91.4028 115.455 92.0661 116.042 92.9785C116.2 93.3655 116.473 93.5037 116.861 93.3928L117.093 92.8949C117.514 91.263 117.778 89.244 118.199 87.612C118.43 87.1141 118.777 86.3672 119.008 85.8693C119.124 85.6203 119.513 85.5095 119.786 85.6476C120.332 85.9238 119.943 86.0347 119.712 86.5326C119.48 87.0305 119.365 87.2795 119.133 87.7774C118.596 89.6583 118.333 91.6773 117.912 93.3093C117.68 93.8072 117.449 94.3051 117.606 94.6922C118.309 95.3556 118.508 96.3787 119.327 96.7931C120.146 97.2075 120.303 97.5946 120.345 98.2306C120.733 98.1198 120.849 97.8708 120.965 97.6218C121.543 96.377 121.849 94.994 122.427 93.7492C122.658 93.2513 122.89 92.7534 123.708 93.1677C124.254 93.444 123.75 93.8038 123.519 94.3017L123.403 94.5507C122.709 96.0445 122.718 98.2016 121.205 99.281C121.205 99.281 120.817 99.3919 121.09 99.53C121.793 100.193 121.33 101.189 122.033 101.853C122.736 102.516 122.505 103.014 121.612 103.484C122.588 104.286 123.481 103.815 124.416 103.981C125.35 104.146 125.855 103.786 125.383 102.625C125.267 102.874 125.267 102.874 125.267 102.874C125.151 103.123 124.647 103.483 124.374 103.345C124.101 103.207 124.332 102.709 124.448 102.46C124.795 101.713 125.531 100.855 125.878 100.108C125.994 99.8591 126.225 99.3612 126.771 99.6374C127.317 99.9137 127.358 100.55 126.97 100.661C126.854 100.91 126.465 101.02 126.896 101.546C128.02 100.577 129.144 99.6085 130.268 98.6399C130.773 98.2801 131.277 97.9202 131.707 98.4455C132.568 99.4959 132.915 98.749 133.146 98.2511C133.65 97.8913 134.155 97.5314 134.816 97.5587C133.095 95.4579 131.259 93.606 129.538 91.5051C128.131 90.1784 128.007 88.2702 126.6 86.9436C123.746 83.6541 120.892 80.3647 118.153 76.8263C116.432 74.7255 114.438 72.4865 112.097 70.9944C110.575 69.9167 109.169 68.59 107.994 66.7654C107.249 65.466 106.116 64.2774 104.751 63.5868C103.932 63.1724 103.072 62.122 102.369 61.4586C99.6716 58.5563 96.0075 57.0096 92.5515 58.6433C93.486 58.8087 93.4119 59.6937 94.1151 60.357L94.2308 60.1081C94.4621 59.6101 94.6935 59.1122 95.2394 59.3885C95.7853 59.6647 95.281 60.0245 95.4383 60.4116C95.0496 60.5224 95.0912 61.1585 95.1328 61.7946ZM103.889 98.8206C104.087 99.8438 104.013 100.729 104.212 101.752L104.485 101.89C105.411 99.8984 106.336 97.9066 107.261 95.9149C108.899 96.7436 106.956 97.2978 107.543 98.2102C108.321 97.9885 108.668 97.2416 109.214 97.5178C109.76 97.7941 109.875 97.5451 110.264 97.4343C110.999 96.5765 112.008 95.8569 112.628 95.2481C113.017 95.1373 112.975 94.5012 113.521 94.7775C113.951 95.3027 113.447 95.6625 113.331 95.9115C112.711 96.5202 111.818 96.9909 111.083 97.8486L110.967 98.0976L111.24 98.2357C111.786 98.512 112.017 98.0141 112.133 97.7651C112.869 96.9073 113.761 96.4367 114.381 95.8279C114.886 95.4681 115.663 95.2464 115.862 96.2696C115.746 96.5185 116.019 96.6567 116.135 96.4077C116.25 96.1587 116.639 96.0479 116.366 95.9098C116.093 95.7716 115.936 95.3846 115.936 95.3846C114.687 94.445 113.826 93.3945 113.197 91.8462C112.138 89.7726 111.467 87.5882 110.019 85.6254C108.571 83.6627 107.512 81.5891 105.948 79.8753C103.682 77.4982 102.076 75.1484 100.702 72.3006C100.073 70.7522 99.0556 69.3147 97.9222 68.1262C95.6554 65.749 93.6615 63.51 92.2877 60.6623C91.7742 58.8649 90.4835 57.2893 88.2259 57.0693C87.5643 57.042 87.1341 56.5168 86.5882 56.2406C85.4964 55.6881 84.2889 55.3845 83.2387 55.4681C80.981 55.2481 78.9222 56.0513 76.7061 56.4674C79.5929 58.2357 81.3554 60.9726 83.1179 63.7096C83.266 61.9395 83.8444 60.6947 84.6957 59.588C84.8114 59.339 85.0428 58.8411 85.5887 59.1173C86.1346 59.3936 85.9032 59.8915 85.6719 60.3894C85.2092 61.3853 84.7465 62.3812 84.2838 63.377C83.4325 64.4837 83.7886 65.894 84.6491 66.9444C85.2366 67.8567 85.9813 69.1561 86.8418 70.2066C86.9991 70.5937 87.5866 71.506 88.0909 71.1462C88.4795 71.0353 88.7109 70.5374 88.6692 69.9013C89.0163 69.1544 89.479 68.1586 89.826 67.4117C89.9417 67.1627 90.173 66.6648 90.7189 66.941C91.2648 67.2173 90.7605 67.5771 90.6449 67.826C90.4135 68.324 90.3394 69.209 90.1081 69.7069C89.6454 70.7028 89.1827 71.6987 88.2897 72.1693C88.72 72.6945 89.1502 73.2197 89.4648 73.9939C89.8118 73.247 89.7702 72.611 90.0015 72.113C90.3486 71.3661 90.5383 70.2321 91.1583 69.6234C91.274 69.3744 91.6626 69.2636 91.9355 69.4017C92.2085 69.5398 92.0928 69.7888 91.9771 70.0377C91.3988 71.2826 90.8204 72.5274 90.242 73.7722C90.0107 74.2702 89.7377 74.132 89.0761 74.1048C89.7793 74.7681 89.9782 75.7913 90.797 76.2056C91.6484 75.0989 91.5652 73.8268 92.1435 72.582C92.2592 72.333 92.2176 71.6969 92.7635 71.9732C93.3094 72.2494 93.1937 72.4984 93.2353 73.1345C93.1613 74.0195 92.9715 75.1535 92.2359 76.0112C91.5002 76.869 91.8148 77.6432 92.7909 78.4446C93.3693 77.1998 93.6747 75.8168 94.2531 74.572C94.3687 74.323 94.3272 73.687 94.8731 73.9632C95.419 74.2395 95.3033 74.4884 95.1876 74.7374C94.8406 75.4843 94.7665 76.3693 94.4195 77.1162C93.0638 78.5827 93.693 80.1311 94.8264 81.3197C95.0993 81.4578 94.9836 81.7068 94.9836 81.7068C95.5711 82.6191 95.8857 83.3933 96.9775 83.9458C97.7639 85.8812 98.8232 87.9548 100.503 89.4196C101.363 90.47 101.752 90.3592 102.603 89.2525C102.95 88.5056 103.297 87.7587 103.644 87.0118C103.76 86.7628 104.264 86.403 104.537 86.5411C105.083 86.8174 104.851 87.3153 104.736 87.5643C104.273 88.5602 103.81 89.556 102.917 90.0267C101.52 90.8571 101.992 92.0184 102.58 92.9307C103.051 94.092 103.25 95.1151 103.565 95.8893C103.648 97.1614 103.574 98.0464 103.889 98.8206ZM58.8942 58.5239C58.7786 58.7729 58.7785 58.7729 59.0515 58.911C60.8881 60.7629 61.8317 63.0855 63.164 65.2972C64.4963 67.5089 65.44 69.8314 66.4993 71.905C66.9711 73.0663 68.2202 74.0059 68.692 75.1671C69.7514 77.2407 70.6534 78.9272 72.1014 80.89C72.5316 81.4152 72.9618 81.9404 73.3921 82.4656C75.1546 85.2025 77.0327 87.6905 79.1839 90.3166C81.7652 93.4679 85.0082 96.6465 85.4151 100.85C85.5724 101.237 85.6139 101.873 86.2755 101.9C86.9371 101.928 86.7058 102.426 86.2015 102.785C85.3085 103.256 84.4572 104.363 83.5643 104.833C82.6713 105.304 83.6475 106.105 83.4161 106.603C83.3004 106.852 84.0036 107.516 84.3923 107.405C85.9884 107.598 87.5845 107.79 88.8244 106.573C87.1451 105.108 87.1451 105.108 85.6322 106.187C85.5165 106.436 85.2436 106.298 85.1279 106.547C84.7393 106.658 84.6236 106.907 84.0777 106.631C83.6475 106.105 84.0361 105.995 84.4247 105.884C85.5906 105.551 85.4658 103.643 86.9046 103.449C86.9787 102.564 87.3257 101.817 87.9457 101.208C88.0614 100.959 88.1771 100.71 87.9041 100.572C87.3582 100.296 87.4739 100.047 87.5896 99.7978C88.0523 98.8019 88.515 97.806 88.9777 96.8102C89.0933 96.5612 89.0517 95.9251 89.5976 96.2014C90.1435 96.4776 89.9122 96.9756 89.7965 97.2245C89.4495 97.9714 89.1025 98.7183 88.9127 99.8523C89.8056 99.3817 90.3099 99.0219 90.9299 98.4131C91.3185 98.3022 91.4342 98.0533 91.9801 98.3295C92.4103 98.8547 92.526 98.6058 92.9146 98.4949C93.4189 98.1351 94.0389 97.5264 94.8162 97.3047C95.2048 97.1938 95.7091 96.834 95.8664 97.2211C96.5696 97.8845 97.0739 97.5247 97.5782 97.1648C97.9668 97.054 98.3554 96.9432 98.5127 97.3303C98.67 97.7173 98.2813 97.8282 98.1657 98.0772C97.2727 98.5478 96.3798 99.0185 95.7598 99.6272C96.3057 99.9035 96.81 99.5437 96.9257 99.2947C97.8186 98.8241 98.4386 98.2153 99.4472 97.4957C99.8358 97.3848 100.067 96.8869 100.613 97.1631C101.159 97.4394 100.382 97.6611 100.539 98.0482C100.928 97.9373 101.432 97.5775 101.821 97.4667C102.209 97.3558 102.325 97.1069 102.168 96.7198C101.811 95.3095 101.298 93.5122 100.942 92.102C100.206 92.9597 99.5446 92.9324 99.776 92.4345C100.081 91.0515 98.8323 90.1119 98.2448 89.1996C95.8532 84.9143 93.2303 81.127 90.3343 77.2015C88.8448 74.6027 86.9666 72.1147 85.0884 69.6268C83.4832 67.2769 82.1093 64.4292 80.5041 62.0793C77.8811 58.292 74.7954 55.5005 70.7012 53.4286C68.2446 52.1855 65.8712 52.2145 63.2249 52.1054C62.1747 52.1889 61.3975 52.4106 60.4629 52.2452C59.1398 52.1906 58.048 51.6381 56.9237 52.6067C56.808 52.8557 56.2621 52.5794 55.6006 52.5521C55.2119 52.663 54.3931 52.2486 53.5742 51.8342C54.4347 52.8847 54.7492 53.6588 55.4524 54.3222C56.4701 55.7597 57.4879 57.1972 58.8942 58.5239ZM34.6198 50.5451C34.5042 50.794 34.5042 50.794 34.6198 50.5451C34.7771 50.9322 34.8928 50.6832 34.6198 50.5451C34.9669 49.7982 35.3139 49.0513 35.6609 48.3044C35.7766 48.0554 36.1236 47.3085 36.6695 47.5848C37.2154 47.861 36.9841 48.3589 36.7527 48.8569C36.29 49.8527 35.9846 51.2357 35.7948 52.3697C36.1419 51.6228 36.3732 51.1249 36.7202 50.378C36.8359 50.129 37.2245 50.0181 37.4975 50.1563C37.7704 50.2944 37.6548 50.5434 37.5391 50.7923C37.1921 51.5392 37.2337 52.1753 36.8866 52.9222C36.3083 54.167 36.3083 54.167 37.673 54.8576C37.7055 53.3366 38.0109 51.9536 38.8622 50.8469C38.9779 50.5979 39.0936 50.349 39.3665 50.4871C39.6395 50.6252 39.7968 51.0123 39.6811 51.2613C39.4497 51.7592 39.1027 52.5061 39.1443 53.1422C39.0703 54.0272 38.6075 55.0231 38.8064 56.0462C38.9221 55.7972 39.0378 55.5483 39.1534 55.2993C39.3848 54.8014 39.0286 53.3911 39.9632 53.5565C40.782 53.9709 40.0464 54.8287 39.9723 55.7137C39.8982 56.5987 39.6253 56.4606 40.6014 57.262C40.5182 55.9899 41.5268 55.2703 41.7166 54.1363C41.9479 53.6384 41.7906 53.2513 42.3365 53.5275C42.8824 53.8038 43.0397 54.1909 42.8084 54.6888C42.3457 55.6847 41.9986 56.4316 41.8089 57.5656C41.4619 58.3125 41.1148 59.0594 42.091 59.8608C42.091 59.8608 42.091 59.8608 42.2482 60.2479L42.3639 59.999C42.7109 59.2521 42.6693 58.616 43.0164 57.8691C43.132 57.6201 43.2477 57.3712 43.7936 57.6474C44.3395 57.9237 43.9509 58.0345 44.1082 58.4216C43.7611 59.1685 43.8027 59.8046 43.4557 60.5515C43.1087 61.2984 43.266 61.6855 43.6962 62.2107C44.0432 61.4638 43.8443 60.4406 44.58 59.5829C44.6957 59.3339 44.927 58.836 45.4729 59.1122C46.0188 59.3885 45.7875 59.8864 45.6718 60.1354C45.2091 61.1313 45.2923 62.4034 44.8296 63.3992C44.5983 63.8972 44.6399 64.5332 45.4587 64.9476C45.8057 64.2007 45.8798 63.3157 46.2268 62.5688C46.3425 62.3198 46.4582 62.0708 46.8468 61.96C47.5084 61.9873 47.277 62.4852 47.4343 62.8723C47.0873 63.6192 47.1289 64.2553 46.7819 65.0022C46.3192 65.998 46.1294 67.132 47.3785 68.0716C47.8412 67.0757 47.9153 66.1907 48.378 65.1949C48.4936 64.9459 48.6093 64.6969 49.1552 64.9732C49.4282 65.1113 49.5854 65.4984 49.4698 65.7474C49.2384 66.2453 48.8914 66.9922 48.933 67.6282C48.6276 69.0112 48.4378 70.1452 49.1826 71.4446L49.4556 71.5827L49.5712 71.3338C49.761 70.1998 49.8351 69.3147 50.2978 68.3189C50.4134 68.0699 50.2562 67.6828 50.6448 67.572C51.3064 67.5993 51.4636 67.9863 51.2323 68.4843C51.1582 69.3693 50.8112 70.1162 50.8528 70.7523C51.0517 71.7754 49.9274 72.744 51.0608 73.9326C50.9451 74.1815 51.2181 74.3196 51.491 74.4578C51.8796 74.3469 51.6067 74.2088 51.4494 73.8217C51.3662 72.5496 51.3987 71.0285 51.9771 69.7837C52.2084 69.2857 52.4398 68.7878 53.2586 69.2022C53.8045 69.4784 53.3002 69.8382 53.0689 70.3362C52.3748 71.83 52.2267 73.6 52.7401 75.3974C53.0871 74.6505 53.3185 74.1525 53.3925 73.2675C53.5082 73.0185 53.7396 72.5206 54.2855 72.7969C54.8314 73.0731 54.4427 73.1839 54.6 73.571C54.3687 74.069 54.526 74.4561 54.2946 74.954C53.9892 76.337 53.0222 77.6926 54.0399 79.1302C54.0399 79.1302 53.9242 79.3791 54.1972 79.5172L54.3129 79.2683C54.5026 78.1343 54.6924 77.0003 54.8821 75.8663C54.9978 75.6173 55.2291 75.1194 55.8907 75.1467C56.5523 75.174 55.9323 75.7827 56.2053 75.9209C56.5198 76.695 56.1728 77.442 55.8258 78.1889C55.7517 79.0739 55.289 80.0697 55.8765 80.982C55.9922 80.7331 56.2235 80.2351 56.3392 79.9862C56.1819 79.5991 56.2976 79.3501 56.5705 79.4882C56.8435 79.6264 57.1164 79.7645 57.2737 80.1516C57.431 80.5387 57.3153 80.7876 57.1996 81.0366C57.0099 82.1706 56.4315 83.4154 57.0606 84.9638C57.0606 84.9638 57.0606 84.9638 56.9449 85.2128C56.9449 85.2128 56.9449 85.2128 57.0606 84.9638C57.0606 84.9638 57.0606 84.9638 56.7877 84.8257C57.292 84.4659 57.1347 84.0788 57.2504 83.8298C57.3244 82.9448 57.3985 82.0598 58.0185 81.451C58.1342 81.202 58.0926 80.566 58.6385 80.8422C59.1844 81.1185 59.0687 81.3674 59.1103 82.0035C58.9206 83.1375 58.8881 84.6586 58.6983 85.7926C58.6243 86.6776 58.6659 87.3136 59.0961 87.8388C59.6004 87.479 59.1702 86.9538 59.2858 86.7049C59.4015 86.4559 59.5172 86.2069 59.7901 86.3451C60.0631 86.4832 59.9474 86.7321 60.1047 87.1192C60.0306 88.0043 59.8409 89.1382 59.7668 90.0233C59.577 91.1573 59.8916 91.9315 60.8677 92.7329C60.9002 91.2118 59.7252 89.3872 61.3538 88.0588C61.4694 87.8099 61.4278 87.1738 62.2467 87.5882C62.7926 87.8644 62.5612 88.3624 62.4456 88.6113C61.5942 89.718 61.7931 90.7412 61.8763 92.0133C62.0752 93.0365 62.2741 94.0596 61.8114 95.0555C61.6957 95.3044 61.853 95.6915 62.1259 95.8296C62.5886 94.8338 62.6627 93.9488 62.8524 92.8148C62.9681 92.5658 62.8109 92.1787 63.1995 92.0679C63.4724 92.206 63.7454 92.3441 63.9027 92.7312C63.8286 93.6162 64.1431 94.3904 64.0691 95.2754C63.4907 96.5203 63.5739 97.7924 64.3187 99.0918C64.4759 99.4789 63.583 99.9495 64.6748 100.502C65.2532 99.2572 65.8316 98.0124 66.137 96.6294C66.3683 96.1315 66.5997 95.6335 67.1456 95.9098C67.8072 95.9371 67.1872 96.5459 67.3445 96.9329C67.3536 99.0901 65.7666 101.055 66.9832 103.515C66.9832 103.515 66.8675 103.764 66.7519 104.013C66.6362 104.262 66.3632 104.124 66.0903 103.986C65.6601 103.461 64.8412 103.046 64.411 102.521C63.3192 101.969 62.4587 100.918 62.1026 99.5079C61.2746 96.9364 60.058 94.4757 58.7257 92.264C56.8059 89.14 55.3904 85.6561 53.5863 82.2832C52.254 80.0714 51.5417 77.251 49.8208 75.1501C48.6874 73.9615 48.0583 72.4132 47.3135 71.1138C44.9635 67.4645 43.1178 63.4555 40.3792 59.9171C39.949 59.3919 39.5187 58.8667 39.2458 58.7286C37.9967 57.789 36.7476 56.8494 36.0028 55.55C34.5133 52.9512 32.3621 50.3251 30.484 47.8371C29.1517 45.6254 28.0599 45.0729 26.9681 44.5204C23.924 42.365 20.8059 41.0946 17.1834 40.184C14.7685 39.5769 12.3535 38.9698 9.7904 40.1328C8.89747 40.6035 8.12022 40.8252 7.22729 41.2958C5.28416 41.85 4.93713 42.5969 4.94626 44.7541C5.45056 44.3943 5.40896 43.7582 5.91326 43.3984C5.75599 43.0113 6.26029 42.6515 6.41756 43.0386C6.57484 43.4257 6.45916 43.6746 6.34349 43.9236C5.49216 45.0303 4.91379 46.2751 4.33541 47.52C3.75703 48.7648 4.11319 50.175 4.46934 51.5853C4.93204 50.5894 4.89044 49.9534 4.96451 49.0683C5.07106 46.6622 6.31102 45.4447 8.21255 44.2544C8.60117 44.1436 8.71685 43.8946 9.14708 44.4198C9.5773 44.945 9.18868 45.0559 8.80005 45.1667C7.79145 45.8863 7.87465 47.1585 7.29627 48.4033C7.1806 48.6523 7.2222 49.2883 7.10652 49.5373C6.45407 51.6671 6.4632 53.8243 8.29978 55.6762C8.29978 55.6762 8.45706 56.0633 8.57273 55.8143C8.57273 55.8143 8.57273 55.8143 8.41546 55.4272C8.0593 54.017 8.09178 52.4959 8.3972 51.1129C8.70263 49.73 8.85078 47.9599 10.248 47.1295C10.6366 47.0186 10.868 46.5207 11.2982 47.0459C11.4555 47.433 11.3398 47.682 10.9512 47.7928C9.13286 50.2552 8.91063 52.9103 9.89589 55.8689C10.0948 56.892 9.82181 56.7539 8.88729 56.5885C9.70614 57.0029 9.74774 57.6389 10.5666 58.0533C10.525 57.4172 10.3677 57.0301 10.5991 56.5322C10.6315 55.0111 10.664 53.49 11.7883 52.5215C11.904 52.2725 12.251 51.5256 12.6812 52.0508C13.2271 52.3271 12.7228 52.6869 12.4915 53.1848C11.6817 54.9276 11.5336 56.6976 11.9313 58.7439C12.6254 57.2501 13.0465 55.6182 13.4676 53.9863C13.5833 53.7373 13.8146 53.2394 14.0876 53.3775C14.6335 53.6537 14.4021 54.1517 14.2865 54.4006C13.8654 56.0326 13.4443 57.6645 13.0232 59.2964C12.8334 60.4304 12.7593 61.3154 14.1241 62.0061C13.5691 59.5727 14.2215 57.4428 14.601 55.1748C14.7908 54.0408 15.568 53.8192 16.4609 53.3485C16.8496 53.2377 17.2382 53.1268 17.3955 53.5139C17.5527 53.901 17.4371 54.15 17.0484 54.2608C16.5441 54.6206 16.1555 54.7315 16.1971 55.3675C14.9663 58.7422 14.5127 61.8952 16.4741 65.6553C16.7054 65.1574 16.8211 64.9084 16.9368 64.6594C17.432 62.1425 18.9033 60.427 20.9205 58.9878C21.3091 58.8769 21.4248 58.628 21.9707 58.9042C22.128 59.2913 22.0123 59.5403 21.6237 59.6511C21.3923 60.149 21.0037 60.2599 20.4994 60.6197C18.8708 61.9481 18.0611 63.6908 17.7973 65.7099C17.7232 66.5949 17.4918 67.0928 17.4178 67.9778C17.0707 68.7247 17.228 69.1118 17.9312 69.7752C18.0469 69.5262 18.0469 69.5262 18.1625 69.2772C18.468 67.8943 19.162 66.4005 19.7404 65.1557C19.9717 64.6577 20.3604 64.5469 20.6333 64.685C21.1792 64.9613 20.9479 65.4592 20.8322 65.7082C20.6008 66.2061 20.3695 66.704 20.1381 67.2019C19.4441 68.6957 18.8657 69.9406 18.9905 71.8488C19.1062 71.5998 19.1062 71.5998 19.2219 71.3508C19.5598 68.4468 21.9656 66.8967 23.5526 64.9323C23.6683 64.6833 24.1726 64.3235 24.3298 64.7106C24.8757 64.9868 24.3714 65.3466 24.2558 65.5956C23.7931 66.5915 23.0574 67.4492 22.0488 68.1688C19.8002 70.106 20.1239 73.0373 20.1747 75.8305C20.5217 75.0836 20.5957 74.1986 20.8271 73.7007C21.2482 72.0687 22.2152 70.7131 22.9093 69.2193C23.1406 68.7213 23.6449 68.3615 24.1908 68.6378C25.0097 69.0521 24.1167 69.5228 24.0011 69.7718C22.2984 71.9852 21.6876 74.7511 21.0767 77.517C20.961 77.766 20.7297 78.2639 21.1599 78.7891C21.5069 78.0422 21.581 77.1572 21.6551 76.2722C21.8773 73.6171 23.1913 71.5145 24.6626 69.799C25.1669 69.4392 25.514 68.6923 25.9442 69.2176C26.6474 69.8809 25.7544 70.3515 25.5231 70.8495C24.0518 72.565 23.1264 74.5567 22.7469 76.8247C22.5571 77.9587 23.1862 79.507 21.5161 80.1994L21.6733 80.5865C21.9879 81.3606 22.3024 82.1348 22.8899 83.0471C23.0056 82.7982 23.0056 82.7982 23.1213 82.5492C22.9549 80.005 24.2689 77.9024 25.31 75.6617C25.5413 75.1638 26.0456 74.8039 26.4343 74.6931C26.5499 74.4441 26.9386 74.3333 27.0959 74.7204C27.3688 74.8585 27.2531 75.1075 27.1375 75.3564C26.5175 75.9652 26.2861 76.4632 25.9391 77.2101C25.0137 79.2018 24.204 80.9445 23.9401 82.9636C23.9817 83.5996 23.7504 84.0976 24.0649 84.8717C25.5545 87.4705 28.0527 89.3497 29.5422 91.9485C29.9725 92.4737 30.0141 93.1098 30.8329 93.5242C30.907 92.6391 30.9811 91.7541 30.9395 91.1181C30.699 89.4589 31.1201 87.8269 31.8141 86.3331C32.0455 85.8352 32.1612 85.5862 32.7071 85.8625C33.253 86.1387 32.7487 86.4985 32.9059 86.8856C32.3692 88.7665 32.221 90.5366 32.0729 92.3066C32.1145 92.9427 32.5863 94.104 31.4204 94.4365C31.0318 94.5473 31.3047 94.6854 31.3047 94.6854C32.3225 96.123 33.3402 97.5605 34.9779 98.3892C34.5385 95.7069 35.191 93.577 36.2321 91.3363C36.3477 91.0874 36.5791 90.5894 37.125 90.8657C37.398 91.0038 37.5552 91.3909 37.3239 91.8888C37.0925 92.3868 36.8612 92.8847 36.6298 93.3826C35.8201 95.1254 35.8292 97.2825 36.227 99.3288C36.4259 100.352 37.9063 100.794 38.4938 101.706C38.7667 101.844 38.7667 101.844 38.924 102.231C38.924 102.231 38.8083 102.48 39.197 102.369L39.3126 102.12C38.7576 99.6869 39.0214 97.6679 40.0625 95.4272C40.2939 94.9293 40.095 93.9061 40.9138 94.3205C41.4597 94.5968 41.1127 95.3437 40.8814 95.8416C40.2289 97.9715 39.8494 100.239 40.4044 102.673C40.5617 103.06 40.0574 103.42 40.4877 103.945C41.9356 105.908 43.6565 108.009 45.8401 109.114C46.386 109.39 46.7747 109.279 47.006 108.781C47.973 107.425 49.213 106.208 50.4529 104.99C51.1886 104.133 52.0815 103.662 53.0901 102.942C53.4787 102.831 53.8673 102.721 54.0246 103.108C54.4549 103.633 53.7933 103.606 53.6776 103.855C52.9003 104.076 52.2804 104.685 51.5447 105.543C52.4792 105.708 53.2565 105.486 53.7608 105.127C54.8851 104.158 56.1666 103.577 57.1752 102.857C57.5639 102.746 58.0682 102.386 58.2254 102.773C58.3827 103.161 58.3827 103.161 58.7713 103.05C59.16 102.939 59.3913 102.441 59.9372 102.717C60.3259 102.606 60.5988 102.744 60.7561 103.132C60.9134 103.519 60.5247 103.629 60.1361 103.74C59.2016 103.575 58.8545 104.322 58.3502 104.682C58.2346 104.931 57.573 104.903 58.0032 105.429C58.2762 105.567 58.9793 106.23 59.2107 105.732C59.3264 105.483 59.5577 104.985 59.9463 104.874C60.5663 104.266 60.9134 103.519 61.6906 103.297C62.1949 102.937 62.4679 103.075 62.8981 103.6C63.0554 103.988 63.2126 104.375 62.824 104.485C61.2279 104.293 60.8068 105.925 59.7982 106.644C60.89 107.197 61.8661 107.998 62.5693 108.662C62.9995 109.187 63.3882 109.076 63.6611 109.214C65.2572 109.407 65.2572 109.407 66.6129 107.94C66.0669 107.664 65.8356 108.162 65.3313 108.522C64.9427 108.633 64.7113 109.131 64.554 108.743C64.1238 108.218 64.5124 108.107 64.9011 107.997C65.4054 107.637 66.0253 107.028 65.7108 106.254C65.7108 106.254 65.8265 106.005 65.9421 105.756C66.8351 105.285 66.9092 104.4 67.5291 103.791C68.2648 102.934 69.0004 102.076 70.009 101.356C70.3977 101.246 70.902 100.886 71.3322 101.411C71.7624 101.936 71.3738 102.047 70.8695 102.407C70.3236 102.131 69.5879 102.988 68.8939 104.482C69.6711 104.26 70.3327 104.288 70.6797 103.541C71.1424 102.545 71.8781 101.687 72.8867 100.968C73.391 100.608 73.9694 99.3629 75.1028 100.551C75.1028 100.551 75.4914 100.441 75.6071 100.192C75.9957 100.081 76.2271 99.5829 76.6157 99.4721C77.0043 99.3612 77.2357 98.8633 77.6659 99.3885C78.2118 99.6647 77.7075 100.025 77.5918 100.274C77.3189 100.135 77.2032 100.384 77.0875 100.633C77.2448 101.02 77.4761 100.522 77.4761 100.522C77.8648 100.412 78.3691 100.052 78.7577 99.941C79.1463 99.8302 79.6506 99.4703 79.8079 99.8574C80.2381 100.383 79.4609 100.604 79.0722 100.715C78.1793 101.186 77.1707 101.905 76.5507 102.514C77.9155 103.205 77.6425 103.067 78.6511 102.347C79.6597 101.627 80.784 100.659 81.7926 99.9393C82.1813 99.8284 82.6856 99.4686 82.8428 99.8557C83.2731 100.381 82.4958 100.603 82.1072 100.713C80.8256 101.295 79.817 102.015 79.0814 102.872C79.3543 103.01 79.6273 103.149 79.7429 102.9C81.0245 102.318 81.9915 100.962 83.1574 100.63L83.2731 100.381C82.8012 99.2197 82.991 98.0857 82.1305 97.0352C79.193 92.4737 75.2469 88.6318 72.3094 84.0702C70.7041 81.7204 68.5946 79.7304 67.7666 77.1589C67.4521 76.3847 67.1375 75.6105 66.4343 74.9472C65.1437 73.3715 64.2416 71.685 63.3396 69.9985C62.3959 67.676 61.2209 65.8514 59.8886 63.6397C57.9688 60.5156 55.9334 57.6406 53.625 54.6274C51.3165 51.6143 48.6195 48.7119 44.8398 47.4142C41.7217 46.1438 38.2981 46.2564 35.1059 45.871C33.667 46.0654 33.1627 46.4252 33.4448 48.7205C33.3707 49.6055 34.1896 50.0199 34.6198 50.5451ZM90.5818 117.302C89.9943 116.39 89.7955 115.367 89.0923 114.703C87.2557 112.851 85.5348 110.751 83.6982 108.899C82.1346 107.185 80.9596 105.36 78.2716 104.615C76.4026 104.284 74.9222 103.843 73.3677 104.286C71.8131 104.729 70.5732 105.947 68.8614 106.003C69.7219 107.054 70.5823 108.104 70.8969 108.878C71.9978 111.588 74.1073 113.578 75.5969 116.177C75.9115 116.951 76.7303 117.365 77.2762 117.641C77.8221 117.918 77.8962 117.033 78.2848 116.922C80.922 114.874 83.5267 114.347 86.9178 115.755C88.0096 116.308 88.9857 117.109 90.5818 117.302ZM88.6996 104.665C89.5185 105.079 90.2216 105.742 91.0405 106.157C93.2657 107.898 94.4823 110.358 96.0876 112.708C96.2448 113.095 96.4021 113.482 96.9064 113.123C99.9738 111.6 103.041 110.077 107.052 110.877C106.622 110.352 106.076 110.075 105.919 109.688C104.198 107.587 103.254 105.265 101.029 103.524C98.3737 101.257 94.5199 100.845 91.5682 102.119C90.2866 102.7 89.7082 103.945 88.6996 104.665ZM124.517 109.567C124.203 108.793 123.772 108.268 123.342 107.742C122.051 106.167 120.918 104.978 119.512 103.652C118.378 102.463 117.014 101.772 115.649 101.082C113.465 99.9768 111.207 99.7568 108.917 101.058C107.52 101.888 107.372 103.658 108.778 104.985C110.731 106.588 112.683 108.191 114.131 110.154C114.718 111.066 115.38 111.093 116.273 110.623C118.91 108.575 121.473 107.412 124.517 109.567ZM142.033 111.051C141.602 110.525 141.445 110.138 140.899 109.862C140.196 109.199 139.493 108.535 139.021 107.374C138.549 106.213 137.92 104.665 136.167 104.085C135.894 103.947 135.621 103.808 135.464 103.421C133.354 101.431 129.616 100.77 127.326 102.071C127.21 102.32 126.937 102.182 127.094 102.569C127.094 102.569 127.136 103.205 127.367 102.707C127.483 102.458 127.714 101.96 127.64 102.845C127.682 103.481 127.724 104.117 128.154 104.642C128.899 105.942 130.148 106.881 131.281 108.07C131.984 108.733 132.53 109.009 133.423 108.539C133.927 108.179 134.862 108.344 135.408 108.621C137.591 109.726 139.618 110.444 142.033 111.051ZM70.2485 121.158C67.9492 120.302 65.8488 120.469 63.6327 120.885C62.5825 120.968 61.5739 121.688 61.1112 122.684C60.4171 124.178 60.8473 124.703 62.3278 125.145C65.6773 125.917 68.1247 125.003 70.6462 123.204C72.1591 122.125 71.8862 121.986 70.2485 121.158ZM97.9241 114.56C98.396 115.721 99.2148 116.136 100.265 116.052C101.861 116.245 103.184 116.299 104.507 116.354C106.219 116.298 107.343 115.329 108.31 113.973C108.658 113.227 108.385 113.088 107.839 112.812C104.836 111.293 102.157 112.705 99.71 113.619C98.9327 113.84 98.8587 114.726 97.9241 114.56ZM89.7721 119.045C88.4074 118.354 87.5885 117.94 86.7696 117.526C84.3131 116.282 81.9397 116.311 79.8068 118C79.4182 118.11 78.9139 118.47 79.3441 118.995C79.5014 119.383 79.9316 119.908 80.5932 119.935C83.5125 120.182 86.3901 119.794 89.7721 119.045ZM117.522 111.562C119.044 112.64 121.806 112.5 123.319 111.421C123.823 111.061 123.666 110.674 123.236 110.149C121.325 109.182 118.332 109.819 117.522 111.562ZM102.135 98.2409C101.127 98.9605 100.507 99.5692 99.4979 100.289C100.201 100.952 101.02 101.367 101.45 101.892C102.153 102.555 102.542 102.444 102.616 101.559C102.69 100.674 102.491 99.6511 102.135 98.2409ZM138.924 111.937C137.559 111.247 136.079 110.805 134.755 110.751C134.367 110.861 133.821 110.585 133.862 111.221C133.747 111.47 134.177 111.995 134.45 112.133C134.996 112.41 135.542 112.686 136.319 112.464C136.823 112.105 137.873 112.021 138.924 111.937ZM81.265 103.977C83.06 105.193 83.4811 103.561 84.374 103.091C84.7626 102.98 84.6053 102.593 84.4481 102.206C84.2908 101.818 83.9022 101.929 83.7865 102.178C82.8936 102.649 82.1579 103.507 81.265 103.977ZM103.675 103.633C104.619 105.955 105.817 104.102 106.752 104.267C105.892 103.217 104.494 104.047 103.675 103.633ZM115.482 98.5376C116.144 98.5648 116.343 99.588 116.69 98.8411C116.921 98.3432 117.425 97.9834 117.541 97.7344C117.657 97.4854 118.045 97.3746 117.773 97.2365C117.615 96.8494 117.227 96.9602 117.111 97.2092C116.491 97.8179 115.987 98.1778 115.482 98.5376ZM117.004 99.6153C117.277 99.7534 117.55 99.8915 117.823 100.03C118.369 100.306 118.6 99.808 118.832 99.31C118.948 99.0611 118.79 98.674 118.517 98.5359C117.971 98.2596 117.856 98.5086 117.74 98.7575C117.897 99.1446 117.509 99.2555 117.004 99.6153ZM100.035 98.408C99.4148 99.0167 98.5218 99.4874 97.9018 100.096L98.1748 100.234C98.7948 99.6255 99.6877 99.1549 100.035 98.408ZM55.8612 104.96C57.1844 105.014 57.5314 104.267 57.8784 103.52C57.2584 104.129 56.7541 104.489 55.8612 104.96ZM58.3827 103.161C58.3827 103.161 58.267 103.409 58.3827 103.161C58.267 103.409 58.267 103.409 58.267 103.409C58.267 103.409 58.267 103.409 58.3827 103.161C58.54 103.548 58.267 103.409 58.3827 103.161ZM97.284 64.4206C97.284 64.4206 97.1683 64.6696 97.284 64.4206C97.1683 64.6696 97.1683 64.6696 97.284 64.4206C97.1683 64.6696 97.284 64.4206 97.284 64.4206ZM12.4773 59.0202C12.4773 59.0202 12.0886 59.131 12.4773 59.0202C12.0886 59.131 12.3616 59.2691 12.4773 59.0202C12.3616 59.2691 12.3616 59.2691 12.4773 59.0202C12.3616 59.2691 12.3616 59.2691 12.4773 59.0202ZM31.9988 93.1916C31.9988 93.1916 31.8415 92.8046 31.9988 93.1916C31.8415 92.8046 31.7258 93.0535 31.9988 93.1916C31.7258 93.0535 31.7258 93.0535 31.9988 93.1916Z" fill="#040404"></path> <path d="M101.404 97.0252C101.607 98.0725 102.088 99.2613 101.894 100.422C101.819 101.328 101.423 101.441 100.706 100.762C99.9886 100.083 99.432 99.8006 98.715 99.1216C99.6255 98.6398 100.376 97.7618 101.404 97.0252Z" fill="#040404"></path> <path d="M133.01 97.4028C133.638 96.7838 134.425 96.5584 135.053 95.9395C135.372 96.7266 136.478 97.2883 135.456 98.0199C135.339 98.2731 135.615 98.4135 135.615 98.4135C136.285 98.4412 136.445 98.8348 135.934 99.2006C135.423 99.5664 135.147 99.426 134.987 99.0324C134.552 98.4984 134.116 97.9645 133.01 97.4028C133.287 97.5432 133.01 97.4028 133.01 97.4028Z" fill="#040404"></path> <path d="M80.3179 103.974C81.2327 103.49 81.9864 102.608 82.9012 102.124C83.0197 101.869 83.4178 101.755 83.579 102.152C83.7401 102.55 84.0197 102.692 83.5031 103.062C82.5883 103.546 82.1568 105.224 80.3179 103.974Z" fill="#040404"></path> <path d="M102.712 102.428C103.922 102.733 105.048 101.761 105.795 103.065C104.858 102.899 103.657 104.758 102.712 102.428Z" fill="#040404"></path> <path d="M114.806 96.4628C115.325 96.0916 115.963 95.4635 116.482 95.0923C116.601 94.8354 117.001 94.721 117.163 95.1204C117.444 95.2629 117.325 95.5198 116.925 95.6341C116.687 96.1479 116.168 96.5191 116.049 96.776C115.692 97.5466 115.087 96.6053 114.806 96.4628Z" fill="#040404"></path> <path d="M115.32 94.8826C115.081 95.3965 114.562 95.7679 114.443 96.0248C114.086 96.7957 113.524 96.5106 112.961 96.2255C113.6 95.5972 113.957 94.8263 115.32 94.8826C115.038 94.74 115.32 94.8826 115.32 94.8826Z" fill="#040404"></path> <path d="M116.266 97.5132C116.661 97.4001 116.779 97.1461 117.174 97.0331C117.568 96.92 117.526 96.2711 117.963 96.8069C118.241 96.9478 118.4 97.3427 118.283 97.5967C118.165 97.8507 117.93 98.3586 117.258 98.3308C117.098 97.9359 116.821 97.795 116.266 97.5132Z" fill="#040404"></path> <path d="M99.3767 97.3113C98.8948 98.3471 98.0853 98.5777 97.4396 99.2109L97.1553 99.0672C97.9215 98.1751 98.4467 97.8008 99.3767 97.3113Z" fill="#040404"></path> <path d="M54.871 106.447C55.7973 105.959 56.3204 105.586 56.9635 104.954C56.6035 105.729 56.2436 106.504 54.871 106.447Z" fill="#040404"></path> <path d="M75.796 101.28C75.4342 102.057 74.9083 102.432 74.0978 102.662C74.7443 102.029 75.1062 101.251 75.796 101.28Z" fill="#040404"></path> <path d="M51.8247 74.212C51.7077 74.4647 52.2596 74.745 51.8667 74.8574C51.8667 74.8574 51.5908 74.7173 51.4317 74.3245C51.7077 74.4647 51.7077 74.4647 51.8247 74.212Z" fill="#040404"></path> <path d="M75.8032 101.224C75.641 100.824 75.9225 100.967 76.0418 100.71C76.2039 101.11 76.2039 101.11 75.8032 101.224Z" fill="#040404"></path> <path d="M76.8453 100.44C76.8453 100.44 76.6064 100.955 76.4449 100.555C76.5644 100.297 76.5644 100.297 76.8453 100.44C76.9648 100.182 76.8453 100.44 76.8453 100.44Z" fill="#040404"></path> <path d="M57.4783 104.493C57.3579 104.752 57.6431 104.896 57.4783 104.493C57.3579 104.752 57.3579 104.752 57.3579 104.752C57.3579 104.752 57.3579 104.752 57.4783 104.493C57.3579 104.752 57.4783 104.493 57.4783 104.493Z" fill="#040404"></path> <path d="M36.7728 51.1597C36.7728 51.1597 36.6553 51.4136 36.7728 51.1597C36.379 51.2732 36.379 51.2732 36.7728 51.1597C36.4965 51.0193 36.4965 51.0193 36.7728 51.1597Z" fill="#040404"></path> <path d="M44.0166 60.5742L43.8962 60.8331C43.8962 60.8331 43.611 60.6889 44.0166 60.5742C43.7315 60.4301 44.0166 60.5742 44.0166 60.5742Z" fill="#040404"></path> <path d="M54.4124 79.7242L54.2926 79.9823C53.891 80.0977 54.0109 79.8396 54.4124 79.7242C54.0109 79.8396 54.4124 79.7242 54.4124 79.7242Z" fill="#040404"></path> <path d="M115.054 94.6763C115.172 94.4224 115.172 94.4224 115.054 94.6763C115.448 94.5627 115.33 94.8167 115.054 94.6763C115.33 94.8167 115.054 94.6763 115.054 94.6763Z" fill="#040404"></path> <path d="M96.8021 59.275L96.6836 59.5309C96.4049 59.3894 96.4049 59.3894 96.8021 59.275C96.4049 59.3894 96.4049 59.3894 96.8021 59.275Z" fill="#040404"></path> <path d="M50.0835 71.714C50.2423 72.1083 50.2423 72.1083 50.0835 71.714C50.2423 72.1083 49.966 71.9679 50.0835 71.714C49.966 71.9679 49.966 71.9679 50.0835 71.714Z" fill="#040404"></path> <path d="M133.186 97.8967C132.91 97.7564 132.91 97.7564 133.186 97.8967C133.027 97.5024 133.027 97.5024 133.186 97.8967C133.027 97.5024 133.304 97.6428 133.186 97.8967Z" fill="#040404"></path> <path d="M13.925 61.0717C13.8058 61.3288 13.8058 61.3288 13.925 61.0717C13.8058 61.3288 13.8058 61.3288 13.925 61.0717C13.8058 61.3288 13.5234 61.1857 13.925 61.0717C13.5234 61.1857 13.925 61.0717 13.925 61.0717Z" fill="#040404"></path> <path d="M31.6434 95.5675C31.3696 95.4289 31.3696 95.4289 31.6434 95.5675C31.3696 95.4289 31.4853 95.1799 31.6434 95.5675C31.4853 95.1799 31.6434 95.5675 31.6434 95.5675Z" fill="#040404"></path> <path d="M109.839 78.3902L109.719 78.6483C109.318 78.7637 109.438 78.5056 109.839 78.3902C109.438 78.5056 109.438 78.5056 109.839 78.3902Z" fill="#040404"></path> <path d="M39.2578 103.536C39.2578 103.536 39.1403 103.79 39.2578 103.536C38.8639 103.649 38.8639 103.649 39.2578 103.536C38.9815 103.396 38.9815 103.396 39.2578 103.536Z" fill="#040404"></path> <path d="M110.717 96.1972C110.717 96.1972 110.601 96.4462 110.717 96.1972C110.443 96.0585 110.443 96.0585 110.717 96.1972Z" fill="#040404"></path> <path d="M42.0659 103.172C42.3826 101.737 43.3854 100.331 43.7022 98.8964C43.8221 98.6381 43.779 97.9783 44.3451 98.2649C44.9112 98.5515 44.7913 98.8097 44.6713 99.068C44.3114 99.8428 44.3546 100.503 43.9947 101.277C43.2749 102.827 43.2413 104.405 43.4906 106.126C43.6537 106.527 43.9799 107.331 43.2939 107.302C42.4878 107.532 42.8477 106.757 42.6846 106.356C42.4784 105.295 42.3921 103.975 41.2599 103.402C40.9768 103.259 40.8137 102.857 40.6506 102.455C39.9982 100.849 41.5577 97.4919 43.0066 96.6304C43.4096 96.5154 43.5296 96.2572 44.0957 96.5437C44.2588 96.9453 44.1389 97.2035 44.0189 97.4618C42.4931 99.2413 42.0564 100.934 42.0659 103.172Z" fill="#040404"></path> <path d="M34.4126 88.0792C34.9018 87.035 35.3909 85.9908 36.3349 85.4973C36.7458 85.3811 37.2789 85.0039 37.4452 85.4097C37.9001 85.9604 37.4892 86.0767 37.2446 86.5988C35.3223 89.1807 34.6765 92.0808 34.6078 95.2706C34.7741 95.6765 34.8181 96.3435 34.1187 96.3148C33.4192 96.2862 33.0867 95.4745 33.3313 94.9524C33.4439 92.4295 33.4343 90.1676 34.4126 88.0792Z" fill="#040404"></path> <path d="M29.7984 84.813C30.7781 82.7232 32.2574 81.8519 33.1587 80.6907C33.2812 80.4294 33.5702 80.5744 33.8592 80.7193C34.1481 80.8642 34.3147 81.2704 34.1922 81.5316C33.8248 82.3153 33.2909 82.6928 32.9235 83.4765C31.2433 85.5376 30.4301 88.0336 30.6062 90.7031C30.4838 90.9643 30.6503 91.3704 30.3613 91.2255C29.9498 91.3418 29.6609 91.1969 29.4943 90.7907C29.0389 90.2397 29.1173 89.3111 29.3622 88.7886C29.1076 87.0477 29.72 85.7416 29.7984 84.813Z" fill="#040404"></path> <path d="M31.4798 75.5951C31.9414 76.1492 31.8173 76.4119 31.2763 76.7915C29.8219 78.3387 28.9533 80.1774 27.9605 82.2787C27.4641 83.3294 27.2605 84.5258 27.057 85.7222C26.9329 85.9848 27.1016 86.3932 26.3919 86.3644C26.099 86.2187 25.9303 85.8103 26.0544 85.5477C26.3723 81.8127 27.6927 78.2524 30.646 75.829C30.7701 75.5663 31.187 75.4494 31.4798 75.5951Z" fill="#040404"></path> <path d="M28.9736 82.4988C29.3431 81.7132 29.2988 81.0442 30.2495 80.5491C30.6632 80.4326 30.7864 80.1707 30.9538 80.5778C31.2444 80.7231 31.1213 80.985 30.9981 81.2469C29.4759 83.7203 28.6581 86.2225 28.4215 89.0152C28.2984 89.277 28.4658 89.6842 27.7614 89.6555C27.4708 89.5102 27.1802 89.3649 27.3034 89.1031C27.0916 88.0269 27.1705 87.096 27.54 86.3103C28.1558 85.001 28.3578 83.8082 28.9736 82.4988Z" fill="#040404"></path> <path d="M49.8631 104.814C49.2131 105.45 49.0142 106.634 48.078 107.125C47.5493 107.501 47.1418 107.617 47.1854 108.281C47.0642 108.541 46.9429 108.801 46.5354 108.916C46.2493 108.772 46.0844 108.368 46.2057 108.108C46.4046 106.924 46.7684 106.144 46.9674 104.96C47.2099 104.44 47.3312 104.18 47.5738 103.66C47.695 103.4 47.695 103.4 47.8163 103.14C48.2238 103.025 48.3887 103.429 48.2674 103.689C48.311 104.353 48.7184 104.237 48.961 103.717C49.0823 103.457 49.0387 102.793 49.611 103.082C50.3482 103.774 50.3919 104.438 49.8631 104.814Z" fill="#040404"></path> <path d="M38.7487 93.4689C39.161 93.3525 39.2396 92.423 39.7747 92.0451C40.187 91.9287 40.3097 91.6672 40.4766 92.0737C40.7662 92.2188 40.6435 92.4803 40.5207 92.7417C39.2493 94.6885 38.2674 96.7804 38.5667 99.191C38.444 99.4525 38.3212 99.714 38.3212 99.714C37.9089 99.8304 37.742 99.4238 37.8647 99.1623C37.3641 97.9427 37.6882 96.4902 37.8895 95.2992C38.135 94.7763 38.3805 94.2533 38.7487 93.4689Z" fill="#040404"></path> <path d="M47.6732 101.118C46.939 102.684 45.6272 103.961 45.7592 105.963C45.6369 106.224 45.6369 106.224 45.2257 106.34C44.937 106.195 44.6482 106.05 44.7706 105.789C44.3938 104.31 44.7169 102.86 45.4952 101.96C45.7399 101.438 46.3958 100.799 46.9293 100.422C47.0517 100.161 47.5852 99.7832 48.1628 100.073C48.7403 100.363 48.2068 100.74 48.0844 101.001C47.7956 100.856 47.6732 101.118 47.6732 101.118Z" fill="#040404"></path> <path d="M61.7886 107.8C61.5048 107.657 61.3412 107.254 61.4615 106.996C62.2264 106.104 63.2751 105.357 64.04 104.465C64.1603 104.207 64.4441 104.35 64.7279 104.494C65.0117 104.637 64.8914 104.896 64.7711 105.155C64.0062 106.046 63.2413 106.937 62.3129 107.426C62.0724 107.944 61.7886 107.8 61.7886 107.8Z" fill="#040404"></path> <path d="M82.1372 75.8622C82.2265 77.2043 81.7301 78.255 81.3578 79.043C80.7819 81.0274 79.9132 82.8661 79.0444 84.7048C78.9203 84.9675 78.6721 85.4929 78.0865 85.2014C77.5008 84.9099 78.0418 84.5303 77.8731 84.1219C78.5731 81.8748 79.5659 79.7735 80.2659 77.5264C80.6382 76.7383 81.1792 76.3587 82.1372 75.8622Z" fill="#040404"></path> <path d="M80.2709 87.9195C80.8909 86.6065 81.2184 85.1478 81.9624 83.5722C82.3345 82.7844 82.5825 82.2592 83.5398 81.7627C83.6638 81.5001 84.0805 81.3832 84.3731 81.5289C84.6657 81.6746 84.5417 81.9372 84.4177 82.1998C82.9643 83.7466 82.5129 85.4679 81.9374 87.4518C81.6894 87.977 81.4414 88.5022 81.0247 88.6191C80.6081 88.736 80.6081 88.736 80.3155 88.5903C79.6062 88.5616 79.7302 88.299 80.2709 87.9195Z" fill="#040404"></path> <path d="M75.3141 72.4925C74.9878 73.9492 74.2464 75.5226 73.9201 76.9793C73.7965 77.2415 73.841 77.9115 73.1342 77.8828C72.551 77.5918 73.0897 77.2128 72.9217 76.8051C73.1591 74.0085 74.1477 71.9106 75.2599 69.5504C75.3835 69.2882 75.6307 68.7637 76.0903 69.3169C76.6735 69.6079 76.5499 69.8701 76.3027 70.3946C76.0556 70.9191 75.6849 71.7058 75.3141 72.4925Z" fill="#040404"></path> <path d="M86.5508 91.3719C86.0532 92.4235 85.5556 93.4752 85.058 94.5268C84.9336 94.7897 84.6847 95.3155 84.0976 95.0238C83.5105 94.7321 84.0529 94.3521 84.1773 94.0892C84.7546 92.103 85.4563 89.8539 86.9142 88.3052C87.0387 88.0423 87.4119 87.2536 87.8746 87.8082C88.4617 88.0999 87.9193 88.4799 87.6705 89.0057C87.2973 89.7944 86.9241 90.5832 86.5508 91.3719Z" fill="#040404"></path> <path d="M84.2895 91.5108C84.1673 91.7718 83.9228 92.2938 83.3459 92.0042C83.0574 91.8594 83.3019 91.3374 83.1357 90.9316C83.703 88.9597 84.3925 86.7269 84.6713 84.6103C84.9157 84.0883 85.038 83.8273 85.6149 84.1169C86.1918 84.4065 85.6588 84.7837 85.825 85.1895C85.5462 87.3061 84.8568 89.539 84.2895 91.5108Z" fill="#040404"></path> <path d="M78.053 80.6274C77.8069 81.151 77.6838 81.4128 77.3934 81.2675C77.1031 81.1223 76.8127 80.9771 76.9358 80.7153C77.2164 78.5924 77.7874 76.6146 78.7719 74.5204C78.8949 74.2586 79.4314 73.8803 79.7218 74.0255C80.3025 74.316 79.7661 74.6943 79.643 74.9561C79.072 76.9338 78.5009 78.9115 78.053 80.6274Z" fill="#040404"></path> <path d="M66.6943 59.7766C66.1999 60.8256 65.582 62.1368 65.6709 63.4767C65.5473 63.739 65.7154 64.1467 65.3002 64.2635C64.885 64.3802 64.8405 63.7102 64.9641 63.448C64.9544 61.1758 65.8194 59.3401 66.9761 57.6499C67.0997 57.3877 67.5149 57.271 67.8065 57.4164C68.0981 57.5619 67.9745 57.8242 67.851 58.0864C67.1886 58.7277 66.9414 59.2521 66.6943 59.7766Z" fill="#040404"></path> <path d="M76.3218 78.8029C76.1996 79.0638 76.0774 79.3247 75.667 79.4409C75.3788 79.2961 75.2127 78.8904 75.2127 78.8904C75.4913 76.7745 75.7699 74.6586 76.625 72.8321C76.7472 72.5712 76.8694 72.3103 77.1576 72.4551C77.7341 72.7446 77.4898 73.2664 77.3676 73.5273C76.879 74.571 76.6786 75.7594 76.4782 76.9479C76.5222 77.6144 76.5661 78.281 76.3218 78.8029Z" fill="#040404"></path> <path d="M70.8122 67.6726C70.441 68.4598 70.0697 69.2469 69.2827 70.1509C69.159 70.4133 69.0353 70.6757 68.7433 70.5301C68.4513 70.3845 68.575 70.1221 68.6988 69.8598C69.1492 68.1399 70.1837 66.7112 70.5104 65.2537C70.6342 64.9913 70.9262 65.1369 71.0499 64.8745C71.3419 65.0201 71.5102 65.428 71.3864 65.6904C71.4309 66.3607 70.7677 67.0023 70.8122 67.6726Z" fill="#040404"></path> <path d="M68.2161 61.8413C68.3394 61.5793 68.7536 61.4627 68.8768 61.2007L69.291 61.0841C69.5819 61.2294 69.4586 61.4914 69.4586 61.4914C68.8866 63.4706 68.1469 65.0425 67.5749 67.0216C67.4516 67.2836 67.4516 67.2836 67.0374 67.4002C66.7465 67.2549 66.4557 67.1096 66.5789 66.8476C66.6579 65.9163 67.0277 65.1304 66.9834 64.4611C67.4765 63.4132 68.1372 62.7726 68.2161 61.8413Z" fill="#040404"></path> <path d="M60.3736 57.9303C60.6975 56.478 61.1883 55.4323 61.8017 54.1251C61.9244 53.8636 62.1698 53.3408 62.582 53.2244C62.9942 53.108 62.9942 53.108 63.2837 53.253C63.5732 53.3981 63.4505 53.6595 63.3278 53.9209C62.7144 55.2281 61.9782 56.7968 61.6543 58.249C60.9967 58.8883 60.6631 58.0753 60.3736 57.9303Z" fill="#040404"></path> <path d="M88.9368 94.524C88.1518 95.4271 87.6581 96.4755 87.1643 97.524C87.0409 97.7861 86.794 98.3103 86.5027 98.1649C85.9202 97.8741 86.0437 97.612 86.2905 97.0877C86.7843 96.0393 87.4015 94.7287 87.8952 93.6802C88.1421 93.156 88.3889 92.6318 88.9714 92.9226C89.7218 93.621 89.1837 93.9998 88.9368 94.524Z" fill="#040404"></path> <path d="M63.1794 56.7305C63.5476 55.9461 63.7931 55.4232 64.4508 54.7838C64.8631 54.6674 64.9858 54.4059 65.1527 54.8125C65.4423 54.9575 65.3196 55.219 65.1968 55.4805C64.2936 56.6428 63.3904 57.8051 63.6456 59.5476C63.5229 59.8091 63.4001 60.0706 63.1105 59.9255C62.6982 60.0419 62.5314 59.6354 62.6541 59.3739C62.3204 58.5609 62.8113 57.515 63.1794 56.7305Z" fill="#040404"></path> <path d="M72.8127 70.2714C72.4415 71.0585 72.1941 71.5833 71.9466 72.108C71.8229 72.3704 71.6992 72.6328 71.4072 72.4872C71.1152 72.3416 71.239 72.0793 71.3627 71.8169C71.5657 70.6219 72.1843 69.31 72.8029 67.9982C72.9267 67.7358 73.0504 67.4735 73.3424 67.619C73.6343 67.7646 73.5106 68.0269 73.6788 68.4349C73.7233 69.1052 73.0602 69.7467 72.8127 70.2714Z" fill="#040404"></path> <path d="M85.8105 65.0179C86.5517 63.4447 87.0014 61.726 87.8662 59.8906C87.9897 59.6284 88.2368 59.1039 88.8198 59.3949C89.4028 59.6858 89.1557 60.2102 89.0322 60.4724C88.4145 61.7835 88.0883 63.24 87.0556 64.6677C86.8085 65.1921 86.3935 65.3089 85.8105 65.0179Z" fill="#040404"></path> <path d="M89.5452 64.9354C89.2997 65.4584 88.9314 66.2429 88.6859 66.7659C88.5632 67.0274 88.4404 67.2889 87.8611 66.9988C87.5714 66.8537 87.6942 66.5922 87.5273 66.1856C88.1411 64.8781 88.4652 63.4255 89.079 62.118C89.2017 61.8565 89.4472 61.3335 90.0265 61.6237C90.3162 61.7687 90.3604 62.4368 90.2376 62.6983C90.159 63.6279 89.9135 64.1509 89.5452 64.9354Z" fill="#040404"></path> <path d="M105.058 91.7903C104.935 92.0522 104.811 92.3142 104.688 92.5761C104.565 92.8381 104.318 93.362 103.86 92.8094C103.278 92.5187 103.816 92.1402 103.939 91.8782C104.432 90.8304 104.634 89.6373 105.004 88.8514C105.25 88.3275 105.497 87.8036 105.788 87.9489C106.369 88.2396 106.123 88.7635 105.876 89.2874C105.507 90.0732 105.137 90.8591 105.058 91.7903Z" fill="#040404"></path> <path d="M85.5976 57.4853C85.2341 58.2647 84.8707 59.0442 84.2213 59.6795C84.1001 59.9393 83.979 60.1991 83.4072 59.9108C83.1213 59.7667 83.2425 59.5069 83.0777 59.1029C83.5624 58.0636 83.64 57.1401 84.1246 56.1008C84.3669 55.5812 84.774 55.4655 85.0599 55.6096C85.6316 55.8979 85.3893 56.4176 85.147 56.9372C85.7188 57.2255 85.5976 57.4853 85.5976 57.4853Z" fill="#040404"></path> <path d="M103.208 97.4187C103.828 96.1057 104.448 94.7927 105.068 93.4797C105.192 93.2171 105.316 92.9545 105.608 93.1002C105.901 93.2459 106.07 93.6542 105.946 93.9168C105.326 95.2298 104.83 96.2801 103.917 97.4474C104.085 97.8557 103.624 97.3017 103.208 97.4187Z" fill="#040404"></path> <path d="M97.024 82.5919C97.3471 81.1414 97.7925 79.4299 98.1156 77.9794C98.2379 77.7183 98.3603 77.4572 98.7713 77.341C99.06 77.4858 99.2264 77.8918 99.104 78.1529C98.781 79.6034 98.4579 81.0538 97.8461 82.3594C97.8901 83.0265 97.3127 82.7367 97.024 82.5919Z" fill="#040404"></path> <path d="M96.4652 78.4293C96.3428 78.6904 96.2205 78.9515 95.8094 79.0677C95.687 79.3288 95.3983 79.184 95.3983 79.184C95.1096 79.0391 95.1096 79.0391 95.232 78.778C95.5551 77.3276 96.0445 76.2832 96.3675 74.8328C96.4899 74.5717 97.0233 74.1943 97.312 74.3392C97.8894 74.6289 97.356 75.0062 97.2336 75.2673C97.0329 76.4566 96.9546 77.3848 96.4652 78.4293Z" fill="#040404"></path> <path d="M101.283 81.5181C101.855 81.8063 102.019 82.2101 102.184 82.6139C101.864 84.0567 101.38 85.0956 101.346 86.6825C101.225 86.9422 101.389 87.346 100.697 87.3176C100.411 87.1735 100.247 86.7696 100.368 86.5099C100.116 84.7789 100.842 83.2206 101.283 81.5181Z" fill="#040404"></path> <path d="M99.5613 79.0313C100.133 79.3196 100.584 79.8677 100.341 80.3873C100.143 81.5707 99.7792 82.3502 99.5804 83.5336C99.4593 83.7934 99.3381 84.0532 99.0522 83.9091C98.4804 83.6208 98.8875 83.5051 98.7228 83.1012C98.9215 81.9178 99.2414 80.4745 99.5613 79.0313Z" fill="#040404"></path> <path d="M122.474 98.5628C122.35 98.8249 122.395 99.4945 121.812 99.2037C121.23 98.9129 121.477 98.3887 121.6 98.1266C121.758 96.2633 122.499 94.6908 123.362 92.8561C123.486 92.5941 123.733 92.0699 124.315 92.3607C124.897 92.6515 124.359 93.0303 124.236 93.2924C123.787 95.0103 123.337 96.7282 122.474 98.5628Z" fill="#040404"></path> <path d="M119.61 91.6203C119.076 91.998 119.164 93.3333 118.296 92.8984C117.428 92.4634 118.208 91.563 118.453 91.0403C118.943 89.9949 119.144 88.8045 119.346 87.6141C119.468 87.3528 119.591 87.0914 119.713 86.8301C119.836 86.5687 120.248 86.4524 120.537 86.5974C120.826 86.7424 120.704 87.0037 120.581 87.2651C120.38 88.4554 120.346 90.0522 119.61 91.6203Z" fill="#040404"></path> <path d="M106.137 73.8979C106.171 72.3011 107.196 70.8779 107.52 69.4261C107.643 69.1647 107.932 69.3097 107.932 69.3097C108.221 69.4547 108.511 69.5997 108.388 69.8611C108.064 71.3129 107.741 72.7647 106.838 73.9266C106.716 74.1879 106.426 74.0429 106.137 73.8979Z" fill="#040404"></path> </g> </svg> 