<?xml version="1.0" encoding="UTF-8"?> <svg xmlns="http://www.w3.org/2000/svg" width="240" height="113" viewBox="0 0 240 113" fill="none"> <g opacity="0.1"> <path d="M163.92 91.7289C165.573 94.7897 165.848 98.1288 165.297 101.468C165.297 101.746 165.297 102.024 165.297 102.303C165.573 104.807 163.92 106.198 162.543 107.868C162.267 108.146 161.716 108.424 161.441 108.424C160.614 108.424 159.788 108.703 159.237 109.259C158.686 109.537 157.859 109.537 157.033 109.816C154.553 110.094 152.349 110.929 149.87 111.485C148.217 112.042 146.564 111.763 144.635 111.763C139.676 112.042 134.993 112.598 130.034 112.876C127.83 112.876 125.626 113.155 123.698 112.876C119.841 112.042 116.259 112.876 112.402 112.876C108.821 113.155 105.239 112.876 101.658 112.876C97.801 112.876 94.2196 112.042 90.6381 111.207C88.1587 110.65 85.4037 110.094 82.9242 109.259C81.8223 108.981 80.9958 108.703 79.8938 108.424C79.0673 108.146 78.5163 107.589 77.9653 107.033C76.8633 105.642 75.4859 104.529 74.3839 103.416C72.7309 101.468 72.7309 99.2418 73.0064 97.0158C73.5574 92.5637 75.4859 88.9464 77.9653 85.329C78.5163 84.4943 79.6183 83.6595 80.9958 83.6595C81.8223 83.6595 82.6487 83.3812 82.6487 82.5465L82.9242 82.2682C85.9547 80.5987 88.1587 77.8161 90.0871 75.0336C92.0156 72.5293 93.3931 69.4684 95.5971 67.2424C98.0765 65.0164 99.454 61.9555 101.382 59.4512C103.586 56.6687 105.515 53.6079 107.443 50.5471C107.719 50.2688 107.719 49.9905 107.994 49.7123C107.994 49.9905 107.994 50.2688 108.27 50.5471C108.27 50.2688 108.545 50.2688 108.545 49.9905C108.27 48.5993 108.821 47.7645 110.749 47.208C111.025 47.208 111.3 46.9297 111.576 46.9297C112.127 46.3732 112.953 46.6515 113.504 46.9297C115.157 47.7645 116.535 48.8775 117.912 49.9905C118.739 50.8253 119.841 51.6601 120.667 52.2166C121.769 53.0514 122.871 53.8861 123.698 54.9991C124.249 55.8339 125.075 56.3904 125.902 56.9469C128.106 58.06 129.208 60.0078 131.136 61.399C133.615 63.3468 135.268 65.8511 137.748 68.0772C138.85 69.1902 140.227 70.3032 141.329 71.138C143.258 72.5293 144.635 74.477 146.288 75.8683C147.666 77.2596 149.043 78.6509 150.972 79.4857C151.247 79.4857 151.247 79.7639 151.247 79.7639C151.798 81.7117 153.451 82.5465 154.553 84.216C155.104 85.0508 155.655 85.329 156.757 85.0508C155.931 83.9377 155.104 82.5465 154.278 81.7117C153.176 80.5987 152.625 79.2074 152.349 77.8161C152.349 77.2596 152.074 76.7031 151.523 76.4248C149.319 75.3118 147.941 73.364 146.564 71.4162C144.911 69.1902 142.707 67.2424 141.054 65.0164C139.125 62.5121 136.646 60.8425 134.166 59.173C131.412 57.2252 129.483 54.9991 127.279 52.7731C127.279 52.7731 127.279 52.4948 127.004 52.4948C123.698 50.8253 121.769 47.7645 118.188 46.3732C116.535 45.5385 114.882 44.4254 113.229 43.5907C112.678 43.3124 112.402 43.3124 111.851 43.5907C109.647 44.9819 107.443 46.3732 106.066 48.8775C105.515 49.7123 104.964 50.2688 104.413 50.5471C102.484 52.2166 100.831 54.1644 99.1785 56.1122C98.0765 57.7817 96.9745 59.173 95.3215 60.5643C95.0461 60.5643 95.0461 60.8425 95.0461 61.1208C93.3931 64.4598 90.6381 66.9641 87.8832 69.4684C85.9547 71.4162 84.0262 73.0858 81.8223 74.1988C80.9958 74.4771 80.4448 75.3118 80.4448 76.1466C79.8938 79.4857 78.5163 82.5465 76.0368 85.0508C75.7614 85.329 74.6594 85.6073 75.4859 86.442C75.4859 86.442 75.4859 86.7203 75.2104 86.7203C72.1799 89.2246 67.772 91.7289 63.364 92.0072C59.7826 92.2854 56.4766 92.0072 52.8952 92.0072C50.9667 92.0072 49.0383 91.7289 47.1098 91.4507C44.6303 91.1724 42.1509 90.8941 39.6714 90.8941C38.0184 90.8941 36.6409 90.3376 34.988 89.5029C33.0595 88.3898 30.58 88.1116 28.6516 87.2768C26.1721 86.1638 19.2847 85.329 17.0807 83.9377C14.3258 82.2682 11.5708 80.8769 9.09136 78.9291C8.26487 78.9291 7.43839 77.8161 6.3364 76.7031C4.95892 75.0336 3.30595 73.0858 2.47946 71.138C2.20397 70.5815 0 64.4598 0 63.9033C0 56.1122 0.826487 52.7731 0.826487 45.2602C0.826487 42.4776 2.20397 40.2516 3.85694 38.0256C5.78541 34.9647 9.36686 33.2952 11.5708 30.2344C12.6728 28.8431 14.3258 27.4518 15.7033 26.0606C18.7337 23.5563 25.6211 21.052 28.3761 18.5477C29.4781 17.4346 30.8555 17.7129 32.5085 17.1564C34.1615 16.5999 35.8145 15.7651 37.4674 15.2086C42.4264 13.2608 47.1098 11.313 51.7932 9.36521C54.8237 8.25219 57.8541 7.41742 61.1601 6.58266C63.6395 6.02614 67.4965 4.91312 69.9759 4.35661C72.1799 3.8001 74.6594 3.8001 76.8633 3.24359C80.4448 2.40882 84.3017 1.85231 88.1587 1.57405C88.7097 1.57405 88.9851 1.57405 89.5361 1.2958C92.5666 0.182773 96.148 1.01754 99.1785 0.461029C103.311 -0.0954823 107.719 -0.0954823 112.127 0.182773C115.984 0.461029 119.841 0.739285 123.698 0.739285C125.626 0.739285 127.555 1.2958 129.483 1.57405C133.615 1.85231 137.748 2.13056 142.156 2.68707C146.013 2.96533 149.87 2.68707 153.727 3.52184C156.482 3.8001 158.961 4.91312 161.716 5.46963C163.92 6.02614 166.399 6.3044 168.603 6.02614C169.981 6.02614 171.358 6.3044 172.736 6.86091C174.664 7.69568 176.868 7.97393 178.797 8.25219C182.378 9.08696 185.96 8.8087 189.541 9.64347C193.949 10.7565 198.357 11.5913 202.765 13.2608C205.52 14.3738 208.275 15.7651 211.03 17.1564C212.958 18.2694 214.887 19.3824 216.815 20.2172C219.295 21.6085 221.499 23.278 223.703 25.2258C226.182 27.1736 228.662 29.1214 231.141 31.3474C234.171 33.8517 235.824 37.1908 237.477 40.5299C239.406 44.1472 239.406 48.321 239.957 52.2166C240.232 54.1644 239.13 55.8339 238.304 57.5035C237.202 60.286 235.824 63.3468 234.447 66.1294C233.345 68.3554 231.416 70.025 230.039 71.9727C227.835 75.0336 224.805 77.5379 222.05 80.0422C221.223 80.5987 220.397 80.8769 219.57 81.1552C218.468 81.4334 217.366 81.99 216.54 82.5465C214.887 83.3812 213.509 83.9377 212.132 84.216C207.173 85.329 201.938 86.442 197.255 88.3898C196.153 88.9463 194.776 88.3898 193.674 88.6681C191.47 89.2246 189.541 89.5029 187.613 90.3376C184.582 91.4507 181.552 92.0072 178.246 92.2854C175.215 92.5637 172.185 92.5637 169.154 92.8419C167.777 93.1202 166.675 92.8419 165.573 92.0072C165.022 91.7289 164.471 91.7289 163.92 91.7289ZM37.1919 55.2774L38.8449 54.9991C38.2939 53.8861 37.7429 52.7731 37.4674 51.6601C36.6409 53.0514 36.3654 54.1644 37.1919 55.2774C37.1919 55.2774 38.8449 55.2774 38.5694 54.9991C38.5694 54.9991 37.1919 54.9991 37.1919 55.2774ZM63.915 78.3726C63.915 78.0944 63.915 78.0944 63.915 78.3726C63.915 78.0944 63.915 78.0944 63.915 78.3726C63.915 78.0944 63.915 78.0944 63.915 78.3726C63.0885 78.0944 62.5376 78.6509 61.9866 79.2074C61.4356 80.0422 60.6091 80.8769 60.0581 81.7117C58.4051 84.7725 58.6806 87.5551 62.5376 88.3898C62.5376 87.8333 61.7111 87.8333 61.7111 87.2768C61.7111 86.1638 60.8846 85.329 61.4356 83.9377C62.2621 81.99 62.813 80.0422 63.915 78.3726ZM122.32 12.9825C122.596 13.2608 122.871 13.8173 123.422 13.8173C123.973 13.8173 124.249 14.0956 124.524 14.6521C125.075 16.0434 124.8 16.3216 123.147 16.8781C121.494 17.4346 120.116 17.9911 118.188 18.5477C120.116 18.8259 121.769 18.5477 123.422 18.8259C125.626 19.1042 127.004 19.3824 127.004 17.4346C127.004 17.1564 127.004 16.5999 127.004 16.3216C127.004 15.2086 126.728 14.6521 125.626 14.0956C124.524 13.539 123.422 13.2608 122.32 12.9825C122.596 12.7043 122.32 12.426 122.045 12.7043C121.769 12.9825 122.045 12.9825 122.32 12.9825ZM164.196 79.4857C165.022 80.5987 165.848 81.7117 166.675 82.8247C167.777 84.7725 168.879 86.7203 169.154 88.9463C169.154 89.2246 169.154 89.5029 169.43 89.5029C169.705 89.5029 169.981 89.2246 169.981 88.9463C169.981 88.1116 170.532 87.8333 170.807 87.2768C171.358 86.442 171.909 85.329 171.358 84.216C169.705 81.7117 167.777 79.7639 164.196 79.4857C164.471 79.2074 164.196 78.9291 163.92 79.2074L164.196 79.4857ZM41.8754 26.6171C42.1509 26.6171 42.1509 26.6171 41.8754 26.6171C42.1509 26.6171 42.1509 26.6171 41.8754 26.6171C42.1509 26.6171 42.1509 26.6171 41.8754 26.6171C40.2224 26.8953 39.3959 28.5649 37.4674 28.5649C36.09 28.5649 35.539 32.1822 36.6409 33.2952C37.4674 34.4082 38.5694 34.4082 39.9469 33.2952C41.5999 32.1822 42.9773 30.7909 44.9058 29.9561C45.1813 29.6779 45.7323 30.2344 46.0078 29.6779C46.5588 28.2866 47.1098 27.1736 47.3853 25.7823C47.6608 24.6693 47.3853 23.5563 46.2833 22.9997C46.0078 22.7215 45.4568 22.7215 45.7323 22.165C46.0078 21.8867 45.7323 21.6085 45.1813 21.3302C44.9058 21.3302 44.6303 21.6085 44.6303 21.8867C43.8038 24.1128 43.5283 23.8345 45.4568 24.9475C45.7323 24.9475 46.0078 25.2258 46.0078 25.504C45.7323 25.7823 45.4568 25.7823 45.1813 25.7823C44.3548 25.7823 44.0793 24.9475 43.5283 24.6693C43.2528 25.2258 42.9773 25.504 43.2528 26.0606C44.0793 27.4518 44.0793 28.2866 44.0793 29.1214C44.0793 29.3996 44.0793 29.6779 43.5283 29.6779C42.9773 29.6779 42.9773 29.3996 42.9773 29.1214C42.9773 28.5649 42.9773 28.2866 42.9773 27.4518C42.1509 28.2866 41.5999 29.1214 41.8754 30.2344C41.8754 30.5126 41.8754 30.7909 41.8754 31.0692C41.8754 31.3474 41.5999 31.6257 41.3244 31.6257C41.0489 31.6257 40.7734 31.3474 40.7734 31.0692C40.7734 30.7909 40.7734 30.2344 40.7734 29.9561C39.9469 30.2344 39.6714 30.7909 39.1204 31.3474C39.1204 31.6257 38.8449 31.9039 38.5694 31.6257C38.2939 31.3474 38.0184 31.0692 38.2939 30.7909C38.5694 30.2344 39.1204 29.9561 39.6714 29.3996C40.7734 28.8431 41.5999 28.0083 41.8754 26.6171ZM67.4965 78.6509C67.4965 78.6509 67.4965 78.9291 67.4965 78.6509C67.4965 78.9291 67.772 78.9291 67.4965 78.6509C66.119 79.7639 65.8435 81.7117 65.017 83.103C64.466 83.9377 64.7415 85.0508 65.8435 85.8855C66.67 86.442 69.1494 86.7203 69.9759 86.1638C70.8024 85.8855 71.6289 85.329 72.1799 85.0508C74.6594 83.9377 75.7613 81.7117 76.8633 79.7639C77.6898 78.0944 76.0368 76.4248 74.3839 76.9814C72.4554 77.5379 68.874 78.0944 67.221 79.4857C67.4965 79.2074 67.772 78.9291 67.4965 78.6509ZM151.798 18.5477C151.798 18.2694 152.074 18.2694 151.798 18.5477C151.798 18.2694 151.798 18.2694 151.798 18.5477C150.696 18.5477 149.87 19.3824 149.043 18.8259C148.217 18.2694 147.39 18.2694 146.564 17.7129C145.737 17.1564 144.36 17.4346 143.258 17.7129C142.707 17.7129 142.707 18.5477 142.431 19.1042C142.156 19.9389 141.054 20.2172 140.778 19.6607C139.952 18.5477 139.125 18.5477 138.85 16.8781C138.574 14.9303 140.227 13.2608 142.156 12.1478C144.635 11.0347 147.666 11.5913 148.492 13.2608C149.043 14.3738 149.594 14.3738 150.696 14.0956C151.247 14.0956 151.523 13.8173 151.798 13.8173C153.451 13.539 155.104 13.8173 156.206 15.2086C156.757 15.7651 156.757 16.8781 157.584 16.8781C158.41 16.8781 158.961 16.0433 159.788 15.7651C160.339 15.4868 160.89 15.2086 161.441 14.9303C162.543 14.6521 163.369 14.0956 163.92 13.2608C163.369 13.2608 162.818 12.9825 162.267 12.9825C159.512 12.7043 156.482 12.426 153.727 11.5913C152.074 11.0347 150.145 10.7565 148.217 10.7565C145.462 10.7565 142.982 10.2 140.503 9.92172C136.646 9.64347 132.789 9.08696 128.932 8.8087C125.351 8.53045 122.045 8.25219 118.463 7.97393C118.188 7.97393 117.361 7.41742 117.637 8.25219C117.637 8.8087 117.086 9.64347 118.188 9.64347C119.014 9.64347 119.841 9.64347 120.392 10.2C121.769 11.313 123.422 11.8695 125.075 12.426C127.004 12.9825 128.657 14.3738 128.381 16.5999C128.381 17.1564 128.381 16.5999 128.381 17.1564C128.381 17.9911 128.106 18.8259 127.279 19.3824C126.177 20.2172 124.524 20.4954 123.422 21.052C121.494 21.8867 119.841 22.4432 117.912 22.4432C117.361 22.4432 117.086 22.7215 117.086 23.278C116.81 24.391 117.086 25.7823 116.81 26.8953C115.708 29.6779 115.708 33.017 115.708 36.356C115.708 37.1908 115.984 37.469 116.81 36.9125C117.361 36.6343 117.912 36.356 118.463 36.0778C120.943 34.6865 123.147 33.2952 125.626 31.9039C127.83 30.7909 127.83 30.7909 125.902 29.1214C125.351 28.5649 124.249 28.0083 123.973 27.1736C123.422 26.3388 123.698 25.7823 124.524 25.504C127.83 24.6693 128.106 23.8345 130.034 26.8953C130.034 27.1736 130.31 27.1736 130.31 27.4518C130.585 27.7301 130.585 27.7301 131.136 27.7301C133.064 27.4518 134.993 27.4518 136.646 26.3388C137.197 26.0606 137.748 25.7823 138.299 25.504C139.401 25.2258 140.227 24.6693 141.054 24.391C143.809 22.9997 146.288 21.3302 148.768 19.9389C149.87 19.6607 150.972 19.1042 151.798 18.5477ZM30.8555 38.3038C30.8555 37.1908 31.4065 36.6343 32.784 36.9125C33.335 36.9125 33.6105 37.469 33.886 37.469C35.2635 37.1908 36.6409 37.7473 38.0184 38.0256C39.1204 38.3038 40.2224 38.5821 41.3244 37.7473C41.8754 37.1908 42.9773 36.9125 43.8038 37.7473C44.6303 38.3038 44.6303 39.1386 44.3548 39.9733C44.0793 41.3646 42.9773 41.3646 42.1509 41.3646C40.4979 41.3646 38.8449 41.6429 38.8449 43.8689C38.8449 44.4254 38.2939 44.9819 38.0184 45.5385C37.7429 45.8167 37.4674 46.095 37.7429 46.6515C38.2939 46.3732 38.8449 46.6515 39.1204 45.8167C39.9469 44.4254 41.0489 43.5907 42.1509 42.7559C44.3548 41.0864 46.8343 40.2516 49.5892 40.8081C52.6197 41.0864 55.6502 42.4776 58.6806 43.3124C60.0581 43.5907 61.1601 44.1472 62.2621 44.4254C63.6395 44.7037 65.2925 44.1472 66.9455 44.1472C63.915 41.9211 65.017 39.6951 66.9455 37.7473C68.323 36.0778 70.8024 38.0256 72.1799 37.7473C71.9044 37.469 71.9044 37.469 71.9044 37.1908C70.5269 35.5213 70.5269 34.4082 71.9044 32.7387C72.4554 31.9039 73.2819 31.3474 74.1084 30.7909C75.7613 29.6779 77.9653 29.3996 79.8938 28.2866C76.8633 27.1736 74.1084 25.7823 71.0779 24.6693C71.0779 25.7823 71.0779 25.7823 70.8024 26.3388C69.4249 28.2866 64.7415 28.2866 63.0885 26.6171C61.9866 25.504 62.2621 24.1128 62.5376 22.7215C62.5376 22.4432 63.0885 22.165 62.5376 21.8867C59.5071 20.2172 56.2011 19.1042 53.1707 17.7129C52.6197 17.4346 52.0687 17.7129 51.7932 17.9911C50.9667 18.5477 49.8647 19.1042 49.0383 19.6607C47.6608 20.4954 47.3853 21.3302 48.4873 22.7215C50.6912 25.2258 49.0383 29.6779 47.3853 31.9039C46.2833 33.5735 44.0793 33.8517 42.7019 35.243C40.2224 37.469 36.09 35.243 35.539 32.7387C35.2635 31.9039 35.2635 30.7909 35.539 29.9561C34.7125 30.7909 33.886 31.9039 32.784 32.4604C30.58 33.8517 25.8966 35.5213 24.5191 37.469C23.1416 39.6951 20.3867 42.1994 19.8357 44.7037C19.5602 46.095 19.8357 47.4862 19.8357 49.1558C19.8357 50.2688 20.3867 50.2688 21.2132 50.2688C23.1416 49.9905 29.2026 49.434 31.4065 49.434C30.8555 48.321 29.7535 47.7645 29.2026 46.6515C28.3761 44.4254 28.3761 42.1994 29.2026 39.9733C28.9271 39.1386 29.4781 38.5821 30.8555 38.3038C30.8555 39.4168 29.7535 39.6951 29.4781 40.5299C28.9271 42.4776 29.2026 44.4254 30.029 46.095C31.131 48.5993 33.6105 49.1558 35.2635 46.9297C35.539 46.6515 35.8145 46.3732 35.2635 46.095C34.7125 45.8167 34.1615 45.2602 33.6105 45.2602C31.4065 44.4254 30.3045 42.1994 31.4065 40.2516C31.682 39.6951 31.9575 39.4168 32.233 38.5821C31.682 38.8603 31.131 38.8603 30.8555 38.3038ZM143.258 48.5993C143.809 49.1558 144.36 49.7123 144.635 50.5471C145.186 51.1036 144.911 51.6601 144.36 52.2166C143.809 52.7731 142.982 53.0514 142.431 53.6079C141.329 54.1644 140.227 54.4426 138.85 54.1644C136.921 53.8861 135.268 52.7731 133.34 52.2166C132.789 51.9383 132.238 51.6601 131.962 51.3818C131.412 51.1036 130.861 50.2688 131.136 49.7123C131.687 48.321 132.238 46.9297 134.166 46.3732C136.921 45.5385 139.676 45.5385 142.156 47.4862C142.431 46.3732 141.88 46.095 141.054 45.5385C139.952 44.7037 138.85 44.4254 138.299 43.0342C138.299 42.7559 137.748 42.7559 137.472 42.7559C134.442 42.7559 131.411 42.1994 128.381 41.9211C125.075 41.6429 121.769 41.6429 118.188 41.6429C118.463 42.1994 118.739 42.7559 119.29 43.0342C121.218 44.1472 123.147 45.8167 124.524 47.4862C126.453 49.7123 129.208 51.3818 131.687 53.0514C132.513 53.6079 133.34 53.8861 133.891 54.4426C134.993 56.1122 136.921 56.3904 138.299 57.7817C138.574 58.06 138.574 58.06 138.85 57.7817C139.676 56.3904 141.329 55.8339 142.707 55.8339C145.462 55.8339 148.217 55.8339 150.421 57.7817C151.247 58.6165 151.523 59.4512 152.074 60.286C152.9 61.9555 154.002 64.1816 153.451 66.1294C152.625 68.3554 152.9 70.5815 152.625 72.8075C152.625 73.0858 152.625 73.364 152.9 73.364C153.451 73.6423 154.002 73.9205 154.829 73.9205C157.033 73.9205 158.961 73.9205 161.165 73.6423C164.196 73.364 166.95 73.364 169.981 72.8075C173.838 72.251 177.419 71.6945 181.276 71.138C183.205 70.8597 185.133 70.5815 187.062 70.3032C186.786 69.7467 186.235 69.4684 185.96 69.1902C184.582 67.2424 184.582 65.0164 186.511 63.9033C186.786 63.6251 187.337 63.3468 187.888 63.6251C188.439 63.9033 188.439 64.4598 188.439 65.0164C188.439 65.5729 188.439 66.1294 188.715 66.4076C189.541 66.9641 190.919 67.2424 191.745 66.6859C192.572 66.4076 193.398 65.5729 193.398 64.4598C193.398 63.3468 193.949 63.0686 194.776 63.6251C195.602 64.1816 196.429 64.1816 196.98 63.3468C197.53 62.7903 196.98 61.9555 196.429 61.6773C195.878 61.399 196.153 61.1208 196.153 60.5643C196.153 60.286 196.429 60.286 196.98 60.286C197.255 60.286 197.806 60.286 198.081 60.286C199.459 60.286 200.561 60.8425 201.387 61.6773C202.214 62.5121 202.489 63.6251 201.663 64.7381C203.04 64.4598 203.867 63.6251 204.969 63.0686C207.999 62.2338 210.203 60.0078 212.132 58.06C213.509 56.6687 214.611 54.7209 215.713 53.0514C216.54 52.2166 217.091 51.1036 217.642 49.9905C214.611 48.5993 211.305 48.8775 207.999 48.5993C207.448 48.5993 207.173 48.8775 207.173 49.434C206.897 50.8253 206.071 51.9383 204.418 52.2166C204.142 52.2166 203.591 52.2166 203.867 52.7731C204.142 54.1644 203.04 54.9992 202.765 56.1122C201.938 58.06 200.285 58.8947 198.357 59.4512C197.53 59.7295 196.704 59.4512 195.878 59.7295C192.572 60.5643 189.266 60.5643 185.96 59.7295C184.858 59.4512 183.756 58.8947 182.654 58.3382C179.899 57.2252 176.868 56.1122 174.94 53.3296C174.94 53.0514 174.664 53.0514 174.389 53.0514C173.562 52.7731 173.287 52.4949 174.389 51.9383C174.664 51.9383 174.664 51.9383 174.664 51.6601C175.766 49.434 177.419 48.321 180.174 48.0428C182.929 47.7645 185.96 47.4862 188.715 46.9297C190.643 46.6515 192.572 46.6515 194.5 47.4862C196.153 48.321 198.081 49.1558 200.01 49.7123C200.01 48.8775 200.561 48.321 200.836 47.7645C197.806 47.4862 194.776 47.208 192.021 46.6515C187.062 45.8167 182.103 45.8167 177.144 45.5385C173.838 45.2602 170.256 45.5385 166.675 44.7037C166.124 44.7037 165.848 44.7037 165.573 45.2602C163.92 47.4862 161.716 48.5993 158.961 48.8775C157.859 48.8775 156.757 49.1558 155.655 49.434C151.798 50.5471 147.39 50.8253 143.258 48.5993C143.258 48.321 143.258 48.321 143.258 48.321C142.982 48.321 142.982 48.5993 143.258 48.5993ZM161.165 39.6951C160.063 38.8603 158.41 39.1386 157.033 38.5821C155.104 38.0256 153.451 37.469 151.247 37.1908C147.666 36.9125 144.911 38.8603 141.88 40.8081C142.982 40.8081 144.084 41.3646 145.186 40.5299C145.462 40.2516 146.013 40.2516 146.013 40.5299C146.288 41.3646 147.115 41.0864 147.666 41.0864C148.492 41.0864 149.319 41.0864 150.145 41.3646C150.696 41.3646 151.247 41.6429 151.247 40.8081C151.247 40.5299 151.523 40.2516 152.074 40.2516C152.349 40.2516 152.9 40.5299 152.625 40.8081C152.349 41.9211 153.176 41.6429 153.451 41.6429C154.553 41.6429 155.38 41.6429 156.482 41.9211C156.757 41.9211 157.033 41.9211 157.033 41.6429C157.033 41.3646 157.033 40.8081 157.584 41.0864C158.135 41.0864 158.41 41.3646 158.41 41.6429C158.41 42.1994 158.686 42.1994 159.237 42.1994C160.614 41.9211 161.992 42.1994 163.094 42.7559C164.196 43.0342 165.573 41.9211 166.675 43.0342H166.95C169.154 43.5907 171.358 43.3124 173.562 43.3124C177.144 43.3124 180.725 44.1472 184.031 44.1472C188.715 44.1472 193.123 44.9819 197.806 45.5385C199.459 45.8167 201.112 46.095 203.04 46.3732C201.938 44.7037 200.561 43.5907 198.908 42.7559C197.806 42.1994 197.806 41.6429 198.357 40.5299C198.908 39.6951 200.01 39.4168 200.561 38.5821C200.561 38.5821 201.112 38.5821 200.836 38.3038H200.285C198.357 38.3038 196.704 38.0256 195.051 37.469C193.674 36.9125 192.572 36.6343 191.194 36.9125C190.919 36.9125 190.643 36.9125 190.643 36.6343C190.368 35.7995 190.643 35.5213 191.47 35.5213C192.296 35.5213 193.398 36.0778 193.949 35.5213C195.602 34.4082 197.255 34.4082 198.908 34.13C200.01 33.8517 203.04 34.9647 203.316 36.0778C203.867 37.469 204.418 36.9125 205.244 36.6343C209.928 34.9647 215.162 37.1908 216.54 42.1994C217.366 44.7037 217.091 45.8167 214.611 47.4862C215.713 47.4862 216.54 47.208 217.366 47.208C217.917 47.208 218.193 46.9297 218.193 46.095C218.193 45.5385 218.744 44.7037 218.744 44.1472C219.019 42.7559 219.295 41.0864 217.917 39.9733V39.6951C218.468 38.8603 217.366 38.5821 217.091 38.0256C215.989 36.6343 214.611 35.5213 213.785 34.13C212.683 32.4604 211.03 31.3474 209.101 30.5126C207.724 29.9561 206.622 29.3996 205.52 28.5649C203.316 27.1736 201.112 25.7823 198.908 24.391C196.429 22.9997 194.225 21.6085 191.194 20.7737C190.368 20.4954 189.541 20.2172 188.99 19.9389C185.409 18.2694 181.552 18.2694 177.97 16.3216C176.868 15.7651 175.491 15.4868 174.664 15.7651C176.317 17.4346 176.317 16.8781 174.113 18.2694C173.562 19.3824 172.185 19.6607 171.083 20.4954C170.807 20.7737 170.532 20.4954 170.532 20.2172C170.807 17.9911 171.358 17.1564 173.287 15.7651C169.154 13.539 165.848 15.7651 162.267 17.4346C162.543 17.7129 163.094 17.7129 163.369 17.7129C164.471 17.9911 165.297 17.4346 165.848 18.2694C166.675 19.6607 165.573 22.4432 163.92 22.9997C163.094 23.278 162.818 22.9997 162.543 22.4432C162.267 22.165 161.992 21.8867 161.716 21.8867C160.339 21.6085 159.237 21.3302 157.859 21.052C157.033 20.7737 156.206 20.4954 155.104 21.052C154.002 21.6085 153.176 21.3302 152.625 19.9389C151.798 20.4954 150.696 21.052 149.87 21.6085C146.564 24.391 142.707 25.7823 138.85 27.1736C138.023 27.4518 137.472 27.7301 137.748 28.5649C137.748 29.1214 138.299 29.3996 138.574 29.6779C139.401 30.5126 140.778 31.0692 139.952 32.4604V32.7387C139.952 34.4082 139.125 35.7995 137.472 36.0778C134.442 36.6343 131.687 37.469 128.932 38.3038C127.555 38.5821 127.004 38.3038 126.728 36.9125C126.453 35.5213 126.728 34.13 127.004 32.4604C123.698 34.4082 120.392 36.6343 116.81 38.5821C117.912 39.6951 117.912 39.6951 119.29 39.6951C124.524 39.6951 129.483 40.2516 134.717 40.2516C136.646 40.2516 138.85 41.0864 140.778 39.6951C141.88 38.8603 143.533 38.3038 144.635 37.469C146.288 36.356 148.217 35.7995 150.421 35.5213C152.9 35.243 155.104 36.0778 157.584 36.6343C160.339 37.1908 163.094 37.7473 165.573 39.1386C166.124 39.4168 166.675 39.6951 166.95 40.5299C166.95 40.8081 167.226 41.0864 166.95 41.3646C166.675 41.6429 166.399 41.3646 166.124 41.0864C164.196 40.8081 162.818 40.2516 161.165 39.6951ZM99.7295 86.1638C97.5255 86.1638 95.3216 85.8855 92.8421 85.8855C91.4646 85.8855 90.0871 85.329 88.4342 85.8855C86.7812 86.442 85.1282 86.7203 83.4752 85.8855C82.6487 85.329 82.0978 85.6073 81.2713 86.1638C79.6183 87.8333 77.6898 89.2246 77.1388 91.4507C76.3123 94.2332 75.4859 97.0158 76.0368 100.077C76.3123 101.19 77.9653 103.416 78.7918 103.694C81.5468 104.25 84.3017 105.363 87.0567 106.476C89.5361 107.311 91.7401 108.424 94.4951 108.146C96.148 108.146 97.5255 107.868 99.1785 107.868C102.209 108.146 104.964 108.424 107.994 108.146C110.749 107.868 113.78 108.146 116.81 108.146C117.912 108.146 118.739 108.703 119.841 108.424C122.045 107.868 124.249 107.868 126.177 107.868C127.555 107.868 128.932 107.589 130.034 107.311C131.412 107.033 132.513 107.033 133.891 107.311C135.544 107.589 137.197 108.146 138.85 108.146C139.952 108.146 141.054 107.868 141.88 108.146C144.911 108.703 147.666 108.146 149.87 106.476C152.074 105.085 154.553 105.085 156.757 104.807C158.41 104.529 160.063 103.972 161.992 103.972C162.543 103.972 162.818 103.416 162.818 103.137C163.094 102.024 163.645 100.911 163.645 99.7983C163.645 97.294 163.645 95.068 162.267 93.1202C160.89 90.8941 158.961 88.9463 156.757 87.2768C155.931 86.7203 155.104 86.7203 154.553 87.5551C154.278 87.8333 153.727 87.8333 153.451 88.1116C152.349 88.1116 151.247 88.3898 150.145 88.3898C146.013 88.3898 141.88 88.6681 137.748 89.2246C131.687 90.0594 125.626 89.5029 119.841 88.1116C115.433 86.9986 111.3 85.8855 106.617 86.1638C104.413 85.6073 102.209 86.1638 99.7295 86.1638ZM160.063 74.477C161.992 75.3118 163.92 75.5901 165.848 75.8683C168.603 76.4248 170.532 78.0944 172.185 80.0422C173.287 81.4334 174.664 83.103 174.664 85.329C174.664 85.8855 174.389 86.7203 174.664 86.9986C175.215 87.5551 176.042 86.9986 176.593 86.9986C181.827 86.9986 186.511 85.8855 191.47 84.4943C192.296 84.216 192.847 83.9377 193.674 83.9377C195.602 83.9377 197.255 83.6595 198.908 83.3812C201.663 82.8247 204.418 82.2682 206.897 81.1552C208.275 80.5987 209.377 80.0422 210.754 79.7639C212.132 79.4857 213.785 79.2074 214.887 78.3726C215.438 77.8161 216.264 77.5379 216.815 77.2596C218.193 76.7031 219.295 76.1466 220.672 75.5901C222.601 74.4771 223.703 72.8075 225.356 71.4162C228.386 68.9119 230.315 65.8511 232.243 62.7903C234.171 60.0078 234.998 56.9469 236.1 54.1644C236.651 52.7731 236.926 51.6601 236.375 50.2688C236.1 49.434 235.824 48.5993 235.549 47.7645C235.549 47.4862 235.273 47.208 235.273 47.208C233.069 46.3732 231.141 45.5385 228.662 46.095C227.835 46.3732 227.009 46.3732 226.182 46.095C224.254 45.5385 222.601 46.6515 222.325 48.0428C222.325 49.434 221.499 50.5471 220.672 51.6601C218.744 53.8861 216.815 56.1122 214.887 58.3382C213.234 60.0078 211.305 61.1208 209.377 62.7903C209.101 63.0686 208.826 63.0686 208.826 63.0686C203.867 65.2946 198.908 66.9641 194.225 69.4684C193.398 69.7467 192.572 70.025 191.47 70.3032C187.888 70.8597 184.307 71.4162 181.001 71.9727C178.246 72.5293 175.215 72.8075 172.46 73.364C168.603 73.9205 164.196 74.1988 160.063 74.477ZM69.4249 74.477C66.3945 74.1988 61.7111 73.9205 58.6806 73.364C56.7521 73.0858 54.8237 72.251 52.8952 71.6945C48.7628 70.8597 43.5283 70.025 39.6714 68.0772C38.2939 67.5207 37.1919 66.6859 35.8145 66.4076C32.5085 65.5729 30.3045 63.3468 27.5496 61.9555C24.7946 60.5643 20.3867 57.7817 18.1827 55.5557C16.8052 54.1644 15.7033 52.4949 15.7033 50.5471C15.7033 50.2688 15.7033 50.2688 15.4278 49.9905C13.7748 49.434 12.3973 48.321 10.7443 47.7645C8.54037 47.208 5.23442 46.6515 3.03045 46.9297C2.47946 46.9297 2.20397 47.208 2.20397 47.7645C1.37748 51.3818 1.10198 54.9991 1.92847 58.3382C3.03045 63.3468 5.50992 68.9119 8.54037 72.251C8.81587 72.5293 8.81587 72.8075 9.09136 72.8075C9.36686 73.9205 10.1933 74.4771 11.2953 75.0336C13.2238 76.1466 15.1523 77.5379 17.0807 78.6509C18.1827 79.4857 19.0092 80.5987 20.3867 80.8769C22.8662 81.7117 29.4781 82.5465 31.9575 83.103C33.886 83.6595 35.539 84.7725 37.4674 85.329C39.1204 85.6073 40.4979 85.6073 42.1509 85.8855C46.2833 86.442 50.6912 86.9986 54.8237 87.5551C55.9256 87.5551 56.7521 88.3898 57.8541 88.1116C56.4766 86.7203 57.0276 85.0508 57.0276 83.3812C57.3031 80.0422 59.7826 78.3726 62.2621 76.4248C63.6395 75.3118 65.2925 74.7553 67.221 74.7553C67.221 75.0336 69.1495 75.0336 69.4249 74.477ZM89.8116 60.286C88.4342 59.173 87.0567 58.06 87.3322 56.3904C87.8832 54.1644 88.4342 52.2166 90.0871 50.5471C92.0156 48.321 93.9441 46.6515 96.9745 46.095C97.5255 46.095 98.352 45.8167 98.903 45.5385C100.556 44.7037 101.658 44.7037 103.035 45.8167C103.311 46.095 103.586 46.095 104.137 45.8167C105.239 44.9819 106.341 44.1472 107.443 43.0342C108.27 42.1994 108.821 41.3646 110.198 40.8081C111.025 40.5299 111.576 39.6951 112.402 39.1386C111.851 38.8603 111.576 39.1386 111.3 39.1386C108.821 39.1386 106.341 39.9733 103.862 40.2516C102.76 40.2516 101.658 40.2516 100.556 40.5299C96.699 41.6429 92.8421 42.7559 88.7097 42.7559C88.1587 42.7559 87.6077 42.7559 88.1587 43.5907C88.4342 43.8689 88.1587 44.4254 88.1587 44.9819C87.6077 47.4862 83.1997 49.7123 80.4448 48.0428C80.1693 47.7645 79.6183 47.208 79.3428 47.7645C77.6898 49.7123 75.7614 49.1558 73.5574 48.8775C72.4554 48.5993 71.6289 47.7645 71.0779 46.6515C70.8024 46.095 70.8024 45.5385 70.8024 44.7037C69.1495 45.5385 65.8435 45.2602 64.1905 45.8167C64.7415 46.6515 65.568 47.4862 66.119 48.5993C67.221 50.5471 67.221 52.4948 65.8435 54.1644C64.1905 56.1122 61.9866 57.2252 59.5071 57.5035C58.4051 57.7817 57.5786 58.06 56.7521 58.3382C53.9972 59.4512 50.1402 60.5643 47.1098 60.286C42.4264 60.0078 38.5694 58.06 35.539 54.9991C34.7125 54.1644 35.539 53.0514 35.8145 51.9383C35.8145 51.6601 35.8145 51.3818 35.8145 50.8253C34.7125 51.1036 33.6105 51.3818 32.784 51.3818C30.3045 51.6601 23.9681 52.4948 21.4887 53.0514C21.2132 53.0514 20.6622 53.3296 20.9377 53.6079C21.7642 54.9991 26.4476 56.1122 27.2741 57.2252C30.3045 60.8425 32.5085 63.3468 36.9164 65.0164C39.1204 65.8511 41.3244 67.2424 43.8038 68.0772C47.6608 69.4684 52.8952 70.025 57.0276 71.138C61.4356 72.251 67.772 72.5293 72.4554 72.5293C74.1084 72.5293 75.7614 72.5293 77.4143 71.9727C79.8938 71.138 81.8223 69.1902 83.1997 67.2424C85.1282 65.2946 86.7812 62.2338 89.8116 60.286ZM86.7812 17.7129C86.5057 19.1042 86.5057 20.2172 86.5057 21.052C86.5057 21.6085 86.2302 22.7215 85.1282 22.4432C84.3017 22.4432 83.4752 21.8867 83.4752 20.7737C83.7507 19.3824 82.9242 18.5477 81.8223 17.9911C80.7203 17.4346 79.6183 17.1564 78.2408 17.9911C77.1388 19.1042 76.0368 19.6607 74.3839 19.3824C73.8329 19.3824 73.5574 19.3824 73.0064 19.1042C72.4554 18.8259 72.1799 18.8259 71.9044 19.3824C71.3534 20.2172 70.8024 21.052 70.2514 22.165C74.3839 23.5563 78.5163 24.9475 82.6487 26.3388C83.7507 26.6171 84.5772 26.8953 85.6792 26.6171C89.5361 25.7823 93.6686 26.0606 97.5255 26.3388C100.005 26.6171 101.658 28.2866 101.933 30.2344C101.933 30.7909 102.209 31.6257 101.382 31.9039C100.28 32.7387 101.107 33.0169 101.658 33.0169C104.964 33.8517 108.545 34.6865 111.851 36.0778C113.78 36.9125 114.055 36.6343 114.055 34.6865C114.055 30.2344 114.055 26.0606 114.055 21.6085C114.055 20.2172 113.78 19.9389 112.127 19.6607C110.474 19.3824 108.545 19.3824 107.443 17.7129C106.341 16.0433 105.79 15.4868 106.066 13.539C106.341 12.426 106.892 11.313 108.27 11.0347C110.198 10.4782 111.851 8.8087 114.331 9.08696C115.157 9.08696 114.882 8.25219 114.882 7.69568C114.882 7.13917 114.606 7.13917 114.055 7.13917C110.198 7.41742 106.617 7.13917 102.76 7.69568C100.005 8.25219 96.9745 7.97393 93.9441 8.53044C91.1891 9.08696 88.1587 9.08696 85.4037 9.64347C82.9242 10.2 80.7203 10.7565 78.2408 11.313C73.8329 12.7043 68.0475 13.539 63.6395 14.6521C60.6091 15.4868 57.8541 15.2086 55.0992 16.3216C57.8541 17.9911 61.4356 18.2694 64.466 19.6607C64.7415 19.6607 65.017 19.9389 65.2925 19.9389C65.8435 19.9389 66.119 19.9389 65.8435 19.1042C65.2925 17.4346 66.119 17.4346 66.9455 16.3216C68.323 14.3738 71.9044 14.0956 74.6594 14.9303C75.2104 15.2086 75.4859 15.2086 76.0368 14.6521C76.8633 14.0956 77.9653 13.539 79.0673 13.539C82.3733 13.2608 85.1282 13.539 86.2302 17.1564C86.2302 17.4346 86.2302 16.5999 86.5057 16.5999C86.7812 16.5999 86.7812 16.3216 87.0567 16.0434C87.6077 14.6521 88.7097 15.2086 90.0871 15.2086C92.5666 15.2086 94.7706 16.0433 96.9745 17.1564C97.801 17.7129 99.1785 16.5999 99.7295 17.4346C100.28 17.9911 100.556 18.5477 101.382 18.8259C101.933 18.8259 102.209 19.1042 102.209 19.6607C101.933 20.2172 101.382 20.2172 100.831 19.9389C100.005 19.3824 98.903 19.3824 98.0765 19.6607C96.699 19.9389 95.5971 19.9389 94.2196 19.9389C93.6686 19.9389 92.8421 19.6607 92.2911 19.6607C90.0871 20.4954 87.8832 20.4954 86.7812 17.7129ZM128.657 61.399C129.208 64.1816 127.555 65.5729 125.626 66.9641C124.524 67.7989 123.147 67.2424 122.045 67.2424C121.218 67.2424 120.943 66.4076 120.667 65.8511C120.116 65.0164 119.565 65.0164 118.463 65.2946C115.984 65.8511 115.157 65.2946 114.055 63.6251C113.78 63.0686 113.78 62.2338 113.504 61.6773C112.678 58.6165 114.055 56.3904 115.708 53.8861C116.259 53.3296 116.81 53.0514 117.637 52.7731C118.188 52.4948 118.463 52.4948 118.739 53.0514C119.014 53.3296 119.29 53.8861 119.014 54.4426C118.739 55.5557 118.463 56.6687 118.463 57.7817C118.463 59.4512 119.014 60.0078 120.943 60.0078C121.494 60.0078 122.32 60.0078 122.871 60.5643C123.698 61.6773 124.8 61.399 125.902 61.1208C127.555 60.8425 127.555 60.286 126.453 59.173C126.177 58.8947 125.626 58.3382 125.075 58.3382C123.973 57.7817 123.422 57.2252 122.596 56.3904C119.841 53.6079 116.81 50.8253 113.504 48.5993C112.402 47.7645 111.851 48.321 111.3 48.8775C111.025 49.434 109.647 49.7123 110.474 50.8253C111.3 51.9383 111.851 53.3296 112.127 54.7209C112.402 56.3904 112.678 58.06 112.127 59.7295C111.025 62.7903 109.096 65.5729 106.617 67.5207C105.515 68.3554 104.688 68.6337 103.311 68.6337C103.035 68.6337 102.484 68.6337 102.209 68.6337C100.28 68.9119 98.903 68.6337 97.801 66.9641C97.801 66.9641 97.801 66.9641 97.5255 67.2424C94.4951 70.025 93.1176 73.9205 90.3626 76.9814C90.0871 77.2596 90.0871 77.2596 90.3626 77.5379C91.1891 78.0944 90.9136 78.3726 90.3626 78.9291C88.4342 80.3204 87.6077 82.5465 85.6792 83.9377C92.5666 84.216 99.1785 83.9377 106.066 83.6595C105.79 83.103 105.239 82.5465 105.239 81.99C104.688 78.9291 105.515 76.1466 108.27 73.9205C108.821 73.364 109.372 73.0858 110.198 72.8075C111.576 72.5293 112.678 72.251 113.78 71.6945C115.157 71.138 116.259 71.6945 117.637 71.6945C118.739 71.6945 119.565 71.9727 120.667 71.9727C121.494 71.9727 122.045 72.251 122.596 72.5293C124.524 73.6423 125.902 75.3118 127.004 76.9814C127.555 77.8161 128.657 78.6509 128.657 79.7639C128.106 81.99 128.106 84.7725 126.177 86.442C130.034 87.2768 151.798 86.442 154.002 85.6073C153.176 84.7725 152.625 83.9377 151.798 83.103C150.696 81.7117 149.319 80.5987 147.115 80.8769C146.288 80.8769 145.737 81.1552 144.911 81.1552C143.533 81.1552 142.431 81.4334 141.054 81.4334C139.401 81.1552 138.023 80.8769 136.37 80.5987C134.717 80.3204 133.34 79.4857 132.789 77.8161C132.513 76.9814 132.238 76.4248 131.687 75.5901C130.31 73.364 128.932 71.138 129.483 68.3554C129.759 66.9641 129.483 65.2946 131.412 64.4598C131.962 64.1816 131.687 64.1816 131.412 63.9033C130.585 63.0686 129.759 62.2338 128.657 61.399ZM236.1 45.5385C237.202 45.5385 237.753 44.9819 237.202 43.8689C236.1 41.6429 235.273 39.1386 233.896 36.9125C232.518 34.6865 230.59 33.017 228.662 31.3474C224.805 28.2866 221.223 25.2258 216.815 22.4432C213.785 20.4954 210.479 19.1042 207.448 17.4346C205.52 16.3216 203.316 15.2086 201.112 14.3738C197.53 13.2608 193.674 12.1478 189.817 11.313C186.511 10.4782 183.205 10.7565 179.623 10.4782C177.419 10.2 175.491 10.2 173.838 8.53044C173.562 8.25219 173.011 8.25219 172.46 8.8087C171.909 9.08696 171.358 9.64347 171.358 10.2C171.358 10.7565 172.185 10.7565 172.736 10.7565C175.766 11.5913 178.797 12.1478 181.827 12.9825C182.929 13.2608 183.756 12.9825 184.858 12.1478C184.858 12.1478 185.409 12.1478 185.409 12.426C188.439 14.3738 191.745 14.6521 194.776 16.0434C196.704 16.8781 198.632 17.7129 200.285 19.1042C202.765 20.7737 205.244 22.7215 207.724 24.1128C209.377 24.391 210.203 24.9475 211.03 25.7823C212.132 26.8953 213.509 28.0083 214.887 28.8431C215.989 29.3996 217.091 29.9561 217.917 31.0692C220.121 33.8517 222.325 36.6343 223.152 40.2516C223.427 40.8081 223.427 41.6429 224.529 41.9211C224.805 41.9211 225.08 42.4776 225.08 42.7559C225.356 43.8689 226.733 44.7037 227.56 44.4254C230.039 43.5907 232.518 44.1472 234.722 45.2602C235.273 45.2602 235.824 45.2602 236.1 45.5385ZM3.58145 44.9819C5.78541 44.1472 11.0198 44.7037 12.9483 44.9819C13.7748 44.9819 14.6013 45.5385 15.1523 44.7037C15.7033 44.1472 16.5297 43.8689 16.8052 43.0342C18.1827 39.1386 21.7642 35.7995 23.9681 32.4604C24.7946 31.0692 28.3761 29.9561 29.7535 28.8431C31.4065 27.4518 33.0595 26.0606 34.7125 24.391C36.9164 22.4432 39.1204 20.4954 41.5999 18.8259C41.8754 18.8259 41.8754 18.5477 42.1509 18.5477C44.0793 17.9911 45.7323 18.2694 47.3853 17.4346C47.6608 17.1564 48.4873 17.1564 48.2118 16.5999C47.9363 16.0433 47.6608 15.2086 46.8343 14.9303C44.9058 14.3738 43.2528 14.3738 41.3244 15.2086C40.4979 15.4868 39.6714 16.0433 38.8449 16.3216C34.7125 17.7129 31.131 18.2694 28.1006 21.052C27.8251 21.3302 24.2436 21.8867 23.6926 22.165C20.6622 24.1128 16.8052 26.0606 14.8768 29.1214C13.2238 31.9039 9.64235 32.7387 7.43839 35.243C6.8874 35.7995 6.3364 36.356 6.3364 37.1908C6.3364 38.3038 5.78541 39.1386 5.23442 39.9733C4.40793 40.8081 4.13244 41.9211 3.58145 42.7559C3.30595 43.3124 4.13244 44.1472 3.58145 44.9819ZM40.7734 50.2688C40.2224 50.5471 39.1204 49.9905 39.3959 51.1036C39.6714 52.2166 40.4979 53.0514 41.3244 53.8861C43.5283 55.8339 44.9058 56.3904 47.6608 57.2252C48.7628 57.5035 51.5177 58.06 52.3442 57.7817C54.2727 57.2252 56.4766 56.9469 58.4051 56.1122C60.0581 55.2774 61.7111 54.4426 63.0885 53.3296C63.364 53.0514 63.6395 52.7731 64.1905 53.0514C64.7415 53.0514 65.017 52.7731 65.017 52.2166C65.568 49.7123 63.915 48.321 62.5376 46.6515C61.7111 45.8167 60.6091 46.6515 59.7826 46.6515H59.5071C55.6502 47.208 52.0687 47.7645 48.2118 48.321C46.5588 48.5993 45.1813 49.1558 43.5283 49.1558C42.9773 49.1558 42.4264 49.1558 42.9773 49.9905C43.2528 50.2688 42.9773 50.5471 42.7019 50.5471C42.4264 50.8253 41.8754 50.8253 41.8754 50.5471C41.5999 49.9905 41.0489 49.9905 40.7734 50.2688ZM107.719 78.9291C107.719 80.3204 107.719 80.3204 108.545 81.99C109.372 83.6595 110.749 84.216 112.678 83.6595C112.953 83.6595 113.229 83.6595 113.229 83.6595C114.055 84.4943 114.606 83.9377 115.433 83.6595C116.259 83.103 116.535 83.3812 116.535 84.216C116.535 84.4943 116.535 84.4943 116.81 84.7725C119.014 85.329 121.218 86.442 123.422 86.442C124.249 86.442 125.075 86.7203 124.8 85.6073L125.075 85.329C126.177 84.4943 125.902 83.3812 125.626 82.2682C124.8 80.5987 124.249 78.9291 123.147 77.5379C122.32 76.4248 121.769 75.0336 120.116 74.477C118.739 74.1988 117.086 73.6423 115.708 73.364C115.157 73.364 114.882 73.364 114.331 73.364C112.953 73.6423 111.3 74.1988 109.923 74.7553C109.647 74.7553 109.372 75.0336 109.372 75.3118C108.545 76.1466 107.443 77.5379 107.719 78.9291ZM49.0383 12.1478C50.4157 12.426 51.2422 12.9825 51.7932 13.8173C52.0687 14.0956 52.3442 14.3738 52.6197 14.3738C53.7217 13.8173 55.3747 13.539 56.4766 12.7043C57.0276 12.1478 57.8541 11.5913 58.9561 11.313C61.4356 10.7565 63.915 10.4782 66.119 9.36521C69.7004 7.69568 74.9349 7.13917 78.7918 6.3044C80.7203 6.02614 82.6487 6.3044 84.3017 6.02614C86.7812 5.46963 88.9852 5.46963 91.4646 5.74789C93.9441 5.74789 96.4235 6.02614 98.6275 5.46963C100.28 5.19138 101.933 4.63486 103.586 4.35661C106.892 3.8001 109.923 3.52184 113.229 2.96533C113.78 2.96533 113.78 2.40882 113.78 2.13056C114.055 1.57405 113.504 1.85231 113.229 1.85231C112.127 1.57405 111.025 1.57405 110.198 1.57405C108.545 1.57405 106.892 1.85231 105.515 1.85231C102.484 1.85231 99.7295 2.13056 96.9745 2.13056C93.3931 2.40882 90.0871 2.40882 86.7812 3.52184C82.6487 4.63486 78.5163 5.19138 74.3839 5.46963C70.8024 5.46963 66.3945 7.13917 62.813 7.97393C62.5375 7.97393 62.5376 8.25219 62.2621 8.25219C59.7826 9.36521 57.5786 10.2 54.8237 10.4782C52.6197 10.7565 50.9667 11.0347 49.0383 12.1478ZM169.43 7.97393C167.501 7.69568 165.573 7.97393 163.92 7.41742C160.063 6.58266 156.206 5.74789 152.625 5.19138C149.87 4.63486 146.839 4.63487 144.084 4.63487C138.85 4.35661 133.615 3.52184 128.106 3.52184C127.004 3.52184 126.177 3.24359 125.075 3.24359C122.596 2.96533 120.116 2.13056 117.361 2.13056C117.086 2.13056 116.535 1.85231 116.259 2.40882C116.259 2.96533 116.535 3.24359 116.81 3.52184C117.637 4.07835 119.014 4.35661 119.841 4.91312C121.769 6.02614 123.698 6.02614 125.626 5.74789C128.657 5.46963 131.412 5.74789 134.166 6.02614C134.717 6.02614 135.268 6.02614 135.819 6.3044C136.921 7.13917 138.023 7.13917 139.401 7.13917C144.36 7.13917 149.043 7.41742 154.002 8.25219C155.104 8.53045 155.931 8.8087 157.033 8.8087C159.237 8.53045 161.441 9.36521 163.645 9.92172C164.747 10.2 165.848 10.4782 166.95 10.4782C168.328 9.92172 168.603 8.8087 169.43 7.97393ZM96.4235 33.8517C95.0461 33.2952 93.3931 32.4604 92.0156 31.9039C91.4646 31.6257 91.1891 31.3474 90.6381 32.1822C90.3626 32.4604 89.8116 32.4604 89.8116 31.9039C89.8116 31.3474 89.5361 31.3474 88.9851 31.0692C87.3322 30.2344 85.6792 30.2344 84.0262 29.6779C83.7507 29.6779 83.4752 29.3996 83.1997 29.6779C82.9242 29.9561 83.4752 30.2344 83.7507 30.2344C84.0262 30.2344 84.3017 30.5126 84.0262 31.0692C84.0262 31.3474 83.7507 31.3474 83.4752 31.3474C83.1997 31.3474 82.9242 31.3474 82.6487 30.7909C82.6487 30.5126 82.6487 30.2344 82.3732 30.2344C79.8938 29.9561 77.6898 30.5126 75.4859 31.9039C74.3839 32.4604 73.8329 33.2952 73.2819 34.4082C73.0064 35.243 73.2819 35.5213 74.1084 35.7995C77.6898 36.9125 81.2713 37.1908 85.1282 36.356C87.3322 36.0778 89.2606 35.5213 91.4646 35.5213C93.1176 35.5213 94.7706 34.9647 96.4235 33.8517ZM107.443 36.6343C107.168 36.6343 107.168 36.356 106.892 36.356C104.688 35.243 102.484 35.243 100.28 34.9647C98.903 34.6865 97.801 34.6865 96.699 35.5213C94.4951 37.1908 92.2911 38.0256 89.5361 38.3038C87.6077 38.5821 85.9547 38.3038 84.0262 38.3038C81.2713 38.5821 78.7918 38.8603 76.0368 38.5821C73.8329 38.3038 73.8329 38.3038 73.8329 40.5299C73.8329 41.9211 74.9349 42.7559 76.3123 42.1994C77.6898 41.6429 79.0673 41.3646 80.4448 41.6429C81.8223 41.9211 83.1997 41.6429 84.5772 41.3646C89.5361 40.2516 94.4951 39.1386 99.454 38.8603C101.933 38.8603 104.688 37.7473 107.443 36.6343ZM190.092 48.0428C189.817 47.7645 189.541 48.0428 189.266 48.0428C187.062 48.5993 184.582 48.8775 182.378 48.8775C180.45 48.8775 179.072 49.434 177.419 50.2688C176.042 51.1036 176.317 51.9383 177.419 52.7731C178.246 53.3296 179.072 53.3296 179.899 53.6079C182.103 54.9991 184.307 55.8339 187.062 56.1122C190.368 56.3904 193.674 57.2252 196.98 56.9469C199.183 56.6687 200.836 56.1122 202.489 54.7209C203.04 54.1644 203.316 53.0514 202.765 52.7731C201.938 52.4948 201.387 51.6601 200.561 51.3818C199.183 50.5471 197.255 50.5471 195.878 49.7123C196.429 51.1036 195.327 51.3818 194.225 51.6601C195.602 51.6601 196.704 51.9383 197.806 51.9383C198.908 51.9383 200.01 52.7731 200.01 53.8861C200.285 54.9991 199.459 55.5557 198.357 55.8339C196.704 56.3904 194.776 56.3904 193.123 55.5557C191.745 54.7209 190.643 53.8861 188.99 53.8861C188.715 53.8861 188.439 53.6079 188.439 53.3296C188.439 53.6079 188.439 53.6079 188.439 53.8861C188.439 54.7209 187.888 55.2774 187.062 55.2774C185.96 55.5557 185.133 55.2774 184.307 54.7209C184.031 54.4426 184.031 54.1644 184.031 53.8861C184.307 53.0514 186.786 51.6601 187.613 51.6601C187.888 51.6601 188.164 51.6601 188.439 51.9383C189.266 52.4949 190.643 52.4949 191.47 51.9383C190.643 51.6601 189.817 51.3818 188.99 51.3818C187.337 50.8253 187.337 50.5471 188.439 49.434C189.266 48.8775 189.541 48.5993 190.092 48.0428ZM147.39 78.9291C146.013 78.0944 145.186 76.7031 144.084 75.5901C142.982 74.7553 142.431 73.364 140.778 72.5293C140.778 73.0858 140.778 73.6423 140.778 73.9205C140.778 75.3118 139.676 76.7031 138.299 76.7031C136.646 76.7031 135.819 75.5901 135.819 73.9205C135.819 72.5293 136.37 71.4162 136.921 70.3032C137.197 69.7467 137.197 69.4684 136.646 69.1902C136.095 68.9119 135.819 69.4684 135.819 69.7467C135.544 70.3032 135.268 70.8597 134.442 71.4162C134.166 71.6945 133.615 71.6945 133.064 71.6945C132.513 71.4162 132.513 71.138 132.513 70.5815C132.513 69.7467 132.513 68.9119 133.34 68.3554C134.993 67.2424 133.891 66.6859 133.064 65.8511C133.064 65.5729 132.789 65.5729 132.789 65.2946C132.513 64.4598 131.962 65.0164 131.687 65.2946C130.861 66.1294 130.861 67.5207 130.861 68.3554C130.861 69.4684 130.585 70.5815 131.412 71.6945C132.513 73.364 133.615 75.0336 134.166 76.7031C134.442 77.8161 135.268 78.3726 136.37 78.6509C137.472 78.9291 138.85 78.9291 139.952 79.2074C140.503 79.4857 141.329 79.4857 141.88 79.4857C143.809 79.4857 145.462 79.2074 147.39 78.9291ZM92.8421 56.6687C92.5666 56.3904 92.2911 56.3904 92.2911 56.3904C90.3626 54.7209 90.6381 54.1644 92.8421 53.0514C93.1176 53.0514 93.3931 52.7731 93.6686 52.7731C94.7706 52.2166 95.5971 52.4948 96.148 53.6079C96.9745 52.4948 97.801 51.6601 98.6275 50.5471C97.5255 50.5471 97.25 49.9905 97.25 49.434C97.25 48.5993 97.801 48.321 98.6275 48.0428C99.1785 47.7645 99.7295 47.7645 100.28 48.321C100.556 48.321 100.556 48.5993 100.831 48.5993C101.382 48.0428 102.484 47.4862 102.484 46.9297C102.76 46.3732 101.382 46.095 100.831 45.8167C100.556 45.5385 100.005 45.5385 99.7295 46.095C99.1785 46.6515 98.6275 46.6515 98.0765 46.9297C96.9745 47.208 96.148 47.7645 95.0461 48.0428C93.1176 48.8775 92.2911 50.5471 90.9136 51.9383C89.5361 53.3296 89.2606 54.9991 88.7097 56.6687C88.4342 57.5035 89.5361 59.173 90.3626 59.173C91.4646 59.173 92.0156 58.3382 91.7401 57.5035C92.0156 56.6687 92.2911 56.6687 92.8421 56.6687ZM139.401 42.7559C139.676 43.5907 140.503 43.0342 141.054 43.5907C144.36 46.3732 148.768 46.6515 152.9 46.9297C154.278 46.9297 155.655 46.6515 157.033 46.9297C158.135 46.9297 158.961 46.6515 159.788 46.3732C160.063 46.3732 160.339 46.095 160.063 45.8167C159.788 45.5385 159.788 45.2602 160.339 44.9819C160.614 44.7037 161.165 44.9819 161.165 45.2602C161.441 46.3732 161.992 45.5385 162.267 45.5385C162.818 45.5385 163.094 44.9819 163.369 44.4254C163.369 44.1472 163.094 44.1472 163.094 44.1472C161.992 44.1472 161.165 43.8689 160.063 43.8689C157.584 43.5907 154.829 43.5907 152.349 43.3124C150.972 43.3124 149.319 42.4776 148.492 44.4254C148.492 44.7037 147.941 44.7037 147.666 44.7037C147.39 44.7037 147.115 44.4254 147.115 44.1472C147.115 43.5907 147.666 43.5907 147.666 43.0342C144.36 42.7559 141.88 42.4776 139.401 42.7559ZM151.247 70.025C151.247 68.9119 151.247 68.0772 151.523 67.5207C152.625 65.2946 151.798 63.3468 151.247 61.399C150.696 59.7295 149.594 58.06 147.666 57.7817C144.911 57.2252 141.88 56.6687 139.401 58.6165C139.952 59.173 140.778 59.4512 141.605 60.0078C141.88 60.286 141.88 60.0078 142.156 59.7295C142.707 58.8947 144.635 58.6165 145.737 59.4512C146.839 60.0078 146.564 60.8425 146.288 61.9555C146.288 62.2338 146.013 62.5121 146.013 62.7903C145.462 63.3468 146.013 63.6251 146.288 63.9033C146.564 64.1816 147.115 64.1816 147.39 63.6251C147.666 63.3468 147.941 63.0686 148.492 62.7903C149.319 62.2338 149.87 62.5121 150.145 63.3468C150.696 64.7381 150.696 65.2946 148.768 66.6859C149.594 67.7989 150.421 68.9119 151.247 70.025ZM39.3959 48.0428C40.4979 47.7645 41.5999 47.208 42.7019 47.208C46.0078 46.6515 49.3138 46.3732 52.6197 46.095C53.7217 45.8167 55.3747 46.3732 55.6502 44.7037L55.9256 44.4254C53.4462 43.8689 51.5177 42.7559 49.0383 42.4776C49.0383 43.0342 49.8647 43.0342 49.5892 43.5907C49.3138 43.8689 49.0383 43.5907 48.7628 43.5907C48.2118 43.3124 48.2118 42.7559 48.7628 42.4776C45.7323 41.9211 41.0489 44.7037 39.3959 48.0428ZM103.311 58.8947C103.035 59.173 102.484 59.4512 102.484 60.0078C102.76 60.5643 103.311 60.286 103.862 60.5643C104.137 60.5643 104.137 60.5643 104.413 60.5643C105.79 60.8425 106.341 62.2338 105.79 63.0686C105.239 63.9033 104.413 64.7381 103.311 65.0164C101.933 65.5729 101.107 65.2946 100.831 63.9033C100.831 63.6251 100.831 63.3468 100.28 63.0686C99.1785 64.4598 99.1785 64.4598 100.28 65.8511L100.556 66.1294C101.107 66.9641 101.933 67.2424 102.76 66.9641C103.862 66.6859 104.964 66.1294 106.066 65.2946C107.994 63.0686 109.096 60.5643 109.923 57.7817C110.474 55.8339 110.198 53.8861 109.096 51.9383C108.821 51.3818 108.545 51.3818 107.994 51.9383C107.443 52.7731 106.892 53.3296 106.341 54.1644C108.821 54.4426 108.27 56.3904 108.545 57.7817C108.821 58.6165 108.27 59.173 107.443 59.4512C106.341 59.7295 104.964 60.5643 103.311 58.8947ZM156.482 80.8769C156.482 81.99 157.033 82.5465 157.859 82.8247C158.961 83.103 159.788 83.9377 160.614 84.7725C160.89 85.329 161.441 86.1638 161.716 86.7203C162.267 87.5551 164.196 88.1116 164.746 87.8333C165.848 87.2768 166.399 85.8855 165.848 85.0508C164.196 81.99 161.165 80.5987 157.859 79.2074C157.584 79.2074 157.308 78.9291 157.033 79.4857C156.757 79.7639 156.482 80.3204 156.482 80.8769ZM215.989 44.1472C215.438 39.6951 211.856 36.9125 206.897 38.0256C204.693 38.5821 202.765 39.6951 200.836 41.0864C200.561 41.3646 200.285 41.3646 200.285 41.6429C200.285 41.9211 200.836 41.9211 201.112 42.1994C201.387 42.4776 201.663 41.9211 201.663 41.9211C202.214 40.8081 203.04 40.5299 204.142 40.2516C205.795 39.9733 207.173 39.6951 208.826 39.9733C211.03 40.2516 212.683 41.0864 213.509 43.0342C213.785 43.5907 213.785 44.4254 214.336 44.9819C214.611 45.2602 214.611 45.8167 214.887 45.8167C215.438 45.8167 215.713 45.2602 215.713 44.9819C215.989 44.7037 215.989 44.4254 215.989 44.1472ZM140.503 16.8781C140.778 16.8781 140.778 16.8781 140.778 16.8781C142.707 14.3738 144.911 14.3738 146.839 16.5999C147.666 17.4346 148.217 17.4346 149.043 16.8781C150.421 15.7651 151.798 16.0434 152.9 17.4346C153.176 17.7129 153.451 16.8781 153.727 17.1564C154.278 17.7129 154.553 16.8781 155.104 16.8781C155.38 16.8781 155.931 17.9911 155.655 17.4346C155.38 16.3216 154.002 15.2086 152.9 15.2086C151.798 15.2086 150.696 15.4868 149.594 16.0434C148.768 16.5999 148.217 16.3216 147.941 15.2086C147.941 14.3738 147.666 13.8173 146.839 13.539C145.462 12.7043 144.084 12.7043 142.707 13.539C141.605 14.0956 140.227 14.9303 140.503 16.8781ZM115.984 56.9469C114.606 58.8947 114.331 61.6773 115.433 63.3468C115.984 64.1816 116.81 64.4598 117.637 63.9033C119.565 62.7903 120.667 63.6251 121.769 65.0164C122.045 65.2946 122.32 65.5729 122.596 65.8511C124.249 66.1294 126.728 64.7381 127.004 63.0686C125.075 63.9033 123.422 64.1816 121.769 62.7903C121.494 62.5121 120.943 62.2338 120.392 62.5121C118.463 63.3468 116.81 62.7903 116.259 60.5643C115.984 59.4512 115.984 58.3382 115.984 56.9469ZM96.9745 31.3474C98.0765 32.1822 98.6275 31.6257 98.6275 30.5126C98.6275 29.9561 98.903 29.6779 99.454 29.6779C100.005 29.6779 99.7295 29.3996 99.7295 29.1214C99.1785 28.0083 98.352 27.7301 97.25 27.7301C95.597 27.4518 93.9441 28.0083 92.2911 27.7301C90.3626 27.4518 88.4342 27.7301 86.5057 28.0083C87.8832 28.5649 89.2606 28.8431 90.3626 29.3996C90.6381 28.2866 90.6381 28.0083 90.9136 28.2866C91.1891 28.2866 91.7401 28.2866 91.7401 29.1214C91.7401 30.2344 92.2911 30.5126 93.6686 30.5126C93.9441 30.5126 94.4951 30.5126 94.4951 30.7909C95.0461 31.0692 95.8725 31.0692 96.9745 31.3474C96.148 30.2344 96.4235 29.6779 97.25 29.1214C97.5255 28.8431 97.801 29.1214 98.0765 29.6779C98.352 30.5126 98.0765 31.0692 96.9745 31.3474ZM84.8527 18.8259C85.4037 17.4346 84.5772 16.5999 83.4752 16.0434C81.5468 14.9303 78.5163 15.4868 76.8633 16.8781C76.3123 17.4346 75.7614 17.7129 74.9349 17.1564C74.1084 16.5999 73.0064 16.5999 71.9044 16.5999C69.9759 16.5999 66.9455 17.9911 68.0475 19.3824C69.1495 16.5999 72.4554 15.7651 74.9349 17.1564C75.7614 17.7129 76.3123 17.4346 76.8633 16.8781C76.8633 16.3216 82.6487 16.0433 83.1997 16.5999C84.0262 17.1564 84.3017 17.9911 84.8527 18.8259ZM137.197 33.0169C135.819 33.2952 134.442 33.2952 133.064 33.8517C132.513 34.13 132.238 34.6865 131.687 34.6865C130.31 34.6865 128.932 35.243 128.106 36.356C127.83 36.6343 127.279 36.9125 127.83 37.1908C128.106 37.469 128.657 37.1908 128.932 37.1908C131.136 36.356 133.615 35.7995 136.095 35.243C136.921 35.243 137.472 34.6865 138.023 34.4082C138.299 34.13 138.574 33.8517 138.299 33.5735C138.023 32.7387 137.472 33.0169 137.197 33.0169ZM110.474 11.5913C108.545 12.7043 107.719 14.3738 107.994 16.3216C108.27 17.4346 109.096 16.5999 110.198 16.3216C111.025 16.0433 111.576 16.3216 112.127 16.8781C112.678 17.4346 113.504 17.7129 114.331 17.9911C114.606 17.7129 114.606 17.1564 114.331 17.1564C113.504 16.8781 112.953 16.8781 111.576 17.1564C110.749 17.4346 109.923 16.5999 109.647 15.7651C109.372 15.2086 109.372 14.6521 109.923 14.0956C110.749 13.539 111.3 13.539 112.402 13.8173C113.504 14.0956 114.606 14.6521 114.606 16.0434C114.606 15.2086 114.606 14.6521 114.606 14.0956C114.606 13.2608 114.606 12.9825 113.504 13.2608C112.127 14.0956 111.025 13.539 110.474 11.5913ZM91.4646 17.1564C90.9136 17.1564 90.6381 17.1564 90.0871 17.1564C88.9852 17.1564 88.4342 16.5999 88.4342 17.4346C88.4342 18.2694 88.9851 18.5477 89.8116 18.8259C90.3626 18.8259 90.9136 19.1042 91.4646 18.8259C92.2911 18.8259 93.1176 18.8259 94.2196 18.8259C95.5971 18.8259 96.9745 19.1042 98.352 18.5477C96.9745 18.5477 95.8725 18.5477 95.0461 18.2694C93.6686 17.7129 92.0156 18.5477 90.6381 17.7129C90.3626 17.7129 89.8116 17.9911 89.8116 17.4346C89.8116 16.8781 90.0871 16.5999 90.6381 16.5999C91.4646 16.8781 91.1891 17.4346 91.4646 17.1564ZM79.8938 45.8167C78.7918 44.1472 78.5163 44.1472 77.4143 45.2602C75.7614 46.9297 74.1084 46.9297 72.7309 45.5385C72.7309 46.3732 73.0064 47.208 73.8329 47.4862C74.6594 47.7645 75.7613 48.0428 76.8633 47.7645C77.4143 47.7645 77.9653 47.4862 77.9653 46.9297C77.9653 46.095 78.5163 45.5385 79.8938 45.8167ZM157.584 18.2694C158.41 18.2694 158.961 18.2694 159.237 18.2694C160.89 18.2694 161.992 18.8259 162.818 20.2172C163.094 20.4954 163.094 21.052 163.369 20.7737C163.645 20.7737 164.196 20.2172 164.196 19.9389C164.471 19.1042 164.196 18.5477 163.369 18.2694C162.267 17.1564 159.237 17.1564 157.584 18.2694ZM195.327 58.6165C191.745 58.6165 188.439 57.5035 184.858 57.5035C185.96 58.8947 193.398 59.4512 195.327 58.6165ZM206.897 48.8775C205.52 48.321 204.418 48.5993 203.04 48.8775C202.489 49.1558 202.214 49.1558 202.765 49.7123C204.142 51.3818 206.071 51.1036 206.897 48.8775ZM103.862 58.6165C104.688 58.8947 105.515 58.6165 106.066 58.3382C107.443 58.06 107.719 57.7817 107.443 56.3904C107.168 55.5557 106.892 55.2774 106.066 55.8339C104.964 56.6687 104.413 57.7817 103.862 58.6165ZM195.878 36.356C198.081 37.469 200.836 37.469 202.214 36.6343C201.387 36.356 200.836 35.5213 199.734 35.7995C198.632 35.7995 197.255 36.0778 195.878 36.356ZM32.784 42.7559C33.886 41.3646 35.2635 40.2516 36.6409 39.1386C35.539 39.1386 34.988 38.5821 34.1615 38.3038C33.886 39.6951 32.5085 40.8081 32.784 42.7559ZM67.4965 26.0606C66.119 25.2258 66.119 25.2258 65.2925 23.5563C65.017 22.9997 64.7415 23.278 64.1905 22.9997C63.915 22.7215 63.6395 22.9997 63.6395 23.278C63.6395 24.1128 63.364 24.9475 64.1905 25.7823C65.2925 26.3388 66.67 26.6171 67.4965 26.0606ZM197.53 65.0164C198.081 65.0164 198.357 65.0164 198.632 65.0164C199.734 65.0164 200.561 64.4598 200.836 63.6251C201.112 62.7903 200.285 62.2338 199.459 61.9555C198.908 61.6773 198.632 61.6773 198.632 62.5121C199.183 63.3468 198.632 64.1816 197.53 65.0164ZM210.754 41.9211C210.203 43.8689 209.377 44.9819 207.999 46.095C209.101 46.095 209.928 45.5385 210.754 44.9819C212.407 44.1472 212.407 43.8689 211.305 42.4776C211.03 42.4776 211.03 42.1994 210.754 41.9211ZM67.4965 38.8603C66.119 41.0864 66.119 41.9211 67.772 42.7559C68.0475 43.0342 69.7004 43.0342 69.9759 43.0342C70.2514 42.7559 69.9759 42.4776 69.9759 42.4776C69.7004 41.0864 68.0475 39.9733 67.4965 38.8603ZM125.626 26.8953C126.177 27.4518 127.004 28.2866 127.555 28.8431C127.83 29.1214 128.106 29.1214 128.657 28.8431C129.208 28.5649 128.932 28.2866 128.657 28.0083C127.555 26.0606 127.555 26.0606 125.626 26.8953ZM33.0595 43.0342C34.1615 44.4254 34.437 44.4254 35.2635 43.0342C35.539 42.4776 36.09 41.6429 36.6409 40.8081C34.988 41.3646 34.1615 42.4776 33.0595 43.0342ZM117.637 16.0434C117.912 16.5999 116.81 16.5999 118.188 16.8781C119.014 17.1564 119.565 17.7129 119.841 17.1564C119.841 16.0433 118.188 16.5999 117.637 16.0434ZM206.897 44.9819C207.999 44.1472 208.55 43.3124 209.101 42.4776C209.377 42.1994 209.652 41.9211 209.101 41.9211C208.826 41.9211 207.999 41.6429 207.724 41.9211C207.724 42.7559 207.173 43.5907 206.897 44.9819ZM135.268 31.6257C132.513 30.2344 132.513 30.2344 130.861 30.5126C132.789 31.6257 133.615 31.9039 135.268 31.6257ZM82.0978 43.5907C84.0262 44.7037 85.1282 44.7037 85.9547 43.0342C84.5772 43.3124 83.1997 43.0342 82.0978 43.5907ZM137.748 47.4862C136.921 47.208 136.37 47.4862 135.819 47.4862C135.268 47.4862 135.268 47.7645 134.993 48.0428C134.993 48.321 134.993 48.8775 135.268 48.8775C135.544 49.1558 135.819 48.8775 136.37 48.8775C136.921 48.321 137.197 47.7645 137.748 47.4862ZM117.912 14.6521C118.739 14.6521 119.29 14.6521 119.841 14.9303C120.392 15.2086 120.667 14.9303 120.943 14.6521C121.218 14.3738 120.943 14.0956 120.943 14.0956C120.667 13.8173 120.392 12.9825 119.565 13.539C119.29 13.8173 118.463 13.8173 117.912 14.6521ZM43.2528 23.5563C42.1509 24.391 41.0489 25.2258 39.9469 26.3388C43.2528 25.2258 43.2528 25.504 43.2528 23.5563ZM93.6686 56.1122C93.9441 55.5557 94.4951 55.2774 94.7706 54.9991C95.3216 54.4426 94.7706 54.1644 94.4951 54.1644C93.9441 54.1644 93.3931 54.4426 92.8421 54.7209C92.2911 54.9992 92.8421 55.2774 93.1176 55.5557C93.1176 55.5557 93.3931 55.8339 93.6686 56.1122ZM190.092 68.3554C188.439 68.0772 187.062 67.5207 186.786 65.2946C186.235 67.5207 187.888 68.9119 190.092 68.3554ZM43.2528 57.5035C41.8754 56.6687 41.8754 56.1122 40.4979 54.9991C41.3244 56.9469 41.5999 57.5035 43.2528 57.5035ZM193.398 49.9905C192.021 48.8775 191.47 48.8775 190.368 49.7123C191.194 50.2688 192.021 50.8253 193.398 49.9905ZM134.166 29.6779C134.993 29.9561 135.819 30.2344 136.646 30.5126C136.095 28.5649 136.095 28.5649 134.166 29.6779ZM205.244 44.4254C205.52 43.5907 205.795 43.0342 206.071 42.1994C206.071 41.9211 206.622 41.6429 206.071 41.3646C205.795 41.3646 205.244 41.3646 205.244 41.9211C205.244 42.7559 205.244 43.3124 205.244 44.4254ZM157.584 18.5477C156.482 18.2694 155.38 18.5477 154.553 18.8259C154.278 19.1042 154.002 19.1042 154.278 19.3824C154.278 19.6607 154.553 19.3824 154.829 19.3824C155.655 19.1042 156.482 18.8259 157.584 18.5477ZM37.4674 42.1994C37.4674 42.1994 37.1919 42.1994 37.4674 42.1994C36.9164 42.7559 36.3654 43.5907 35.8145 44.4254C35.539 44.7037 35.8145 44.9819 36.09 44.9819C36.3654 45.2602 36.6409 44.9819 36.6409 44.7037C36.9164 43.8689 37.1919 43.0342 37.4674 42.1994ZM40.2224 39.9733C41.0489 39.9733 41.8754 40.2516 42.7019 39.9733C43.2528 39.6951 42.9773 39.4168 42.9773 39.1386C42.9773 38.5821 42.7019 39.1386 42.4264 39.1386C41.5999 39.1386 41.0489 39.6951 40.2224 39.9733ZM103.035 63.9033C103.862 63.6251 104.137 63.0686 104.688 62.5121C104.964 62.2338 104.688 61.9555 104.413 61.9555C103.586 61.6773 103.035 61.9555 103.035 62.7903C103.035 63.0686 103.035 63.3468 103.035 63.9033ZM117.361 12.7043C117.912 12.1478 118.463 11.5913 118.739 11.0347C117.361 11.0347 117.361 11.5913 117.361 12.7043ZM143.809 60.5643C143.533 60.5643 142.982 60.5643 142.982 60.8425C142.982 61.1208 143.533 61.399 144.084 61.6773C144.36 61.6773 144.36 61.399 144.36 61.1208C144.635 60.286 144.084 60.5643 143.809 60.5643ZM197.255 54.4426C197.806 54.4426 198.357 54.4426 198.632 53.8861C198.632 53.6079 198.357 53.3296 197.806 53.3296C196.98 53.3296 197.53 54.1644 197.255 54.4426ZM139.401 74.7553C139.401 74.1988 139.401 73.6423 139.125 73.0858C138.023 74.1988 138.023 74.1988 139.401 74.7553ZM114.055 11.8695C113.504 11.5913 112.953 11.313 112.402 11.313C112.127 11.313 112.127 11.8695 112.402 12.1478C112.678 12.426 113.229 12.426 114.055 11.8695ZM193.674 53.6079C194.225 54.4426 195.327 54.1644 196.153 54.4426C194.776 53.6079 194.776 53.6079 193.674 53.6079ZM203.591 44.1472C203.591 43.8689 203.591 43.3124 203.591 43.0342C203.591 42.7559 204.142 41.9211 203.591 41.9211C202.765 41.9211 203.316 42.4776 203.316 43.0342C203.316 43.0342 203.316 43.3124 203.04 43.3124C203.04 43.8689 203.316 43.8689 203.591 44.1472ZM138.023 72.251C139.125 71.4162 139.125 71.138 138.574 70.5815C138.299 71.138 138.023 71.6945 138.023 72.251ZM148.768 64.4598C148.217 64.4598 147.941 64.7381 147.666 64.7381C147.39 64.7381 147.115 64.7381 147.115 65.0164C147.115 65.2946 147.666 65.2946 147.941 65.2946C148.217 65.2946 148.768 65.0164 148.768 64.4598ZM58.9561 45.2602C58.6806 44.7037 58.1296 44.7037 57.5786 44.7037C57.0276 44.4254 57.0276 44.9819 57.0276 45.2602C57.0276 45.5385 57.3031 45.5385 57.3031 45.5385C57.8541 45.2602 58.4051 45.2602 58.9561 45.2602ZM112.678 15.2086C112.127 15.4868 111.576 14.9303 111.3 15.4868C111.3 15.7651 111.3 15.7651 111.576 16.0434C112.127 16.0434 112.402 15.7651 112.678 15.2086Z" fill="#060606"></path> <path d="M110.379 52.0662C109.645 52.0662 108.912 52.4332 108.545 51.6991C108.545 51.3321 108.545 50.9651 108.912 50.9651C109.645 50.9651 110.012 51.6991 110.379 52.0662Z" fill="#060606"></path> <path d="M227.381 42.8904C227.748 42.5234 228.115 42.5234 228.115 42.8904C228.115 43.2574 227.748 43.2574 227.748 43.2574C227.381 43.2574 227.381 43.2574 227.381 42.8904Z" fill="#FAFAFA"></path> <path d="M178.6 96.8435L178.233 96.4765C178.6 96.1095 178.967 96.4765 178.6 96.8435C178.6 96.8435 178.967 96.8435 178.6 96.8435Z" fill="#FAFAFA"></path> <path d="M122.85 9.12423L122.483 8.7572C122.85 8.7572 122.85 8.7572 122.85 9.12423Z" fill="#FAFAFA"></path> <path d="M49.8607 95.7419C50.2274 96.109 49.8607 96.109 49.8607 95.7419C49.8607 96.109 49.8607 95.7419 49.8607 95.7419Z" fill="#FAFAFA"></path> <path d="M150.725 56.1036C150.725 56.1036 150.358 55.7366 150.725 55.7366C150.725 55.7366 150.725 55.7366 150.725 56.1036Z" fill="#FAFAFA"></path> <path d="M45.4592 95.3752C45.0924 95.0082 45.0924 95.0082 45.4592 95.3752C45.0924 95.0082 45.0924 95.0082 45.4592 95.3752C45.0924 95.0082 45.0924 95.0082 45.4592 95.3752C45.4592 95.3752 45.0924 95.3752 45.4592 95.3752Z" fill="#FAFAFA"></path> <path d="M192.537 46.9278C190.703 46.9278 189.236 46.1937 188.136 44.7256C187.402 43.6245 186.302 42.8905 185.202 42.8905C183.368 42.5235 181.901 42.1564 180.434 41.4224C178.6 40.3213 178.233 39.2202 179.7 37.7521C182.268 34.8159 185.202 33.3478 189.236 33.7149C191.804 33.7149 194.371 33.7149 196.939 35.183C199.506 37.0181 201.34 40.3213 200.606 42.8905C198.773 45.0926 196.572 46.9278 192.537 46.9278ZM196.205 37.0181C195.838 37.7521 196.205 38.4862 195.838 39.2202C195.472 39.5873 195.472 39.5873 195.838 39.9543C196.205 39.9543 196.572 40.3213 196.939 39.9543C197.672 38.8532 197.672 38.1192 196.205 37.0181Z" fill="#060606"></path> <path d="M202.073 32.6139C197.305 33.3479 193.271 31.1458 188.869 30.0447C186.302 29.3106 185.202 27.4755 185.568 24.9063C185.568 23.8053 186.302 23.0712 187.769 23.4382C188.503 23.4382 188.503 23.4382 189.236 23.4382C192.17 20.8691 195.838 20.502 199.139 19.768C200.973 19.401 202.807 19.0339 205.008 19.0339C207.208 19.0339 209.042 19.401 211.243 20.502C213.077 21.2361 214.544 22.3372 216.378 22.7042C218.578 23.4382 220.045 24.9063 220.045 26.3744C220.045 28.2096 218.945 29.6777 216.744 30.4117C215.644 30.7787 214.544 31.1458 213.81 31.1458C209.409 31.5128 205.741 33.3479 202.073 32.6139ZM200.606 29.3106C201.34 29.3106 202.44 29.3106 203.174 29.3106C205.008 28.9436 206.841 28.5766 209.042 28.9436C210.509 29.3106 211.61 28.9436 213.077 28.5766C213.81 28.2096 214.544 27.8425 214.911 28.2096C216.378 28.9436 216.744 27.8425 217.478 27.1085C218.212 26.3744 217.845 25.6404 217.111 24.9063C216.378 24.1723 215.644 23.4382 214.177 23.8053C213.81 23.8053 213.81 23.8053 213.443 23.4382C211.976 21.6031 209.776 20.8691 207.208 20.502C203.907 19.768 200.239 20.135 196.938 20.8691C193.637 21.6031 190.703 22.3372 188.503 24.5393C187.769 25.2734 187.035 26.0074 188.136 26.7415C190.336 27.8425 192.17 29.3106 195.105 28.5766C196.205 28.2096 196.938 28.2096 198.039 28.5766C198.406 28.9436 199.139 28.9436 199.506 28.2096C199.506 27.8425 200.239 27.4755 200.606 27.4755C201.34 27.8425 200.606 28.2096 200.606 28.5766C200.973 28.9436 200.606 28.9436 200.606 29.3106Z" fill="#060606"></path> <path d="M166.863 21.9702C168.33 21.9702 169.064 21.9702 170.164 21.6032C171.264 21.2362 171.998 21.6032 172.731 22.7043C173.832 24.9064 174.199 27.1086 172.365 29.3107C171.264 30.4118 170.897 32.2469 169.064 32.981C165.763 34.8161 162.462 35.5502 158.794 33.715C156.96 32.614 154.392 32.981 152.559 31.8799H152.192C151.458 32.614 150.725 32.2469 150.725 31.5129C150.358 30.4118 150.725 29.6778 151.825 29.6778C153.659 29.6778 154.759 28.5767 155.86 27.4756C157.693 26.0075 159.161 24.1724 161.361 22.7043C162.828 22.3373 164.662 21.6032 166.863 21.9702ZM156.226 31.1459C163.929 34.8161 167.963 34.0821 171.631 26.7416C171.264 26.7416 171.264 26.7416 170.897 26.7416C169.797 27.1086 169.064 27.8426 168.33 28.5767C167.963 29.3107 166.496 28.5767 165.763 29.6778C164.662 30.7788 162.462 30.7788 160.994 30.0448C159.894 29.6778 158.794 29.6778 158.06 30.0448C157.327 30.4118 156.96 30.7788 156.226 31.1459ZM165.763 26.0075C167.596 26.0075 169.43 26.7416 170.897 25.6405C171.264 25.2735 171.998 25.2735 171.264 24.1724C170.897 23.4383 170.164 23.8054 169.797 23.8054C168.33 24.5394 166.863 25.2735 165.763 26.0075ZM159.161 27.8426C160.994 27.4756 163.562 26.3745 166.129 23.8054C162.828 24.1724 160.994 26.0075 159.161 27.8426ZM162.095 28.9437C163.195 29.3107 164.295 29.3107 165.396 28.9437C164.295 28.5767 163.195 27.8426 162.095 28.9437Z" fill="#060606"></path> <path d="M207.575 48.0291C206.108 48.0291 204.641 46.194 205.008 45.0929C205.008 44.7259 205.374 44.3589 205.741 44.3589C207.575 44.7259 209.409 43.9919 211.243 44.7259C211.976 45.0929 212.343 45.0929 212.343 45.827C212.343 46.561 211.61 46.9281 211.243 46.9281C210.143 47.2951 209.042 48.0291 207.575 48.0291Z" fill="#060606"></path> <path d="M159.16 43.6246C159.527 43.6246 160.261 43.9917 160.261 44.3587C159.894 45.0927 159.16 45.4598 158.06 45.8268C157.693 45.8268 156.96 45.4598 156.96 45.0927C156.96 43.2576 158.427 43.9917 159.16 43.6246Z" fill="#060606"></path> <path d="M164.296 44.7258C163.562 45.0928 162.828 44.3588 162.828 43.9917C162.828 43.6247 163.195 43.2577 163.562 43.2577C164.296 43.6247 165.396 43.2577 165.396 44.3588C165.763 44.7258 165.029 44.7258 164.296 44.7258Z" fill="#060606"></path> <path d="M174.565 44.3589C174.565 44.3589 174.932 44.7259 174.565 44.3589C174.932 45.0929 175.665 45.827 174.565 46.194C174.198 46.561 173.465 46.194 173.465 45.827C173.465 44.7259 173.831 44.3589 174.565 44.3589Z" fill="#060606"></path> <path d="M175.299 71.1516C174.565 72.2526 174.932 73.3537 174.932 74.4548C175.299 76.2899 174.932 77.758 174.932 79.5931C174.932 80.3272 175.299 80.6942 176.032 80.6942C176.766 80.6942 177.499 80.6942 178.233 80.6942C180.434 80.6942 180.8 79.9602 180.434 78.125C180.067 76.6569 178.966 75.1888 178.6 73.7207C178.6 72.6197 178.6 71.8856 179.7 71.8856C180.8 71.5186 180.8 72.6197 180.8 73.3537C180.8 74.0878 181.167 74.4548 181.534 74.8218C182.634 76.6569 183.001 78.4921 183.001 80.3272C183.001 81.4283 182.634 82.1623 181.167 82.5293C178.966 82.8964 176.766 82.8964 174.565 82.5293C173.465 82.5293 172.731 81.4283 173.098 80.3272C174.198 78.125 173.465 75.5559 173.465 73.3537C173.465 72.6197 173.098 72.2526 172.731 71.8856C170.897 71.1516 169.43 70.0505 167.596 71.1516C167.23 71.5186 166.863 71.1516 166.496 71.1516C163.562 69.3164 162.828 64.5451 165.029 61.9759C167.23 59.4068 170.531 58.6727 173.465 57.9386C177.866 56.8376 181.901 57.2046 185.935 59.4067C188.869 60.8748 190.703 63.444 191.07 66.7473C191.07 67.4813 190.703 68.2154 190.337 68.5824C189.97 69.3164 189.236 69.6835 188.869 70.4175C192.537 69.6835 195.471 70.0505 198.772 70.7845C201.707 71.1516 203.907 72.6197 205.741 74.4548C207.208 75.9229 206.842 77.391 205.008 78.4921C202.073 80.3272 199.139 79.2261 195.838 78.8591C192.17 78.4921 189.603 76.2899 187.036 74.4548C186.302 73.7207 185.568 73.3537 184.468 73.3537C183.368 73.3537 182.267 72.9867 181.901 71.5186C181.901 71.1516 181.534 71.1516 181.167 71.1516C180.067 71.8856 178.966 70.0505 177.499 71.1516C176.399 71.5186 176.032 71.1516 175.299 71.1516C175.299 71.1516 174.932 71.1516 175.299 71.1516ZM185.935 68.5824C185.568 68.5824 185.568 68.9494 185.568 69.3164C185.935 69.3164 186.302 68.9494 185.935 68.5824C186.669 68.2154 187.769 67.4813 187.769 66.3802C187.402 64.1781 186.302 62.3429 184.101 61.2419C180.434 59.4067 176.766 59.0397 172.731 60.1408C170.164 60.8749 167.596 61.6089 165.762 63.8111C164.662 65.2792 164.662 67.1143 165.762 68.2154C165.396 65.6462 166.863 64.5451 168.697 63.444C173.098 60.5078 177.866 60.5078 182.634 62.71C185.202 63.444 186.669 66.0132 185.935 68.5824ZM194.738 77.024C194.738 75.1888 193.271 74.4548 191.804 73.7207C188.869 72.2526 188.869 72.2526 187.402 72.9867C189.603 74.4548 191.804 76.6569 194.738 77.024ZM196.205 76.6569C198.406 77.758 200.24 78.125 202.073 77.024C202.44 76.6569 203.174 76.6569 202.807 75.9229C202.44 75.1888 201.34 74.0878 200.973 74.4548C199.506 75.5559 198.406 74.4548 196.939 74.8218C198.039 75.9229 197.672 76.2899 196.205 76.6569ZM176.032 67.8483C176.766 67.1143 176.399 66.0132 176.766 65.2792C177.133 62.71 176.766 62.3429 173.832 63.077C173.832 63.077 173.465 63.077 173.465 63.444C174.198 64.9121 175.299 66.3802 176.032 67.8483ZM180.067 68.9494C181.167 68.5824 182.267 67.8483 183.368 67.4813C184.468 67.1143 184.101 66.7473 183.735 66.0132C183.368 65.6462 183.001 65.2792 182.634 64.9121C181.901 66.3802 180.8 67.4813 180.067 68.9494ZM173.465 68.2154C172.731 66.7473 172.364 65.2792 171.631 63.8111C170.897 64.1781 170.164 64.5451 169.43 65.2792C171.264 66.0132 172.364 67.1143 173.465 68.2154ZM178.6 63.077C178.6 64.1781 178.6 65.2792 178.966 66.7473C179.7 65.6462 181.167 64.9121 181.167 63.8111C180.8 63.077 179.7 63.444 178.6 63.077ZM170.897 69.3164C170.164 68.5824 169.063 67.4813 167.963 66.3802C167.963 68.5824 168.33 68.9494 170.897 69.3164ZM171.631 69.6835C171.631 69.6835 171.998 69.6835 171.631 69.6835C171.998 69.6835 171.998 69.6835 171.631 69.6835C171.998 69.6835 171.998 69.6835 171.631 69.6835C171.631 69.6835 171.998 69.3164 171.631 69.6835Z" fill="#060606"></path> <path d="M187.402 56.8375C185.935 56.8375 185.202 56.1034 183.735 55.7364C183.001 55.7364 183.368 54.6353 183.735 54.2683C184.835 53.1672 188.136 52.8002 189.236 53.5342C189.97 53.9013 190.337 54.6353 190.337 55.3694C190.337 56.1034 189.603 56.4704 188.87 56.4704C188.503 56.4704 187.769 56.8375 187.402 56.8375Z" fill="#060606"></path> <path d="M45.0924 86.5665C42.8917 86.9336 41.0578 86.5665 38.8571 85.8325C37.0232 85.0984 35.9229 83.9974 35.9229 82.1622C35.9229 78.125 37.7568 75.9228 42.1581 75.5558C42.8917 75.5558 43.2585 75.1888 43.992 75.1888C49.1269 72.6196 57.5628 75.5558 59.0299 80.6941C59.3967 82.1622 59.0299 82.5292 57.5628 82.8963C56.4625 82.8963 55.3621 83.2633 54.6286 84.3644C52.4279 85.4655 48.0266 86.1995 45.0924 86.5665ZM52.7947 77.0239C52.0611 77.0239 49.4937 77.0239 48.7601 77.0239C48.3934 77.0239 47.6598 77.0239 47.293 77.3909C46.9262 78.1249 47.6598 78.125 48.0266 78.492C48.3934 79.226 49.1269 78.492 49.4937 78.492C50.2273 78.492 52.4279 78.125 52.7947 77.0239Z" fill="#060606"></path> <path d="M54.9955 73.7206C52.0612 74.0877 48.0267 71.8855 46.9264 69.6834C46.5596 68.5823 46.9264 67.4812 47.6599 66.7472C49.8606 64.178 54.2619 62.7099 57.5629 61.9758C60.4971 61.6088 63.0646 59.7737 65.9988 58.6726C66.7324 58.3056 66.7324 57.9386 66.7324 57.2045C66.7324 56.8375 67.0991 56.4705 67.4659 56.4705C67.8327 56.4705 67.8327 56.8375 68.1995 56.8375C68.5663 57.9386 68.933 58.6726 67.8327 59.4067C65.2653 61.6088 64.8985 64.912 64.1649 67.8482C63.7981 70.0504 62.6978 71.5185 60.1304 71.8855C58.6632 72.6196 57.1961 74.0877 54.9955 73.7206ZM57.1961 68.2153C56.4626 68.2153 55.729 68.5823 54.9955 68.9493C54.2619 69.3163 53.5284 70.0504 53.1616 71.1515C53.1616 71.5185 53.1616 71.8855 53.5284 71.8855C54.6287 71.8855 55.729 72.2525 56.4626 71.8855C56.8294 71.8855 56.8294 71.5185 56.8294 71.1515C56.4626 70.0504 57.1961 69.3163 57.1961 68.2153ZM54.9955 65.6461C53.1616 64.912 50.5941 66.3801 49.8606 67.1142C48.3935 68.2153 49.127 69.3163 50.2274 70.4174C50.5941 68.5823 53.8951 67.4812 54.9955 65.6461ZM58.6632 70.7844C59.7636 70.0504 61.2307 70.4174 61.9642 68.9493C60.8639 68.9493 60.4971 68.5823 60.8639 67.8482C61.2307 67.1142 60.8639 66.3801 60.4971 65.6461C57.5629 66.7472 59.3968 68.9493 58.6632 70.7844ZM63.7981 61.6088C63.0646 62.7099 62.331 63.811 61.2307 64.545C60.8639 64.912 61.2307 64.912 61.2307 64.912C61.9643 65.2791 61.9642 66.0131 61.9642 66.7472C63.0646 65.2791 63.4314 63.811 63.7981 61.6088Z" fill="#060606"></path> <path d="M65.632 77.391C64.1649 77.391 63.7981 76.6569 64.1649 75.5559C64.8984 73.7207 65.9988 72.2526 68.1994 71.1516C68.933 70.7845 70.0333 70.0505 70.7669 70.7845C71.5004 71.5186 70.7669 72.2526 70.4001 72.9867C70.0333 75.1888 68.5662 75.9229 66.7323 77.024C66.7323 77.024 65.9988 77.024 65.632 77.391Z" fill="#060606"></path> <path d="M22.719 75.1886C23.8194 75.1886 27.1204 75.5556 27.8539 76.2897C28.5875 77.3907 28.2207 78.1248 27.1204 78.4918C25.2865 78.8588 21.6187 78.8588 19.418 79.2259C19.0513 79.2259 18.3177 79.2259 18.3177 78.8588C18.3177 78.1248 17.9509 77.0237 18.6845 76.2897C19.7848 75.1886 21.2519 75.1886 22.719 75.1886Z" fill="#060606"></path> <path d="M97.1751 49.1302C96.8084 49.1302 96.4416 49.1302 96.4416 48.7631C96.0748 47.6621 97.1751 45.8269 98.6422 45.4599C99.3758 45.0929 100.109 45.4599 100.476 46.194C100.843 46.928 100.476 47.295 99.7426 47.6621C99.009 48.3961 97.9087 48.7631 97.1751 49.1302Z" fill="#060606"></path> <path d="M102.677 33.348C99.3758 33.348 97.9087 31.1459 96.4416 28.9437C95.3413 27.1086 95.3413 24.9064 96.8084 23.4383C98.2755 21.9702 99.7426 19.7681 102.677 20.1351C106.711 20.8692 110.379 23.8054 109.279 28.2097C108.912 30.4118 104.878 33.348 102.677 33.348ZM104.878 25.2735C105.611 25.2735 106.345 25.2735 106.345 24.5394C106.345 23.4383 105.244 23.4383 104.511 23.0713C103.777 23.0713 103.777 23.8054 103.41 24.1724C103.41 24.9064 103.777 25.2735 104.878 25.2735Z" fill="#060606"></path> <path d="M90.2062 7.65604C90.2062 6.92199 90.573 6.18794 91.3065 5.82092C92.0401 5.45389 92.7736 5.45389 93.5072 6.18794C94.6075 6.92199 95.3411 8.02307 96.0746 8.75712C96.8082 9.49117 95.3411 11.3263 94.2407 11.3263C92.7736 11.3263 90.2062 9.12414 90.2062 7.65604Z" fill="#060606"></path> <path d="M88.7389 100.881C87.2718 101.248 85.8047 100.514 84.3375 100.147C82.1369 99.4127 81.0365 96.8435 82.1369 94.6413C83.604 92.4392 85.4379 90.9711 87.6385 89.87C89.8392 88.7689 91.6731 87.6679 93.1402 85.8327C94.2405 84.3646 96.0744 83.6306 97.9083 83.2635C98.2751 83.2635 99.0087 83.2636 99.3754 83.6306C99.7422 84.3646 99.3754 84.7316 99.0087 85.0987C96.808 86.5668 96.808 88.4019 96.808 90.6041C96.808 92.0722 96.4412 93.5403 96.4412 95.0084C96.4412 98.3116 92.7734 101.248 88.7389 100.881ZM93.507 97.5775C91.6731 96.1094 91.6731 96.1094 89.8392 97.5775C89.4724 97.9446 89.1056 98.3116 88.7389 98.6786C88.3721 99.0456 88.0053 99.4127 87.6385 99.0456C87.2718 98.6786 87.2718 98.3116 87.2718 97.9446C87.2718 97.5775 88.0053 97.2105 86.905 96.8435C86.5382 96.8435 86.1714 96.4765 86.1714 96.1094C86.1714 95.7424 86.905 95.7424 87.2718 95.3754C87.6385 95.3754 88.7389 95.0084 88.3721 94.6413C87.2718 92.4392 89.1057 92.4392 90.206 92.0721C91.6731 91.7051 92.0399 90.6041 92.0399 89.503C90.5728 90.6041 89.1056 91.3381 87.6385 92.4392C86.1714 93.5403 85.0711 94.2743 83.9708 95.7424C83.2372 96.8435 83.604 97.9446 84.7043 98.3116C87.2718 99.7797 91.3063 99.4127 93.507 97.5775ZM94.2405 96.4765C94.9741 95.0084 94.6073 94.2743 93.8738 93.9073C93.507 93.5402 93.1402 94.2743 93.1402 94.6413C92.4066 95.7424 94.2405 95.3754 94.2405 96.4765ZM94.9741 89.136C93.8738 90.6041 94.2405 91.7051 94.9741 92.8062C94.9741 91.3381 94.9741 90.6041 94.9741 89.136Z" fill="#060606"></path> <path d="M32.9887 35.55C35.1894 36.2841 37.0233 37.3851 38.4904 38.8532C40.3243 40.6884 40.6911 42.5235 39.9575 43.6246C38.4904 45.4597 35.5562 46.9278 33.3555 46.1937C32.9887 46.1937 32.6219 45.4597 31.8884 45.4597C31.1548 45.0927 30.4213 44.3586 28.9542 44.7256C27.1203 45.4597 25.2864 45.0927 23.8193 43.6246C22.3522 42.1565 22.3522 40.3213 23.0857 38.4862C23.8193 36.6511 25.2864 34.816 28.2206 35.183C27.1203 33.7149 27.8538 33.3479 28.9542 32.6138C30.7881 31.5127 32.6219 30.0446 34.4558 28.5765C34.8226 28.2095 35.1894 27.8425 35.1894 28.2095C36.6565 29.3106 37.3901 28.2095 38.4904 27.8425C39.2239 27.4755 39.9575 27.1084 40.3243 28.2095C40.3243 28.5765 41.0578 28.5765 41.4246 28.5765C42.525 28.9436 43.9921 28.5765 45.0924 29.3106C46.9263 30.4117 47.6598 31.5127 47.6598 33.3479C47.6598 34.4489 45.826 35.917 44.3588 36.2841C41.0578 37.3851 38.1236 36.2841 34.8226 35.55C34.4558 35.55 33.7223 35.55 32.9887 35.55ZM41.0578 32.9808C41.0578 33.7149 42.8917 33.7149 41.7914 34.4489C41.0578 35.183 40.3243 34.0819 39.9575 33.7149C39.2239 32.9808 38.8572 32.6138 37.7568 32.9808C37.0233 33.3479 35.9229 33.3479 34.8226 33.7149C35.9229 34.4489 37.0233 34.0819 38.1236 34.4489C39.9575 35.183 42.1582 35.183 43.9921 34.816C45.4592 34.4489 46.5595 33.3479 45.826 32.6138C45.826 32.2468 45.826 31.8798 45.0924 32.2468C44.3588 32.9808 43.6253 33.7149 42.1582 32.9808C42.1582 32.6138 41.4246 32.2468 41.0578 32.9808ZM36.2897 31.8798C39.2239 31.1457 41.7914 31.1457 44.3588 30.7787C41.4246 30.4117 38.8572 29.3106 36.2897 31.8798ZM27.1203 37.7522C25.2864 38.8532 24.9196 39.9543 25.2864 42.1565C26.3867 40.3213 26.0199 38.8532 27.1203 37.7522Z" fill="#060606"></path> <path d="M137.521 27.4755C136.787 27.8425 136.054 27.1084 134.953 27.4755C134.22 27.8425 134.22 26.7414 133.853 26.3744C133.853 26.0074 133.853 25.2733 134.586 25.2733C136.054 24.9063 136.787 23.8052 137.154 22.7041C137.887 20.869 139.355 19.4009 141.188 17.9328C142.656 16.8317 144.123 16.8317 145.957 17.5658C147.057 18.2998 147.057 19.0339 147.057 20.135C147.057 20.869 146.69 21.6031 146.323 22.3371C144.489 24.1722 142.656 25.6403 140.822 26.7414C139.721 27.4755 138.621 27.4755 137.521 27.4755ZM141.922 22.7041C141.555 23.0712 141.188 23.0712 141.555 23.4382C141.922 23.8052 142.289 23.4382 141.922 22.7041C143.389 22.3371 144.489 21.6031 144.856 20.502C144.856 20.135 144.856 19.4009 144.489 19.4009C143.756 19.4009 143.389 19.4009 142.656 19.4009C142.289 19.4009 142.289 19.7679 142.656 19.7679C143.389 21.236 142.656 21.9701 141.922 22.7041ZM141.188 23.4382L140.822 23.8052C140.455 24.1722 140.822 24.1722 141.188 24.1722C141.555 24.1722 141.555 24.1722 141.555 23.8052L141.188 23.4382Z" fill="#060606"></path> <path d="M27.1204 59.4066C26.7536 59.7736 26.3868 60.5077 26.0201 60.8747C25.2865 61.2417 24.5529 61.6088 23.8194 61.9758C23.0858 62.3428 22.7191 61.9758 22.7191 61.2417C22.3523 60.8747 22.7191 60.5077 23.0858 60.5077C24.1862 60.1407 24.9197 59.7736 25.6533 58.6726C26.0201 58.3055 26.3868 58.3055 26.7536 58.3055C27.1204 58.6726 27.1204 59.0396 27.1204 59.4066Z" fill="#060606"></path> <path d="M32.6221 56.4706C32.6221 57.2047 32.2554 57.5717 31.8886 57.5717C31.5218 57.5717 31.155 57.5717 31.155 56.8377C31.155 56.1036 31.5218 55.7366 32.2554 55.7366C32.6221 55.7366 32.6221 56.1036 32.6221 56.4706Z" fill="#060606"></path> <path d="M20.1517 62.343C19.7849 63.077 19.4182 62.71 18.6846 63.077C18.3178 63.077 17.951 63.077 17.951 62.71C17.951 61.9759 18.6846 61.9759 19.0514 61.9759C19.7849 61.6089 20.1517 61.6089 20.1517 62.343Z" fill="#060606"></path> <path d="M37.3902 61.6089C37.0235 61.6089 36.6567 61.2419 36.6567 60.8748C36.6567 60.5078 37.0235 59.7738 37.3902 60.1408C37.757 60.1408 38.1238 60.5078 38.1238 60.8748C38.4906 61.6089 38.1238 61.6089 37.3902 61.6089Z" fill="#060606"></path> <path d="M44.3589 59.0396C44.3589 59.4066 43.9921 59.7736 43.6253 59.7736C43.2586 59.7736 42.8918 59.4066 42.8918 59.0396C42.8918 58.6726 43.2586 58.3055 43.6253 58.3055C44.3589 58.3055 44.3589 58.6726 44.3589 59.0396Z" fill="#060606"></path> <path d="M21.2518 58.6726C21.2518 58.3055 21.6185 58.3055 21.9853 58.3055C22.3521 58.3055 22.7189 58.3055 23.0857 58.6726C23.0857 59.0396 23.0857 59.4066 22.7189 59.4066C21.9853 59.4066 21.6185 59.0396 21.2518 58.6726Z" fill="#060606"></path> <path d="M32.9889 63.811C32.9889 63.444 32.9889 63.444 33.3557 63.444C34.0892 63.444 34.0892 63.811 34.0892 64.545C34.0892 64.9121 33.7224 65.2791 33.3557 64.9121C32.9889 64.545 32.9889 64.178 32.9889 63.811Z" fill="#060606"></path> <path d="M39.9576 56.1033C39.9576 56.4703 39.5909 56.8373 39.2241 56.8373C38.8573 56.8373 38.4905 56.4703 38.4905 56.1033C38.4905 55.7363 38.4905 55.7363 38.8573 55.7363C39.2241 55.3692 39.5909 55.7363 39.9576 56.1033Z" fill="#060606"></path> <path d="M120.649 100.513C120.649 100.146 120.649 100.146 120.649 100.146C120.649 99.4124 121.016 99.0454 121.382 98.6783C121.382 98.6783 122.116 98.6783 122.116 99.0454C122.483 99.4124 122.116 100.146 121.749 100.513C121.749 100.513 121.749 100.88 121.382 100.88C121.382 101.248 121.382 101.982 120.649 101.615C120.649 101.248 120.649 100.88 120.649 100.513Z" fill="#060606"></path> <path d="M110.379 99.4126C110.379 100.147 109.646 100.147 109.279 100.147C108.545 100.147 108.178 99.7796 108.178 99.0455C108.178 98.6785 108.178 97.9445 108.912 97.9445C109.646 98.3115 110.379 98.6785 110.379 99.4126Z" fill="#060606"></path> <path d="M116.248 98.6784C115.881 98.3113 115.147 98.3113 115.147 97.5773C115.147 96.8432 115.881 96.4762 116.248 96.4762C116.614 96.4762 116.981 96.8432 116.981 97.2103C116.981 97.9443 116.981 98.6784 116.248 98.6784Z" fill="#060606"></path> <path d="M122.483 97.5773C121.382 97.5773 121.749 96.8432 121.749 96.4762C121.749 95.7421 122.483 95.3751 122.849 95.3751C123.216 95.3751 123.583 95.7421 123.583 96.1092C123.216 96.8432 123.216 97.5773 122.483 97.5773Z" fill="#060606"></path> <path d="M112.947 97.5773C112.213 97.5773 111.846 96.8432 111.846 96.4762C111.846 96.1092 112.213 95.7421 112.947 95.3751C113.68 95.3751 114.047 95.7421 114.047 96.1092C114.047 96.8432 113.68 97.2102 112.947 97.5773Z" fill="#060606"></path> <path d="M116.981 100.881C116.981 101.248 116.614 101.615 116.248 101.615C115.881 101.615 115.147 101.248 115.147 100.514C115.147 100.147 115.147 99.7797 115.881 99.7797C116.614 100.147 116.614 100.514 116.981 100.881Z" fill="#060606"></path> <path d="M125.417 102.349C125.784 102.716 126.151 102.716 126.151 103.083C126.151 103.45 125.784 104.184 125.05 104.184C124.683 104.184 124.317 103.817 124.317 103.45C124.317 102.716 124.683 102.349 125.417 102.349Z" fill="#060606"></path> <path d="M107.812 93.907C107.812 93.54 108.178 93.173 108.545 93.173C109.279 93.173 109.646 93.54 109.646 93.907C109.646 94.274 109.279 94.6411 108.912 94.6411C108.545 94.6411 108.178 94.274 107.812 93.907Z" fill="#060606"></path> <path d="M119.915 95.375C119.549 95.375 119.182 95.0079 118.815 94.6409C118.815 94.2739 119.182 93.9069 119.549 93.9069C120.282 93.9069 120.649 94.2739 120.649 94.6409C120.649 95.0079 120.282 95.0079 119.915 95.375Z" fill="#060606"></path> <path d="M107.078 97.5773C107.078 97.9443 106.711 98.3114 106.344 98.3114C105.977 98.3114 105.611 97.9443 105.611 97.5773C105.611 97.2103 105.977 96.8433 105.977 96.8433C106.711 96.8433 107.078 97.2103 107.078 97.5773Z" fill="#060606"></path> <path d="M114.414 93.1728C114.047 93.1728 113.68 92.8058 113.68 92.4388C113.68 92.0717 114.047 91.7047 114.414 91.7047C114.78 91.7047 115.147 92.0717 115.147 92.4388C115.147 92.8058 115.147 93.1728 114.414 93.1728Z" fill="#060606"></path> <path d="M67.0991 36.6514C65.9987 36.6514 65.2652 37.0184 64.1648 37.0184C63.798 37.0184 63.4313 37.0184 63.4313 36.6514C63.4313 36.2843 63.798 35.9173 64.1648 35.9173C65.2652 35.5503 65.9987 35.9173 67.0991 36.6514Z" fill="#060606"></path> <path d="M75.5351 32.9811C75.1683 33.3481 74.8015 34.0822 74.4348 34.0822C73.7012 34.0822 73.3344 33.7151 73.3344 32.9811C73.3344 32.247 74.068 31.88 74.4348 31.88C75.1683 32.247 75.5351 32.6141 75.5351 32.9811Z" fill="#060606"></path> <path d="M69.6667 36.6513C69.6667 36.2843 70.0335 35.9172 70.4002 35.9172C71.1338 35.9172 71.5006 36.2843 71.5006 36.6513C71.5006 37.0183 71.1338 37.3853 70.767 37.3853C70.0335 37.3853 70.0335 37.0183 69.6667 36.6513Z" fill="#060606"></path> <path d="M78.1027 37.3853C77.3691 37.3853 77.0023 37.0183 77.0023 36.6513C77.0023 36.2843 77.0023 35.9172 77.7359 35.9172C78.4694 35.9172 78.4694 36.2843 78.4694 37.0183C78.8362 37.0183 78.4694 37.3853 78.1027 37.3853Z" fill="#060606"></path> <path d="M67.8328 39.2203C67.8328 39.5873 67.466 39.5873 67.0992 39.5873C66.3657 39.5873 66.3657 39.2203 66.3657 38.8533C66.3657 38.4863 66.7324 38.1192 67.0992 38.4863C67.466 38.4863 67.8328 38.4863 67.8328 39.2203Z" fill="#060606"></path> <path d="M203.174 56.8377C205.008 56.4706 206.475 57.5717 207.942 58.3058C208.675 58.6728 209.042 59.0398 207.942 59.7739C205.374 61.242 202.44 61.609 199.873 61.242C198.772 61.242 198.406 60.5079 198.406 59.4068C198.406 58.3058 198.772 57.5717 199.873 57.2047C200.606 56.8377 201.707 56.8377 203.174 56.8377ZM205.008 59.0398C203.541 59.0398 202.073 59.0398 200.24 59.0398C201.707 59.7739 203.541 59.0398 205.008 59.0398Z" fill="#060606"></path> <path d="M161.361 50.9652C162.095 50.9652 162.828 51.6993 163.562 50.5982C163.929 50.2312 164.295 50.5982 164.662 50.9652C165.029 51.3322 164.662 51.6993 164.295 52.0663C163.929 52.4333 163.562 52.8003 163.195 52.4333C162.828 52.0663 162.095 52.0663 161.361 52.0663C160.994 52.0663 160.261 52.0663 160.261 51.3322C160.261 50.9652 160.994 51.3322 161.361 50.9652Z" fill="#060606"></path> <path d="M158.06 52.8003C157.327 52.8003 157.327 52.4333 157.327 52.0662C157.327 51.3322 157.327 50.9652 158.06 50.5981C158.794 50.5981 159.161 50.9652 159.161 51.3322C159.161 52.0663 158.427 52.4333 158.06 52.8003Z" fill="#060606"></path> <path d="M167.597 51.6993C166.863 51.6993 166.496 51.3323 166.496 50.9653C166.496 50.5982 166.863 50.2312 167.23 50.2312C167.963 50.2312 167.963 50.5982 168.33 50.9653C168.33 51.3323 167.963 51.6993 167.597 51.6993Z" fill="#060606"></path> <path d="M170.53 52.4331C170.164 52.4331 169.797 52.4331 169.797 52.0661C169.797 51.6991 169.797 51.332 170.53 51.332C170.897 51.332 171.264 51.332 171.264 51.6991C171.264 52.4331 170.897 52.4331 170.53 52.4331Z" fill="#060606"></path> <path d="M85.0715 31.1457C84.3379 31.1457 83.9711 30.7786 83.9711 30.4116C83.9711 30.0446 84.3379 29.3105 85.0715 29.3105C85.4382 29.3105 86.1718 29.3105 86.1718 30.0446C86.1718 30.7786 85.4382 31.1457 85.0715 31.1457Z" fill="#060606"></path> <path d="M186.302 68.9491L185.935 69.3161C185.568 68.9491 185.935 68.5821 186.302 68.9491C186.302 68.5821 186.302 68.5821 186.302 68.9491Z" fill="#FAFAFA"></path> <path d="M171.631 69.6833C171.631 69.6833 171.998 69.3163 171.631 69.6833C171.998 69.6833 171.998 69.6833 171.631 69.6833C171.998 69.6833 171.998 69.6833 171.631 69.6833C171.631 69.6833 171.998 69.6833 171.631 69.6833Z" fill="#FAFAFA"></path> <path d="M141.189 23.4381C141.555 23.8051 141.555 23.8051 141.555 23.8051C141.555 24.1722 141.189 24.1722 141.189 24.1722C141.189 24.1722 140.822 24.1722 140.822 23.8051C140.822 23.8051 140.822 23.4381 141.189 23.4381Z" fill="#FAFAFA"></path> <path d="M205.008 59.0394C203.541 59.0394 202.074 59.7735 200.24 59.0394C201.707 59.0394 203.541 59.0394 205.008 59.0394Z" fill="#FAFAFA"></path> <path d="M194.371 26.3745C193.638 26.0075 193.271 26.0075 193.271 25.2735C193.638 24.1724 195.105 24.5394 195.838 23.8054C196.205 23.4383 196.205 24.1724 196.205 24.5394C196.572 26.3745 194.738 25.2735 194.371 26.3745Z" fill="#060606"></path> <path d="M207.208 24.9064C207.575 24.9064 207.942 24.5394 208.309 25.2734C208.309 25.6405 207.942 26.0075 207.575 26.0075C206.841 26.3745 206.475 26.3745 206.108 25.6405C206.108 24.9064 205.741 24.9064 205.008 24.5394C204.641 24.5394 204.641 23.8053 204.641 23.4383L205.008 23.0713C205.374 23.0713 205.741 23.4383 205.741 23.8053C206.108 24.9064 206.841 24.5394 207.208 24.9064Z" fill="#060606"></path> <path d="M200.606 24.1724C200.606 24.9064 200.239 24.9064 199.873 24.9064C199.506 24.9064 199.139 24.9064 199.139 24.1724C199.139 23.8053 199.506 23.4383 199.873 23.8053C199.873 23.8053 200.239 23.8053 200.606 24.1724Z" fill="#060606"></path> <path d="M203.174 23.0711C202.44 23.0711 202.44 22.7041 202.44 22.3371C202.44 21.9701 202.44 21.603 202.807 21.603C203.174 21.603 203.541 22.3371 203.541 22.7041C203.907 23.0711 203.541 23.0711 203.174 23.0711Z" fill="#060606"></path> </g> </svg> 