<!-- Generated by IcoMoon.io -->
<svg version="1.1" xmlns="http://www.w3.org/2000/svg" width="32" height="32" viewBox="0 0 32 32">
<title>hover</title>
<path d="M31.933 19c-0.067-0.267-0.267-0.467-0.533-0.533-1.667-0.533-3.4-0.733-5-1.133-0.333 0.067-0.667-0.067-0.733 0.2s0.267 0.4 0.467 0.467c1.667 0.867 3.533 1.133 5.333 1.533 0.467 0.133 0.6-0.133 0.467-0.533zM30.2 11.467c0.267-0.133 0.267-0.4 0.133-0.667-0.267-0.4-0.667-0.467-1.067-0.2-1.467 0.733-2.8 1.667-4.333 2.333-0.133 0.067-0.333 0.2-0.267 0.4s0.267 0.267 0.467 0.267c0.067 0 0.067 0 0.133 0 1.733-0.533 3.333-1.4 4.933-2.133zM5.533 18.4c0-0.333-0.333-0.333-0.533-0.267-1.467 0.067-2.733 0.667-4 1.2-0.467 0.2-0.533 0.6-0.333 1s0.533 0.4 0.933 0.2c0.533-0.267 1-0.467 1.533-0.733 0.6-0.333 1.267-0.467 1.933-0.667 0.267-0.133 0.467-0.4 0.467-0.733zM5.267 13.733c0.2 0.067 0.4 0.133 0.667 0.067 0.133-0.067 0.333-0.067 0.333-0.2 0.067-0.267-0.133-0.333-0.267-0.4-1.8-1.067-3.8-1.467-6-1.8 0.267 0.467 0.533 0.667 0.8 0.733 1.467 0.6 3 1.133 4.467 1.6zM6.6 20.733c-0.867 0.4-1.533 1.067-2.067 1.867-0.067 0.133-0.133 0.333 0 0.4 0.133 0.133 0.267 0 0.4-0.067 0.8-0.4 1.333-1.067 1.933-1.733 0.067-0.067 0.067-0.2 0.133-0.267-0.067-0.267-0.2-0.267-0.4-0.2zM25.133 20.067c0.8 0.933 1.867 1.6 2.933 2.2 0.067 0.067 0.2 0.067 0.2-0.067 0.067-0.133 0-0.267-0.133-0.333-0.733-0.867-1.8-1.467-3-1.8zM27.067 15c-0.067 0.067-0.267 0.133-0.2 0.333s0.2 0.133 0.267 0.133c0.933-0.067 1.8-0.2 2.667-0.267 0.133 0 0.267-0.067 0.267-0.2 0-0.067-0.067-0.133-0.133-0.2-0.533-0.333-2.467-0.2-2.867 0.2zM25.067 10.933c0.467-0.467 0.933-0.933 1.4-1.333 0.067-0.067 0.133-0.2 0.133-0.267 0-0.2 0-0.267-0.133-0.4-0.133-0.067-0.2-0.067-0.333 0.067-0.533 0.533-1.067 1.067-1.533 1.6-0.133 0.133-0.2 0.333-0.067 0.467 0.2 0.133 0.4-0.067 0.533-0.133zM2.733 15.467c-0.133 0-0.4-0.133-0.467 0.067-0.067 0.267 0.133 0.333 0.333 0.4 0.733 0.133 1.467 0.333 2.2 0.467 0.133 0 0.267 0.067 0.333-0.133s-0.133-0.267-0.267-0.333c-0.6-0.333-1.4-0.4-2.133-0.467zM6.4 11.533c-0.6-0.667-1.067-1.333-1.867-1.733 0.4 0.733 1 1.4 1.867 1.733z"></path>
</svg>
