<svg xmlns="http://www.w3.org/2000/svg" width="33" height="32"><path d="M5.583.826c-.99.134-1.915.806-2.364 1.72-.209.425-.356 1.009-.358 1.42l-.001.254-.344.073C1.365 4.536.381 5.502.083 6.68c-.121.479-.12 2.867.001 3.041.119.169.408.233 1.054.234h.56l.03.234c.016.128.24 4.466.498 9.639.344 6.914.49 9.492.551 9.735.268 1.057 1.117 1.977 2.106 2.283.343.106.523.109 6.219.108 6.103 0 6.088 0 6.501-.22.101-.054.14-.043.267.079l.149.142h12.157l.117-.124c.096-.103.319-1.099 1.302-5.832.652-3.139 1.185-5.757 1.185-5.82 0-.062-.072-.185-.161-.273l-.161-.161h-1.545l-.015-2.975-.015-2.975-.155-.132c-.149-.129-.183-.133-1.031-.133h-.877v-.882c0-.94-.053-1.199-.267-1.314-.069-.036-.528-.059-1.211-.059-1.084 0-1.103.002-1.255.133l-.154.132-.018.885-.018.885h-1.092v-.939c0-.945-.027-1.101-.215-1.246-.062-.047-.413-.067-1.205-.068l-1.118-.002-.161.161-.161.161v1.548h-1.61l.034-.509c.018-.28.048-.892.065-1.361.046-1.219-.027-1.1.673-1.1.675-.001.964-.063 1.084-.234.122-.174.122-2.563.001-3.041-.306-1.201-1.305-2.169-2.465-2.388l-.367-.069v-.288c0-.392-.18-1.066-.395-1.477-.227-.433-.848-1.056-1.282-1.284-.759-.399-.331-.373-6.353-.383C8.35.786 5.764.802 5.583.826m11.535 1.176c.755.383 1.252 1.176 1.252 1.997v.236H3.85v-.236c0-.325.143-.844.311-1.131.258-.439.777-.845 1.284-1.002.076-.023 2.662-.038 5.748-.033l5.609.01.316.159m2.861 3.399a2.51 2.51 0 0 1 1.101 1.083l.178.361.017 1.06.018 1.06H.99l.001-.894c.001-.491.026-1 .056-1.13.178-.77.808-1.444 1.534-1.641.196-.053 2.12-.066 8.667-.058l8.415.011.316.148m-.573 6.328c-.05.975-.093 1.78-.096 1.787-.003.008-3.693.014-8.2.014s-8.197-.006-8.2-.014c-.003-.007-.046-.812-.096-1.787l-.091-1.774h16.774l-.091 1.774m4.409 5.108v4.792l-.215-.034a3.362 3.362 0 0 1-.427-.104l-.211-.069-.014-4.688-.014-4.689h.881v4.792m4.015-.836v3.736l-.44.018-.44.018v-7.508h.88v3.736m-5.885 1.324c0 1.876-.011 3.41-.024 3.41-.013 0-.162-.208-.332-.462-.169-.254-.346-.477-.393-.495a1.316 1.316 0 0 0-.328-.033h-.243v-5.83h1.32v3.41m3.96.344v3.369l-.234.147a2.667 2.667 0 0 1-.715.322l-.151.045V14.3h1.1v3.369m-6.27-2.819v.33h-2.043l-.161.161-.161.161v4.243h-1.548l-.161.161c-.089.088-.161.211-.161.274 0 .062.235 1.242.523 2.622.287 1.38.522 2.531.522 2.559 0 .029-2.628.044-6.476.035l-6.476-.013-.258-5.06c-.142-2.783-.26-5.228-.262-5.432l-.003-.371h16.665v.33m10.285 2.283v2.612h-1.1V14.52h1.1v2.613m-19.305-1.126c-1.636.204-3.002 1.438-3.391 3.065a4.544 4.544 0 0 0-.085.948 3.954 3.954 0 0 0 3.971 3.965 3.954 3.954 0 0 0 3.971-3.965c.005-.92-.227-1.657-.751-2.392-.824-1.155-2.296-1.797-3.715-1.621m8.965 1.95v1.788h-1.32V16.17h1.32v1.787m-7.645-.871c.97.268 1.779 1.08 2.063 2.07.106.371.121 1.149.028 1.551-.116.509-.382.964-.824 1.407-.623.627-1.216.875-2.092.875-.805 0-1.425-.236-1.987-.756-.586-.544-.883-1.103-.973-1.835-.092-.751.056-1.442.434-2.027.745-1.154 2.036-1.649 3.351-1.285m8.841 3.773c.103.219.62.751.976 1.006a3.972 3.972 0 0 0 4.078.351c.586-.279 1.121-.751 1.573-1.386.065-.09.216-.095 2.162-.082l2.092.014-1.058 5.116-1.061 5.128c-.002.008-2.452.014-5.444.014-5.134 0-5.443-.005-5.471-.096-.017-.053-.49-2.312-1.052-5.019-.562-2.707-1.035-4.978-1.052-5.046l-.031-.124h4.229l.059.124m-.992 4.827c-.277.218-.216.704.105.826.083.032 1.747.053 4.201.053 2.454 0 4.118-.021 4.201-.053.177-.067.329-.355.284-.535a.718.718 0 0 0-.167-.269l-.133-.133H24.1c-4.1 0-4.178.002-4.316.111m-3.098.81c.015.053.217 1.01.448 2.127.474 2.285.477 2.035-.029 2.26-.241.107-.384.11-5.83.125-3.613.01-5.674-.005-5.843-.041a2.328 2.328 0 0 1-1.548-1.23c-.178-.377-.229-.792-.286-2.306L3.559 26.4h6.549c6.19 0 6.551.005 6.578.096m3.086 1.522a.718.718 0 0 0-.167.269c-.045.18.107.468.284.535.081.031 1.32.053 3.026.053h2.888l.161-.161c.216-.216.216-.452 0-.668l-.161-.161h-5.898l-.133.133" fill-rule="evenodd"/></svg>