<svg height="512pt" viewBox="0 -20 512.001 512" width="512pt" xmlns="http://www.w3.org/2000/svg"><path d="m62.4375 64h.09375c5.523438 0 9.953125-4.476562 9.953125-10s-4.523437-10-10.046875-10-10 4.476562-10 10 4.476562 10 10 10zm0 0"/><path d="m107.941406 64h.09375c5.523438 0 9.953125-4.476562 9.953125-10s-4.523437-10-10.046875-10c-5.523437 0-10 4.476562-10 10s4.480469 10 10 10zm0 0"/><path d="m153.445312 64h.09375c5.523438 0 9.953126-4.476562 9.953126-10s-4.523438-10-10.046876-10c-5.523437 0-10 4.476562-10 10s4.480469 10 10 10zm0 0"/><path d="m231.757812 64h163.242188c5.523438 0 10-4.476562 10-10s-4.476562-10-10-10h-163.242188c-5.523437 0-10 4.476562-10 10s4.476563 10 10 10zm0 0"/><path d="m448 261.328125c-2.628906 0-5.210938 1.070313-7.070312 2.929687-1.859376 1.863282-2.929688 4.441407-2.929688 7.070313 0 2.640625 1.070312 5.210937 2.929688 7.070313 1.859374 1.871093 4.441406 2.929687 7.070312 2.929687s5.210938-1.058594 7.070312-2.929687c1.859376-1.859376 2.929688-4.429688 2.929688-7.070313 0-2.628906-1.070312-5.199219-2.929688-7.070313-1.859374-1.855468-4.441406-2.929687-7.070312-2.929687zm0 0"/><path d="m502 412h-10.339844c-4.570312-69.089844-56.125-125.546875-122.929687-137.613281v-6.441407c0-14.738281-11.992188-26.730468-26.730469-26.730468s-26.726562 11.992187-26.726562 26.730468v6.441407c-34.71875 6.273437-65.3125 24.53125-87.339844 50.320312h-95.597656c-5.523438 0-10 4.476563-10 10 0 5.523438 4.476562 10 10 10h81.15625c-4.453126 7.378907-8.285157 15.167969-11.429688 23.296875-.023438 0-.042969-.003906-.0625-.003906h-172c-5.515625 0-10-4.488281-10-10v-73.148438l24.542969 24.546876c1.953125 1.949218 4.511719 2.925781 7.070312 2.925781 2.558594 0 5.117188-.976563 7.070313-2.925781l30.015625-30.015626 8.96875 8.96875c2.605469 2.605469 6.433593 3.566407 9.964843 2.5 3.523438-1.066406 6.183594-3.984374 6.910157-7.601562l12.726562-63.25h104.730469c5.523438 0 10-4.476562 10-10v-64c0-5.523438-4.476562-10-10-10h-168c-5.523438 0-10 4.476562-10 10v46.765625l-24.925781 5.019531c-3.613281.726563-6.535157 3.382813-7.601563 6.910156-1.066406 3.527344-.105468 7.355469 2.503906 9.960938l8.964844 8.96875-12.941406 12.945312v-128.570312h418v123.332031c0 5.523438 4.476562 10 10 10s10-4.476562 10-10v-201.332031c0-16.542969-13.457031-30-30-30h-398c-16.542969 0-30 13.457031-30 30v230.707031.007813 97.285156c0 16.542969 13.457031 30 30 30h165.890625c-1.8125 7.785156-3.007813 15.804688-3.546875 24h-110.789062c-5.523438 0-10 4.476562-10 10s4.476562 10 10 10h90.445312v2.773438c0 20.527343 16.699219 37.226562 37.226562 37.226562h265.546876c20.527343 0 37.226562-16.699219 37.226562-37.226562v-12.773438c0-5.523438-4.476562-10-10-10zm-428-256h148v44h-90.703125l1.8125-9.007812c.660156-3.28125-.363281-6.675782-2.730469-9.042969-2.367187-2.367188-5.765625-3.394531-9.042968-2.730469l-47.335938 9.523438zm-19.84375 74.699219c3.90625-3.90625 3.90625-10.238281 0-14.144531l-2.847656-2.84375 59.226562-11.917969-11.917968 59.222656-2.847657-2.84375c-3.90625-3.90625-10.234375-3.90625-14.140625 0l-30.015625 30.011719-27.472656-27.472656zm-24.15625-210.699219h398c5.515625 0 10 4.488281 10 10v58h-418v-58c0-5.511719 4.484375-10 10-10zm305.269531 247.945312c0-3.710937 3.019531-6.730468 6.730469-6.730468s6.730469 3.019531 6.730469 6.730468v4.214844c-2.234375-.101562-4.472657-.160156-6.730469-.160156s-4.496094.058594-6.730469.160156zm6.730469 24.054688c68.316406 0 124.496094 52.972656 129.617188 120h-259.234376c5.121094-67.027344 61.300782-120 129.617188-120zm150 142.773438c0 9.5-7.726562 17.226562-17.226562 17.226562h-265.546876c-9.5 0-17.226562-7.726562-17.226562-17.226562v-2.773438h300zm0 0"/><path d="m332.1875 171.332031v30.820313c0 5.523437 4.476562 10 10 10s10-4.476563 10-10v-30.820313c0-5.523437-4.476562-10-10-10s-10 4.476563-10 10zm0 0"/><path d="m395.03125 189.027344-21.699219 21.699218c-3.90625 3.90625-3.90625 10.238282 0 14.140626 1.953125 1.953124 4.511719 2.929687 7.070313 2.929687s5.117187-.976563 7.070312-2.929687l21.699219-21.699219c3.90625-3.90625 3.90625-10.238281 0-14.140625-3.902344-3.90625-10.234375-3.90625-14.140625 0zm0 0"/><path d="m275.21875 189.046875c-3.90625 3.90625-3.90625 10.238281 0 14.140625l21.679688 21.679688c1.953124 1.953124 4.511718 2.929687 7.070312 2.929687s5.117188-.976563 7.070312-2.929687c3.90625-3.90625 3.90625-10.238282 0-14.140626l-21.679687-21.679687c-3.902344-3.90625-10.230469-3.90625-14.140625 0zm0 0"/><path d="m41.550781 412c-2.628906 0-5.210937 1.070312-7.070312 2.929688-1.859375 1.859374-2.929688 4.441406-2.929688 7.070312s1.070313 5.210938 2.929688 7.070312c1.859375 1.859376 4.441406 2.929688 7.070312 2.929688 2.640625 0 5.210938-1.070312 7.070313-2.929688 1.867187-1.859374 2.929687-4.441406 2.929687-7.070312s-1.0625-5.210938-2.929687-7.070312c-1.859375-1.859376-4.433594-2.929688-7.070313-2.929688zm0 0"/></svg>