<svg xmlns="http://www.w3.org/2000/svg" width="32" height="32"><path d="M8.293.037 5.067.778c-3.511.806-3.641.849-4.201 1.4a2.828 2.828 0 0 0-.754 1.254C.019 3.735 0 3.937 0 4.606c.001 4.189 1.219 8.933 3.255 12.682 1.351 2.488 2.75 4.385 4.689 6.359 2.295 2.337 4.563 3.988 7.469 5.438 3.651 1.822 7.455 2.779 11.52 2.896.968.028 1.201.02 1.494-.054.838-.213 1.53-.755 1.887-1.478.165-.334.31-.885.923-3.516.7-3.002.727-3.142.728-3.706.001-.511-.018-.635-.142-.954-.259-.663-.78-1.256-1.363-1.551-.406-.206-6.639-2.857-6.895-2.933-.369-.109-1.168-.107-1.542.004-.792.234-1.08.483-2.324 2.002-.583.71-1.083 1.324-1.113 1.364-.043.057-.182-.005-.686-.304a19.453 19.453 0 0 1-6.698-6.664c-.346-.574-.419-.729-.364-.779.038-.034.66-.545 1.382-1.134 1.535-1.253 1.754-1.508 1.998-2.333.119-.403.12-1.072.003-1.475-.101-.346-2.793-6.65-3.011-7.051C10.88.812 10.119.256 9.381.082 9.057.006 8.524-.016 8.293.037m1.574 5.79c.657 1.532 1.248 2.911 1.314 3.062l.121.276-2.128 1.741-2.127 1.741.227.49c.331.713 1.049 2.033 1.567 2.879 1.69 2.766 3.696 4.862 6.332 6.619 1.102.734 2.683 1.629 3.727 2.108l.458.211 1.739-2.126 1.739-2.127.435.186c1.629.696 5.666 2.436 5.68 2.449.01.008-.277 1.292-.638 2.853l-.655 2.839-.829-.037c-6.001-.264-11.478-2.535-15.881-6.585-3.756-3.455-6.416-8.174-7.428-13.179-.296-1.464-.43-2.591-.503-4.245l-.028-.644 2.759-.643c1.517-.354 2.796-.646 2.843-.649.061-.004.399.731 1.276 2.781" fill-rule="evenodd"/></svg>