<svg height="512pt" viewBox="0 0 512 512" width="512pt" xmlns="http://www.w3.org/2000/svg"><path d="m325.238281 209.707031c9.015625 0 17.488281-3.507812 23.859375-9.882812 6.371094-6.371094 9.882813-14.84375 9.882813-23.855469s-3.511719-17.484375-9.882813-23.859375c-13.15625-13.152344-34.5625-13.152344-47.714844 0-6.375 6.375-9.882812 14.847656-9.882812 23.859375s3.507812 17.484375 9.882812 23.855469c6.371094 6.375 14.84375 9.882812 23.855469 9.882812zm-9.714843-43.453125c2.679687-2.679687 6.199218-4.019531 9.714843-4.019531 3.519531 0 7.039063 1.339844 9.714844 4.019531 2.597656 2.59375 4.027344 6.042969 4.027344 9.714844 0 3.667969-1.429688 7.121094-4.027344 9.714844-2.59375 2.59375-6.042969 4.023437-9.714844 4.023437-3.667969 0-7.117187-1.429687-9.714843-4.023437-2.59375-2.59375-4.023438-6.046875-4.023438-9.714844 0-3.671875 1.429688-7.121094 4.023438-9.714844zm0 0"/><path d="m310.320312 284.089844c7.792969 0 15.585938-2.96875 21.515626-8.898438 11.863281-11.863281 11.863281-31.164062 0-43.027344-11.863282-11.859374-31.164063-11.859374-43.027344 0-11.863282 11.863282-11.863282 31.164063 0 43.027344 5.929687 5.929688 13.722656 8.898438 21.511718 8.898438zm-7.371093-37.785156c2.035156-2.03125 4.703125-3.046876 7.375-3.046876 2.667969 0 5.339843 1.015626 7.371093 3.046876 4.066407 4.066406 4.066407 10.679687 0 14.746093-4.0625 4.066407-10.679687 4.0625-14.746093 0-4.0625-4.066406-4.0625-10.679687 0-14.746093zm0 0"/><path d="m244.074219 215.664062h13.914062c10.84375 0 19.667969-8.820312 19.667969-19.667968v-13.910156c0-10.847657-8.820312-19.667969-19.667969-19.667969h-13.914062c-10.84375 0-19.667969 8.820312-19.667969 19.667969v13.910156c0 10.847656 8.824219 19.667968 19.667969 19.667968zm.332031-33.246093h13.25v13.246093h-13.25zm0 0"/><path d="m510.371094 432.542969c.003906 0 .003906 0 .007812-.003907l-62.542968-96c-1.84375-2.828124-4.996094-4.539062-8.378907-4.539062h-82.558593l53.917968-201.21875c3.175782-11.859375-.109375-24.125-8.792968-32.808594-8.679688-8.683594-20.941407-11.96875-32.808594-8.789062l-236.574219 63.390625c-12.554687 3.363281-22.925781 12.039062-28.449219 23.800781-5.527344 11.765625-5.585937 25.285156-.160156 37.097656 20.761719 45.175782 50.238281 85.382813 86.328125 118.527344h-108.898437v-272h348v202c0 5.523438 4.476562 10 10 10 5.519531 0 10-4.476562 10-10v-207.859375l14.550781-14.546875c1.875-1.878906 2.925781-4.421875 2.925781-7.074219v-22.519531c0-5.523438-4.476562-10-10-10h-402.957031c-5.523438 0-10 4.476562-10 10v22.519531c0 2.652344 1.054687 5.195313 2.929687 7.074219l14.550782 14.550781v284.929688l-59.882813 93.535156h.007813c-1 1.558594-1.585938 3.40625-1.585938 5.390625v64c0 5.523438 4.476562 10 10 10h492c5.523438 0 10-4.476562 10-10v-64c0-2.015625-.601562-3.886719-1.628906-5.457031zm-135.976563-324.042969c1.222657-.328125 2.457031-.488281 3.679688-.488281 3.636719 0 7.136719 1.429687 9.8125 4.105469 3.566406 3.570312 4.917969 8.613281 3.613281 13.488281l-57.007812 212.75c-6.300782-5.332031-14.449219-8.554688-23.339844-8.554688h-3.253906c-10.695313 0-19.394532-8.648437-19.394532-19.273437 0-21.65625-17.671875-39.273438-39.394531-39.273438-10.695313 0-19.398437-8.648437-19.398437-19.277344 0-21.65625-17.671876-39.273437-39.394532-39.273437-10.695312 0-19.394531-8.644531-19.394531-19.273437 0-10.652344-4.28125-20.320313-11.210937-27.402344zm-252.183593 96.621094c-2.960938-6.445313-2.929688-13.820313.085937-20.242188 2.140625-4.5625 5.625-8.269531 9.921875-10.691406 10.371094.371094 18.695312 8.84375 18.695312 19.238281 0 21.65625 17.675782 39.273438 39.398438 39.273438 10.695312 0 19.394531 8.648437 19.394531 19.277343 0 21.65625 17.671875 39.273438 39.394531 39.273438 10.695313 0 19.398438 8.644531 19.398438 19.273438 0 21.65625 17.671875 39.273437 39.394531 39.273437h3.253907c8.546874 0 15.546874 6.640625 16.089843 14.996094-2.234375 5.667969-6.539062 10.289062-12.121093 12.910156-6.417969 3.015625-13.796876 3.046875-20.242188.082031-76.289062-35.050781-137.609375-96.371094-172.664062-172.664062zm-58.230469-185.121094h382.957031v8.378906l-11.621094 11.621094h-359.714844l-11.621093-11.621094zm-22.871094 387.953125c.292969.027344.589844.046875.890625.046875h139.039062c5.523438 0 10-4.476562 10-10s-4.476562-10-10-10h-127.15625l23.046876-36h137.140624c22.257813 17.253906 46.535157 32.050781 72.460938 43.964844 5.847656 2.6875 12.113281 4.027344 18.375 4.027344 6.390625 0 12.777344-1.394532 18.71875-4.1875 11.761719-5.523438 20.4375-15.894532 23.800781-28.449219l4.117188-15.355469h82.496093l49.511719 76h-455.273437zm231.015625 40.046875c-3.355469 5.390625-9.320312 9-16.125 9s-12.769531-3.609375-16.125-9zm219.875 44h-472v-44h198.304688c4.425781 16.675781 19.644531 29 37.695312 29s33.265625-12.324219 37.695312-29h198.304688zm0 0"/><path d="m231.039062 398c0-2.628906-1.070312-5.210938-2.929687-7.070312-1.859375-1.859376-4.4375-2.929688-7.070313-2.929688-2.628906 0-5.210937 1.070312-7.070312 2.929688-1.859375 1.859374-2.929688 4.441406-2.929688 7.070312s1.070313 5.210938 2.929688 7.070312c1.859375 1.859376 4.441406 2.929688 7.070312 2.929688 2.632813 0 5.210938-1.070312 7.070313-2.929688 1.859375-1.859374 2.929687-4.441406 2.929687-7.070312zm0 0"/><path d="m439.460938 292c-2.632813 0-5.210938 1.070312-7.070313 2.929688-1.859375 1.859374-2.929687 4.441406-2.929687 7.070312s1.070312 5.210938 2.929687 7.070312c1.859375 1.859376 4.4375 2.929688 7.070313 2.929688 2.628906 0 5.210937-1.070312 7.070312-2.929688 1.859375-1.859374 2.929688-4.441406 2.929688-7.070312s-1.070313-5.210938-2.929688-7.070312c-1.859375-1.859376-4.441406-2.929688-7.070312-2.929688zm0 0"/></svg>