<svg id="Capa_1" enable-background="new 0 0 512 512" height="512" viewBox="0 0 512 512" width="512" xmlns="http://www.w3.org/2000/svg"><g><g><path d="m75.143 274.033c5.532 0 10.016-4.484 10.016-10.015s-4.484-10.016-10.016-10.016h-31.031c-5.531 0-10.016 4.485-10.016 10.016s4.484 10.015 10.016 10.015z"/><path d="m10.016 125.889h31.002c5.531 0 10.016-4.484 10.016-10.016 0-5.531-4.484-10.015-10.016-10.015h-31.002c-5.532 0-10.016 4.484-10.016 10.015s4.484 10.016 10.016 10.016z"/><path d="m385.504 142.538c-21.579 2.28-37.279 21.701-34.999 43.292 1.105 10.458 6.216 19.858 14.391 26.468 7.07 5.716 15.697 8.754 24.66 8.754 1.398 0 2.804-.073 4.213-.223 10.457-1.104 19.86-6.213 26.477-14.385 6.619-8.175 9.656-18.432 8.55-28.88-2.282-21.594-21.703-37.315-43.292-35.026zm19.174 51.301c-3.252 4.017-7.874 6.528-13.016 7.071-5.126.541-10.16-.944-14.172-4.188-4.014-3.244-6.522-7.86-7.065-12.996-1.121-10.607 6.588-20.148 17.183-21.268.692-.072 1.382-.108 2.068-.108 4.408 0 8.652 1.495 12.128 4.308 4.017 3.251 6.529 7.873 7.072 13.013.542 5.123-.948 10.155-4.198 14.168z"/><path d="m319.542 237.109c0-5.531-4.484-10.016-10.016-10.016s-10.016 4.485-10.016 10.016v.057c0 5.531 4.484 9.987 10.016 9.987s10.016-4.513 10.016-10.044z"/><path d="m318.455 320.047c-4.948 2.474-6.953 8.49-4.479 13.437l.028.057c1.751 3.503 5.27 5.516 8.932 5.516 1.511 0 3.046-.342 4.491-1.065 4.948-2.473 6.939-8.518 4.465-13.465s-8.487-6.954-13.437-4.48z"/><path d="m356.047 248.47c-4.964 2.44-7.01 8.443-4.571 13.406l.028.058c1.738 3.536 5.276 5.577 8.962 5.577 1.489 0 3.002-.333 4.43-1.036 4.964-2.439 6.996-8.471 4.556-13.435-2.438-4.965-8.44-7.009-13.405-4.57z"/><path d="m308.562 158.033c5.532 0 10.016-4.513 10.016-10.044s-4.484-10.015-10.016-10.015c-5.531 0-10.016 4.484-10.016 10.015v.057c0 5.531 4.484 9.987 10.016 9.987z"/><path d="m243.645 154.948c-8.459.883-16.067 5.014-21.424 11.631-5.361 6.623-7.817 14.936-6.916 23.409.9 8.466 5.041 16.074 11.659 21.423 5.722 4.624 12.702 7.081 19.936 7.081 1.135 0 2.275-.061 3.418-.183 17.464-1.816 30.192-17.524 28.371-35.04-1.858-17.468-17.596-30.158-35.044-28.321zm4.575 43.442c-3.132.334-6.211-.574-8.665-2.558-2.458-1.987-3.996-4.814-4.331-7.961-.334-3.145.577-6.23 2.567-8.689 1.986-2.452 4.802-3.983 7.932-4.309.007-.001.014-.002.02-.002.424-.046.845-.068 1.262-.068 5.972 0 11.12 4.518 11.764 10.563.676 6.506-4.044 12.347-10.549 13.024z"/><path d="m163.153 352.746h-91.814c-5.532 0-10.016 4.484-10.016 10.016 0 5.531 4.484 10.015 10.016 10.015h91.814c5.532 0 10.016-4.484 10.016-10.015-.001-5.532-4.485-10.016-10.016-10.016z"/><path d="m142.371 402.119h-20.867c-5.532 0-10.016 4.484-10.016 10.015s4.484 10.016 10.016 10.016h20.867c5.532 0 10.016-4.485 10.016-10.016s-4.484-10.015-10.016-10.015z"/><path d="m493.686 69.451c-30.435-17.614-63.302-29.65-97.686-35.773-5.448-.978-10.647 2.658-11.617 8.104-.97 5.445 2.659 10.646 8.104 11.616 32.082 5.714 62.755 16.947 91.17 33.392 7.953 4.598 10.68 14.813 6.08 22.771-4.597 7.952-14.812 10.68-22.768 6.081-57.045-32.99-123.521-41.792-187.181-24.792-63.658 17.002-116.892 57.776-149.897 114.814-4.597 7.953-14.812 10.682-22.77 6.08-7.953-4.598-10.68-14.813-6.08-22.77 43.71-75.586 118.492-125.64 205.17-137.328 5.482-.74 9.326-5.782 8.587-11.264-.739-5.483-5.787-9.335-11.264-8.587-44.457 5.995-87.713 22.143-125.092 46.697-12.627 8.295-24.482 17.435-35.557 27.365h-61.326c-5.531 0-10.016 4.484-10.016 10.015s4.484 10.016 10.016 10.016h41.069c-8.481 9.232-16.394 19.014-23.705 29.34h-58.871c-5.531 0-10.016 4.485-10.016 10.016s4.484 10.016 10.016 10.016h45.85c-.734 1.23-1.484 2.445-2.203 3.688-4.661 8.062-5.897 17.175-4.174 25.653h-69.509c-5.532.001-10.016 4.485-10.016 10.016s4.484 10.016 10.016 10.016h80.941c1.853 1.661 3.9 3.159 6.138 4.453 5.771 3.336 12.081 4.922 18.311 4.922 3.741 0 7.449-.586 10.999-1.694l22.031 21.689h-32.751c-5.532 0-10.016 4.485-10.016 10.016s4.484 10.015 10.016 10.015h53.099l29.804 29.341h-177.415c-5.532 0-10.016 4.484-10.016 10.015s4.484 10.016 10.016 10.016h197.761l29.805 29.341h-45.044c-5.532 0-10.016 4.484-10.016 10.016 0 5.531 4.484 10.015 10.016 10.015h65.391l29.805 29.342h-115.979c-5.532 0-10.016 4.484-10.016 10.015s4.484 10.016 10.016 10.016h136.325l59.548 58.622c1.898 1.869 4.432 2.878 7.027 2.878.861 0 1.73-.112 2.583-.339 3.427-.915 6.115-3.574 7.066-6.991l95.082-341.742c6.916-3.133 12.671-8.307 16.536-14.992 10.128-17.521 4.118-40.012-13.393-50.136zm-247.607 252.568-52.99-52.166c6.101-6.824 14.601-11.275 23.863-12.252 9.894-1.049 19.6 1.82 27.337 8.079 7.732 6.255 12.561 15.144 13.602 25.043 1.26 11.797-3.272 23.403-11.812 31.296zm156.434 54.223c-11.692-2.82-20.88-12.811-22.207-25.293-.817-7.732 1.431-15.323 6.331-21.374 4.9-6.053 11.86-9.838 19.613-10.657 4.021-.432 8.07-.001 11.878 1.204zm20.985-75.423c-6.237-1.876-12.834-2.522-19.37-1.818-13.055 1.379-24.796 7.761-33.061 17.97-8.268 10.214-12.062 23.029-10.681 36.09 2.212 20.796 17.369 37.477 36.76 42.469l-16.426 59.037-120.353-118.482c12.672-12.119 19.345-29.663 17.444-47.47-1.597-15.208-9.028-28.884-20.923-38.507-11.9-9.628-26.833-14.03-42.043-12.426-13.906 1.467-26.702 8.028-36.037 18.114l-35.337-34.787c1.381-1.634 2.65-3.397 3.757-5.313 62.592-108.169 201.527-145.274 309.712-82.712 3.782 2.188 7.848 3.652 12.033 4.383z"/><path d="m350.557 48.381h.057c5.532 0 9.987-4.484 9.987-10.016 0-5.531-4.512-10.015-10.044-10.015s-10.016 4.484-10.016 10.015c.001 5.531 4.485 10.016 10.016 10.016z"/></g></g></svg>