<svg xmlns="http://www.w3.org/2000/svg" width="33" height="32"><path d="M1.889.876C1.515 1.104.816 2.096.492 2.857a8.505 8.505 0 0 0-.315.935c-.127.47-.142.627-.142 1.488 0 .864.015 1.017.143 1.494.595 2.208 2.186 3.825 4.359 4.429.506.141.629.153 1.513.153.881 0 1.008-.013 1.505-.151a6.247 6.247 0 0 0 2.492-1.342c.396-.344.503-.573.392-.833C10.354 8.832 2.647 1.006 2.4.866c-.217-.122-.297-.12-.511.01m.967 2.229C1.633 4.96 2.198 7.481 4.094 8.628c.424.257.93.431 1.485.511.812.117 1.724-.082 2.471-.54l.322-.198.372.406.372.406-.254.182c-.366.263-1.065.59-1.575.735-.372.106-.566.125-1.265.123-.735-.002-.877-.018-1.308-.151-1.906-.584-3.194-2.046-3.538-4.014-.208-1.187.084-2.57.754-3.575l.242-.364.398.394.397.394-.111.168m15.083-.578c-.393.145-.75.359-1.03.617l-.231.213-.321-.084a2.721 2.721 0 0 0-3.095 1.402 3.437 3.437 0 0 0-.286.827c-.2 1.12.401 2.367 1.391 2.885l.314.164-.74.748c-.718.724-.741.755-.741.981 0 .423.422.686.786.491.066-.035.419-.374.785-.754l.665-.69.186.349a2.733 2.733 0 0 0 3.881 1.004 2.821 2.821 0 0 0 1.149-3.127l-.076-.255.253-.28c.321-.356.55-.842.661-1.405.08-.404.08-.482 0-.886-.19-.965-.724-1.674-1.562-2.074-.41-.195-.461-.206-1.063-.22-.519-.012-.685.005-.926.094m1.503 1.123c.402.187.605.382.795.761.144.289.168.397.168.763 0 .581-.211 1.001-.687 1.371-.443.343-.491.516-.27.968.14.286.159.384.159.819-.001.406-.024.537-.125.728-.319.603-.821.916-1.47.916-.66 0-1.152-.308-1.454-.913-.282-.564-.282-.564.633-1.474.441-.438.837-.863.88-.945.211-.398-.062-.814-.535-.814-.159 0-.282.103-1.075.902l-.895.902-.225-.051a1.681 1.681 0 0 1-1.159-.955c-.177-.392-.172-.997.009-1.373a1.81 1.81 0 0 1 .816-.818c.39-.179.981-.165 1.403.032.438.205.666.2.853-.019.709-.83.853-.917 1.547-.925.266-.003.428.029.632.125M4.749 4.838c-.044.038-1.068.168-1.318.167-.11 0-.113-.015-.064-.286.029-.158.126-.448.216-.646l.165-.361.523.543c.288.298.503.56.478.583m.641 1.226c0 .171-.179 1.823-.2 1.85-.059.073-.76-.367-1.055-.661-.304-.304-.67-.886-.67-1.065 0-.042.264-.094.756-.148 1.125-.126 1.169-.125 1.169.024m1.649 1.003c.496.497.515.525.412.601-.151.112-.654.301-.911.342-.197.031-.215.023-.215-.091 0-.26.132-1.374.162-1.374.018 0 .266.235.552.522m20.002-.248a4.884 4.884 0 0 0-2.525 1.258c-.294.279-.316.317-.316.549 0 .247.005.253.866 1.125.477.482.939.908 1.027.946.199.087.436.027.633-.158.4-.378 1.096-.522 1.645-.339.565.187 1.026.787 1.092 1.416.04.393-.091.841-.344 1.172-.263.345-.316.497-.245.712.036.108.393.506.954 1.064.87.864.904.891 1.125.891.2 0 .259-.032.481-.261.524-.542.894-1.207 1.165-2.096.13-.426.145-.563.145-1.328 0-.765-.015-.902-.145-1.328-.194-.636-.372-1.027-.676-1.484-.641-.964-1.605-1.665-2.757-2.005-.377-.111-.635-.147-1.171-.162-.378-.011-.807.001-.954.028M28.82 8c1.238.333 2.263 1.329 2.683 2.606.117.355.14.53.144 1.109.005.79-.078 1.182-.38 1.787-.335.674-.299.663-.748.213l-.389-.389.138-.273c.779-1.536.002-3.426-1.613-3.928-.673-.209-1.563-.125-2.126.201l-.228.132-.363-.385c-.2-.212-.363-.404-.363-.427 0-.065.556-.388.887-.515.692-.266 1.656-.319 2.358-.131m-16.775 4.039c-.845.274-1.489 1.039-1.576 1.876-.025.24-.061.348-.124.369-.431.143-1.032.604-1.204.923-.058.107-.064.108-.214.013-1.443-.915-3.349-1.282-5.627-1.084-.733.063-.91.121-1.02.334-.248.48.21 2.896.753 3.969l.104.206h-.526c-.601 0-.799.071-.904.324-.051.124-.061.588-.042 1.859.022 1.478.041 1.765.146 2.245.384 1.752 1.08 3.038 2.31 4.266 1.201 1.2 2.476 1.905 4.078 2.255.494.108 1.685.215 2.402.216H11v.883c0 .916.048 1.15.25 1.228.049.019 2.422.034 5.272.034h5.184l.133-.142c.129-.136.134-.175.151-1.061l.017-.92 1.138-.064c1.241-.07 1.665-.142 2.539-.432a8.082 8.082 0 0 0 3.136-1.946 8.117 8.117 0 0 0 2.171-3.657c.255-.879.311-1.383.34-3.026.025-1.413.019-1.555-.073-1.732a.698.698 0 0 0-.28-.275c-.099-.045-.189-.132-.2-.192l-.082-.441c-.145-.792-.742-1.562-1.489-1.92a3.124 3.124 0 0 0-.609-.225c-.19-.032-.236-.072-.389-.341a2.947 2.947 0 0 0-1.073-1.046c-1.078-.573-2.26-.422-3.152.402-.2.185-.361.297-.374.26-.064-.192-.513-.803-.833-1.136a5.077 5.077 0 0 0-2.217-1.36c-.522-.15-1.608-.204-2.152-.107a4.97 4.97 0 0 0-2.796 1.532l-.294.322-.219-.098c-.209-.093-.222-.113-.286-.461-.144-.781-.571-1.373-1.221-1.693-.322-.159-.418-.18-.886-.19-.288-.006-.585.009-.661.033m1.203 1.232c.342.226.459.506.497 1.185.03.526.043.578.177.693.092.079.251.137.436.159.16.019.311.054.334.077.024.024-.016.208-.089.41-.238.656-.319 1.199-.287 1.936.016.366.046.722.068.79l.039.124h-2.181c-2.135 0-2.18-.002-2.124-.106a.931.931 0 0 1 .208-.224c.199-.157.285-.317.287-.54.002-.144-.055-.242-.272-.471-.462-.489-.548-.875-.308-1.39.149-.319.449-.535.83-.597.579-.094.686-.238.688-.918.002-.651.165-.966.631-1.221.258-.14.782-.095 1.066.093m6.795.451c.731.155 1.538.633 2.061 1.219.342.385.676 1.014.827 1.559.129.465.156 1.394.054 1.867l-.059.278h-.579c-.575 0-.58-.001-.544-.124.225-.77.231-1.26.024-1.884-.433-1.307-1.81-2.113-3.138-1.836-1.031.215-1.889 1.072-2.135 2.132-.084.364-.044 1.151.077 1.48l.085.236-.589-.016-.59-.016-.07-.329c-.113-.529-.057-1.449.121-1.974.645-1.909 2.522-3.001 4.455-2.592M5.912 15.297c.949.137 1.997.534 2.589.981.258.195.287.239.32.488.02.151.123.447.228.658l.192.383-.156.296c-.085.163-.17.351-.187.419-.027.101-.071.123-.245.123-.196 0-.364-.123-2.219-1.625-1.103-.894-2.056-1.676-2.117-1.739l-.109-.113.659.037c.364.02.834.061 1.045.092m20.573.153c.445.197.679.472.954 1.121.128.302.34.424.738.424.158 0 .356.058.577.168.491.246.813.691.874 1.21l.032.272H24.047l.055-.234c.031-.128.06-.58.065-1.004.009-.831.073-1.073.397-1.497.421-.552 1.259-.753 1.921-.46m-6.539.588c.332.158.647.485.799.83.151.341.145.965-.013 1.332-.2.464-.146.449-1.543.432l-1.232-.015-.164-.302c-.149-.273-.165-.351-.165-.797 0-.446.016-.525.163-.79a1.62 1.62 0 0 1 2.155-.69M5.088 17.352c.816.66 1.508 1.22 1.537 1.246.029.026-.462.047-1.102.047H4.369l-.185-.371a7.364 7.364 0 0 1-.584-1.546c-.155-.591-.167-.706-.066-.628.038.029.737.593 1.554 1.252m25.107 3.593c0 1.336-.071 1.909-.335 2.718-.368 1.129-.903 1.994-1.781 2.882-.861.871-1.673 1.379-2.797 1.751-1.138.378-.837.366-9.057.348l-7.397-.017-.633-.172c-1.319-.36-2.381-.967-3.302-1.888a7.3 7.3 0 0 1-1.787-2.911c-.257-.796-.308-1.176-.339-2.577l-.031-1.334h27.459v1.2m-9.307 9.374-.016.564-4.386.014-4.386.014v-1.156h8.804l-.016.564" fill-rule="evenodd"/></svg>