<svg xmlns="http://www.w3.org/2000/svg" width="32" height="32"><path d="M14.187.033c-.38.074-.831.267-1.158.496-1.038.73-1.48 2.087-1.078 3.311.144.439.22.588.512 1l.236.333h-.673c-1.087 0-1.039-.094-1.039 2.064 0 1.548.006 1.653.107 1.818a.418.418 0 0 0 .267.207l.161.032-.014 1.286-.015 1.287-3.893.028c-4.319.03-4.053.008-4.827.399-1.059.534-1.812 1.47-2.145 2.666-.119.426-.119.436-.136 5.64-.014 4.651-.025 5.213-.098 5.213-.045 0-.154.072-.241.159l-.158.159.016 1.253c.015 1.222.019 1.256.137 1.375.121.121.124.121 2.061.136l1.94.015.034.184c.057.304.485 1.096.794 1.47.494.598 1.158 1.033 1.958 1.284.572.18 1.557.18 2.132 0 .829-.258 1.568-.764 2.052-1.401.268-.355.645-1.093.701-1.376l.033-.164H21.634l.096.306c.14.447.323.79.651 1.223 1.068 1.407 2.935 1.932 4.55 1.28 1.171-.473 1.948-1.344 2.419-2.713.028-.081.158-.092 1.206-.107 1.553-.021 1.413.122 1.431-1.471.016-1.337 0-1.422-.292-1.558l-.17-.08-.016-2.679-.016-2.678-.121-.122c-.114-.114-.176-.123-.987-.148l-.865-.027-.014-5.426c-.013-5.269-.01-5.427.086-5.427.142 0 .362-.239.401-.434.019-.091.034-.82.034-1.619 0-.8-.015-1.528-.034-1.62a.697.697 0 0 0-.167-.3c-.129-.129-.158-.134-.82-.134-.377 0-.686-.014-.686-.033 0-.018.072-.115.161-.216.216-.246.516-.854.622-1.259a3.306 3.306 0 0 0-.037-1.612A2.91 2.91 0 0 0 26.974.08a2.462 2.462 0 0 0-1.209.002c-.719.17-1.094.452-3.167 2.384l-.629.586-.425-.086c-.553-.112-1.523-.111-2.078.001l-.43.086-.358-.341c-.943-.899-2.343-2.119-2.639-2.3a3.258 3.258 0 0 0-.598-.283c-.278-.084-1.022-.141-1.254-.096m1.2 1.196c.235.113.645.449 1.549 1.268.677.613 1.308 1.207 1.403 1.322.21.251.519.879.57 1.154l.036.2h-.242c-.232 0-.244-.007-.306-.2a2.715 2.715 0 0 0-.544-.955c-.254-.275-1.942-1.462-2.313-1.626-.732-.324-1.582.221-1.658 1.063-.045.498.122.807.699 1.296.252.213.448.398.436.41-.012.012-.162-.007-.333-.042-.75-.154-1.319-.605-1.658-1.315-.185-.386-.199-.453-.199-.897 0-.423.018-.518.155-.797.464-.945 1.489-1.321 2.405-.881m11.623-.074c.784.275 1.292 1.198 1.148 2.086-.106.649-.612 1.355-1.176 1.642-.278.14-.867.311-.964.279-.032-.011.147-.192.396-.402.549-.462.704-.73.704-1.213-.001-.836-.814-1.451-1.577-1.192-.299.101-2.079 1.342-2.375 1.656-.297.314-.454.581-.549.936-.061.224-.063.226-.306.226h-.245l.034-.213c.048-.3.249-.727.492-1.045.29-.379 2.703-2.554 2.987-2.691a1.873 1.873 0 0 1 1.431-.069M15.83 3.771c1.052.721 1.229.859 1.399 1.093.087.12.158.239.158.264 0 .025-.157.045-.35.045h-.349l-.904-.75c-.675-.561-.904-.78-.904-.869 0-.135.092-.247.201-.247.04 0 .377.208.749.464m10.22-.381c.173.174.095.272-.829 1.032l-.913.751h-.341c-.187 0-.34-.02-.34-.046 0-.081.271-.449.415-.563.313-.248 1.802-1.253 1.861-1.255.034-.001.1.035.147.081m-4.758.6c.039.039.028.126-.037.287a3.86 3.86 0 0 0-.158.55l-.066.32-.536.015-.536.015-.038-.253a3.68 3.68 0 0 0-.161-.592c-.085-.235-.104-.346-.061-.36.258-.087 1.501-.073 1.593.018m-3.799 3.237v1.04H12v-2.08h5.493v1.04m5.014 0v1.04h-4v-2.08h4v1.04m6.506 0v1.04H23.52v-2.08h5.493v1.04m-11.04 7.493v5.44h-5.44V9.28h5.44v5.44m4 .001v5.441l-1.48-.014-1.48-.015L19 14.707l-.014-5.427h2.987v5.441m6.507-.001v5.441l-2.733-.014-2.734-.014L23 14.707l-.014-5.427h5.494v5.44m-16.96 2.157v3.97l.129.15.128.15 9.365.013 9.365.014V25.813h-1.533l-.149-.226a4.132 4.132 0 0 0-2.372-1.725c-.483-.13-1.454-.128-1.92.003a5.12 5.12 0 0 0-1.299.612c-.286.2-.827.761-1.043 1.083l-.169.253h-10.55l-.193-.291c-.536-.808-1.463-1.452-2.426-1.686-.161-.04-.545-.072-.853-.072-.308 0-.692.032-.853.072-.963.234-1.89.878-2.426 1.686l-.193.291H1.493v-4.64h8.651l.181-.181.182-.181V15.842l-.156-.174-.156-.175-4.327-.014c-4.076-.013-4.326-.02-4.3-.107a5.09 5.09 0 0 0 .063-.252c.02-.088.135-.352.255-.587.277-.54.724-.995 1.242-1.267.679-.356.604-.35 4.699-.355l3.693-.004v3.97m-5.013 1.47v1.814l-2.494-.014-2.493-.014-.014-1.8-.014-1.8H6.507v1.814m2.986 0v1.813H7.52v-3.627H9.493v1.814m-.753 6.53a2.972 2.972 0 0 1 1.705 1.227c.784 1.173.709 2.673-.189 3.786-.653.808-1.779 1.225-2.766 1.025-1.116-.227-1.975-1-2.35-2.115-.149-.444-.139-1.396.02-1.903.3-.954 1.125-1.755 2.077-2.017.345-.095 1.15-.096 1.503-.003m17.519.007c.798.205 1.527.813 1.894 1.58.249.524.327.862.326 1.419-.003 1.5-1.01 2.734-2.475 3.032-.986.2-2.101-.211-2.756-1.014-1.446-1.777-.663-4.404 1.499-5.023.34-.097 1.121-.094 1.512.006m-18.719.977c-.502.13-.966.477-1.234.924-.623 1.037-.235 2.409.829 2.933.327.161.397.175.865.175.468 0 .538-.014.865-.175a2.048 2.048 0 0 0 1.084-2.256c-.198-.95-.912-1.582-1.838-1.626-.222-.01-.479.001-.571.025m17.553-.015a2.105 2.105 0 0 0-1.494 1.4c-.139.435-.091 1.11.108 1.526.193.405.581.794.974.978.264.124.374.143.812.143.438 0 .549-.019.81-.142.616-.288 1.045-.864 1.168-1.569.151-.857-.333-1.784-1.135-2.177-.234-.114-.399-.152-.72-.167a3.007 3.007 0 0 0-.523.008M4.084 27c-.02.095-.05.335-.068.533l-.031.36H1.013v-1.066H4.12L4.084 27m4.462.018c.569.368.566 1.327-.005 1.712-.659.444-1.516-.041-1.516-.857 0-.825.838-1.296 1.521-.855m13.033.025c-.019.12-.05.36-.068.534l-.033.316H12.015l-.031-.36a6.281 6.281 0 0 0-.068-.533l-.036-.173h9.734l-.035.216m4.454-.028c.666.429.586 1.463-.137 1.791-.449.204-.94.054-1.209-.371-.293-.463-.169-1.138.258-1.402.379-.235.745-.241 1.088-.018m4.954.345v.533h-1.478l-.034-.386a5.603 5.603 0 0 0-.068-.534l-.033-.146h1.613v.533" fill-rule="evenodd"/></svg>