<?xml version="1.0" encoding="UTF-8"?> <svg xmlns="http://www.w3.org/2000/svg" width="104" height="115" viewBox="0 0 104 115" fill="none"> <path opacity="0.1" d="M14.6439 103.574C9.73926 100.438 9.2291 97.6624 13.4827 93.6751C18.1986 89.1316 23.4698 85.0498 27.6304 80.0447C35.9516 70.0346 42.6534 59.1486 45.2835 45.8182C46.9904 36.4224 50.5943 28.1334 59.0564 22.4722C63.1719 19.7807 67.3803 18.1068 72.3766 19.4389C73.163 19.6225 74.6429 18.9718 75.614 18.3685C80.1918 15.1208 85.0007 11.5951 91.2457 12.5546C92.0786 13.247 92.6804 14.2174 93.7445 14.6318C93.0511 15.466 92.4041 16.809 91.433 17.4124C88.7509 18.9444 86.0223 19.9676 83.5714 21.2216C82.8315 21.547 81.9999 23.6769 82.5552 24.1385C85.5642 28.9908 82.5128 32.0967 80.572 36.1259C77.7531 41.7761 75.4431 47.379 72.6242 53.0292C67.4023 63.2647 62.7821 74.4706 53.2108 82.0309C46.0905 88.3372 38.739 94.9216 30.8787 101.553C25.8852 105.866 19.5486 106.711 14.6439 103.574ZM69.8819 25.8288C67.8467 26.0178 65.6269 26.9937 63.7764 26.3959C61.4171 25.8452 60.446 26.4486 59.0126 27.6081C52.2616 32.3406 50.6463 39.9317 48.9845 47.014C45.2001 64.557 35.9557 78.5017 23.1949 90.4637C20.5593 92.5046 18.2013 94.7764 15.5657 96.8173C14.1789 98.4856 14.0407 99.7814 16.4001 100.332C18.7594 100.883 21.9051 101.617 24.1714 101.15C26.6689 100.405 29.0733 98.6418 30.969 96.9262C39.985 88.9043 49.5563 81.3439 57.7393 72.6296C64.7667 65.3056 68.7864 55.9516 71.742 46.1832C72.8964 41.9706 76.41 38.3085 74.9274 33.3144C70.5329 32.9528 69.7 32.2604 69.8819 25.8288Z" fill="#020202"></path> </svg> 